{"glyphs":{"0":{"ha":726,"x_min":73,"x_max":647,"o":"m 645 406 q 642 386 647 394 q 630 378 637 378 q 617 385 622 378 q 610 402 612 392 q 610 407 610 405 q 610 415 610 410 q 610 428 610 420 q 607 452 610 436 q 603 470 606 460 q 596 493 601 481 q 586 519 592 505 q 569 548 580 533 q 543 579 559 564 q 503 606 526 594 q 449 624 478 617 q 384 626 419 630 q 305 607 346 624 q 223 560 263 591 q 185 527 203 545 q 151 486 167 508 q 124 437 135 463 q 109 380 113 410 q 102 311 103 341 q 100 258 100 282 q 101 214 100 234 q 105 172 102 194 q 109 150 107 161 q 115 126 111 139 q 126 98 121 112 q 141 69 132 84 q 165 39 151 54 q 202 13 180 24 q 251 -1 223 1 q 311 3 279 -4 q 342 12 326 7 q 372 22 357 17 q 400 34 387 28 q 424 47 413 41 q 471 75 450 60 q 509 104 492 90 q 560 166 542 135 q 588 222 578 197 q 602 267 599 247 q 607 298 606 286 q 608 319 608 312 q 608 329 608 326 q 613 347 608 340 q 624 354 617 353 q 638 348 632 356 q 642 329 644 340 q 642 320 642 325 q 640 305 642 315 q 636 280 639 296 q 624 240 634 265 q 599 183 616 216 q 548 114 583 151 q 455 43 513 78 q 313 -10 397 9 q 240 -11 272 -16 q 209 -2 224 -8 q 183 12 194 3 q 142 48 157 28 q 117 87 126 68 q 102 124 108 106 q 92 158 96 142 q 85 187 88 173 q 80 214 82 201 q 74 264 75 240 q 74 317 73 288 q 77 348 75 332 q 83 383 78 365 q 92 423 86 401 q 112 468 99 444 q 149 518 130 498 q 188 554 168 538 q 223 579 206 569 q 256 599 240 590 q 288 613 272 606 q 319 626 303 620 q 352 635 335 631 q 389 640 369 638 q 449 639 420 642 q 499 626 477 635 q 540 603 522 615 q 570 577 557 590 q 607 527 594 551 q 624 487 619 503 q 634 459 630 470 q 639 438 638 447 q 643 422 642 429 q 645 406 644 415 z "},"1":{"ha":496,"x_min":65,"x_max":417,"o":"m 92 218 q 77 218 84 215 q 67 226 70 221 q 67 240 65 234 q 75 250 69 247 q 78 251 77 251 q 83 252 80 251 q 92 255 86 253 q 107 261 97 257 q 130 275 116 267 q 164 300 144 284 q 209 341 184 316 q 261 403 233 366 q 291 450 276 424 q 319 506 305 476 q 333 537 326 521 q 347 570 340 553 q 355 588 351 578 q 364 606 359 597 q 367 615 365 610 q 372 624 369 620 l 372 629 l 374 633 q 380 630 372 633 q 398 622 389 626 q 412 616 407 617 q 406 619 417 614 l 404 617 q 402 613 403 615 q 401 608 401 610 q 383 565 390 583 q 369 532 375 547 q 357 505 363 517 q 347 479 352 492 q 334 448 341 465 q 320 408 328 431 q 302 354 312 385 q 282 279 293 322 q 250 131 260 190 q 235 34 240 72 q 228 -20 229 -3 q 225 -42 226 -37 q 219 -51 224 -47 q 206 -54 213 -56 q 194 -49 198 -54 q 190 -36 190 -44 q 192 -31 191 -34 q 194 -22 193 -28 q 198 -6 196 -16 q 204 19 201 3 q 213 58 208 35 q 225 113 217 81 q 243 187 233 145 q 269 282 254 228 q 294 367 283 331 q 314 430 306 403 q 327 476 322 457 q 338 513 333 496 q 348 544 343 529 q 360 577 352 560 q 375 617 365 594 q 381 629 377 624 l 381 631 q 378 632 375 633 q 386 629 381 631 q 396 624 391 626 q 399 623 401 622 l 399 622 l 397 620 l 397 617 q 395 614 396 615 q 394 611 395 612 q 387 597 390 603 q 379 583 383 590 q 344 517 359 543 q 317 469 329 491 q 294 433 305 450 q 269 394 283 415 q 225 336 245 360 q 188 296 204 313 q 158 268 171 279 q 136 250 145 257 q 120 238 126 242 q 110 230 115 233 q 101 224 106 226 q 92 218 97 221 z "},"2":{"ha":756,"x_min":56,"x_max":694,"o":"m 659 -216 q 675 -214 668 -214 q 690 -217 684 -214 q 690 -234 694 -223 q 680 -244 686 -240 q 665 -249 673 -248 q 657 -251 660 -251 q 647 -251 654 -251 q 628 -249 640 -251 q 595 -241 617 -247 q 544 -223 574 -235 q 470 -187 514 -210 q 370 -132 427 -165 q 235 -55 313 -99 q 191 -31 214 -43 q 144 -8 169 -19 q 118 1 131 -4 q 92 8 105 7 q 80 8 83 10 q 74 6 74 8 q 73 -2 72 5 q 77 -15 74 -8 q 117 -37 87 -39 q 146 -31 131 -35 q 177 -18 161 -26 q 299 61 239 13 q 366 119 339 94 q 413 165 392 144 q 451 204 435 185 q 485 243 468 222 q 522 293 503 265 q 563 360 541 321 q 585 405 574 381 q 603 458 595 428 q 615 523 611 488 q 608 597 619 558 q 594 634 602 617 q 572 663 585 651 q 543 678 560 674 q 511 681 527 683 q 481 673 495 679 q 452 659 466 667 q 425 644 438 652 q 401 629 413 637 q 324 563 356 594 q 268 507 292 531 q 202 430 222 456 q 177 399 183 403 q 158 384 167 388 q 142 385 148 381 q 139 400 137 390 q 149 421 141 410 q 156 428 151 424 q 167 441 160 433 q 189 463 175 449 q 224 498 202 476 q 276 551 244 521 q 356 619 307 581 q 382 639 368 629 q 410 658 396 648 q 443 676 426 667 q 481 691 461 685 q 502 696 491 694 q 524 698 513 698 q 546 694 535 697 q 568 684 557 691 q 601 649 590 672 q 621 601 613 626 q 628 554 627 576 q 626 510 628 532 q 619 471 624 490 q 608 436 615 452 q 584 373 597 401 q 557 323 570 346 q 508 247 531 278 q 465 190 485 216 q 425 142 444 165 q 381 95 405 119 q 352 69 367 83 q 319 42 337 56 q 279 13 301 28 q 228 -18 257 -3 q 158 -49 192 -40 q 125 -56 141 -53 q 92 -53 108 -58 q 67 -33 76 -47 q 59 -8 60 -21 q 59 6 56 -1 q 67 21 59 15 q 80 24 74 24 q 92 24 86 24 q 134 10 115 18 q 171 -8 152 1 q 208 -26 189 -17 q 247 -47 226 -36 q 365 -113 314 -85 q 454 -158 415 -141 q 522 -189 494 -178 q 570 -205 550 -199 q 603 -214 590 -212 q 626 -217 616 -216 q 642 -217 635 -217 q 659 -216 649 -217 z "},"3":{"ha":772,"x_min":-151,"x_max":617,"o":"m -130 -44 q -146 -25 -141 -36 q -146 -9 -151 -15 q -130 -6 -140 -3 q -109 -17 -120 -8 q -103 -22 -106 -19 q -96 -28 -101 -24 q -83 -40 -92 -33 q -56 -61 -74 -48 q -11 -95 -39 -75 q 60 -141 16 -115 q 110 -167 83 -154 q 170 -192 137 -181 q 243 -214 203 -204 q 330 -217 283 -223 q 380 -206 355 -216 q 427 -178 405 -196 q 466 -134 449 -160 q 492 -77 482 -108 q 510 60 513 -15 q 507 95 510 78 q 496 129 503 113 q 476 158 488 145 q 447 178 464 170 q 403 189 424 188 q 363 188 382 190 q 327 184 343 188 q 295 178 310 181 q 280 174 288 176 q 266 170 273 172 q 260 168 263 169 q 253 165 257 166 q 252 167 251 169 q 254 163 253 164 q 252 167 254 162 q 244 192 251 172 l 244 192 l 249 194 l 256 197 q 282 205 269 201 q 309 215 295 209 q 369 241 337 226 q 442 283 401 256 q 484 313 463 296 q 528 355 506 331 q 572 410 552 378 q 599 485 592 442 q 601 528 603 507 q 594 568 599 549 q 579 601 589 586 q 556 624 569 617 q 525 631 542 632 q 493 627 508 631 q 463 617 477 623 q 435 603 449 610 q 386 574 408 589 q 344 545 363 560 q 308 517 324 531 q 278 492 292 503 q 231 449 250 467 q 198 418 211 431 q 178 398 185 406 q 167 387 171 390 q 147 373 158 377 q 131 374 137 369 q 131 391 127 380 q 144 413 134 402 q 152 419 147 415 q 165 431 156 424 q 190 452 174 439 q 231 486 206 465 q 258 509 242 497 q 292 538 274 522 q 334 567 311 551 q 385 600 358 583 q 416 617 401 608 q 449 632 431 626 q 488 645 467 640 q 531 649 509 650 q 555 643 544 647 q 575 631 566 639 q 592 611 585 622 q 603 588 598 600 q 614 538 611 564 q 611 484 617 512 q 598 436 608 458 q 575 395 588 414 q 550 360 563 376 q 523 331 537 344 q 467 286 494 304 q 416 252 441 268 q 331 207 368 223 q 260 177 294 190 q 257 175 259 176 q 253 173 255 174 l 249 173 l 249 171 q 248 174 249 170 q 245 181 247 178 q 244 187 244 185 q 244 185 243 189 l 249 185 q 257 190 253 188 q 264 192 260 192 q 280 198 272 196 q 296 203 288 200 q 367 217 330 213 q 409 216 386 217 q 456 203 431 214 q 480 190 468 198 q 501 170 492 182 q 528 112 521 147 q 534 68 533 89 q 531 28 534 47 q 526 -7 529 10 q 520 -40 524 -24 q 502 -95 513 -71 q 478 -141 492 -119 q 413 -203 451 -180 q 323 -231 375 -226 q 245 -228 281 -235 q 178 -212 209 -222 q 123 -192 148 -203 q 77 -171 99 -181 q 7 -134 35 -151 q -41 -105 -21 -117 q -73 -84 -60 -92 q -95 -69 -86 -76 q -113 -57 -105 -62 q -130 -44 -121 -51 z "},"4":{"ha":616,"x_min":76,"x_max":539,"o":"m 299 -403 q 296 -421 299 -413 q 285 -431 292 -429 q 272 -425 278 -432 q 264 -407 265 -418 q 263 -401 263 -403 q 264 -392 263 -398 q 264 -378 264 -387 q 267 -351 265 -369 q 272 -308 268 -334 q 284 -243 276 -281 q 308 -152 293 -204 q 346 -31 322 -100 q 373 49 359 6 q 405 140 388 92 q 443 243 422 189 q 492 356 464 297 q 500 375 497 366 q 509 391 504 383 l 509 392 q 510 391 513 389 q 507 394 508 394 q 510 391 506 395 q 534 371 515 387 l 532 370 l 528 367 q 522 363 524 365 q 507 354 514 357 q 483 338 494 344 q 463 324 472 331 q 423 301 441 310 q 385 279 405 291 q 341 254 365 267 q 283 223 317 241 q 246 205 265 214 q 202 186 226 196 q 147 169 178 176 q 113 169 133 166 q 94 176 102 170 q 86 184 89 179 q 81 194 83 188 q 76 214 77 205 q 76 233 76 222 q 76 249 76 240 q 77 265 77 258 q 82 296 79 281 q 88 326 84 311 q 102 380 95 354 q 115 427 108 405 q 141 508 129 473 q 162 571 152 544 q 191 650 181 624 q 203 681 201 675 q 215 696 207 691 q 230 699 222 701 q 238 686 235 695 q 235 667 240 677 q 232 660 233 664 q 226 647 230 656 q 215 625 222 639 q 199 589 209 612 q 176 534 189 567 q 144 454 163 501 q 128 403 137 431 q 110 345 119 376 q 102 312 106 329 q 94 276 97 295 q 92 257 93 266 q 90 238 90 247 q 89 218 89 228 q 92 199 89 208 q 119 180 100 180 q 138 180 128 179 q 154 183 147 181 q 185 191 170 186 q 213 202 199 197 q 261 225 240 213 q 303 247 283 237 q 366 286 340 269 q 413 319 391 303 q 454 348 434 333 q 497 378 474 362 q 502 382 499 380 q 509 388 506 384 q 515 391 511 390 l 517 394 q 520 392 516 395 q 530 384 525 388 q 536 378 534 381 q 534 381 539 376 l 532 380 l 532 378 q 524 363 528 371 q 517 346 520 356 q 500 311 509 330 q 479 269 491 292 q 433 166 450 208 q 402 90 415 123 q 390 57 396 73 q 378 26 384 42 q 367 -6 373 10 q 356 -41 362 -22 q 325 -145 337 -100 q 308 -225 314 -191 q 299 -283 301 -259 q 294 -324 296 -308 q 294 -353 294 -342 q 295 -373 294 -365 q 297 -388 296 -381 q 299 -403 297 -394 z "},"5":{"ha":756,"x_min":-237,"x_max":707,"o":"m -212 -390 q -232 -372 -226 -382 q -234 -356 -237 -362 q -218 -351 -228 -349 q -195 -359 -208 -353 q -189 -363 -192 -361 q -181 -368 -186 -365 q -164 -377 -175 -372 q -133 -391 -153 -382 q -109 -400 -123 -395 q -78 -408 -95 -404 q -39 -416 -60 -412 q 9 -419 -17 -419 q 67 -416 36 -420 q 133 -401 98 -412 q 206 -369 169 -390 q 283 -319 244 -349 q 364 -237 325 -285 q 440 -130 403 -190 q 475 -68 458 -101 q 509 0 493 -35 q 539 75 525 37 q 558 156 553 114 q 558 205 561 183 q 547 243 555 227 q 528 273 539 261 q 503 294 517 285 q 452 317 478 310 q 396 330 426 324 q 327 333 365 333 q 239 328 290 333 q 184 318 213 324 q 121 304 155 313 q 103 300 112 302 q 87 297 94 299 l 85 296 q 88 293 89 291 q 83 299 86 295 q 77 307 80 303 q 74 310 74 311 l 76 311 l 77 313 l 80 318 q 82 322 81 320 q 84 326 83 324 q 89 334 87 330 q 94 343 92 338 q 114 380 103 361 q 134 421 124 399 q 169 504 154 463 q 192 583 184 544 q 194 601 194 591 q 194 618 195 610 l 194 623 l 194 625 q 195 625 197 627 q 192 623 193 624 q 194 625 192 623 q 207 637 197 627 l 210 637 q 215 636 212 637 q 219 635 217 635 q 228 635 223 635 q 237 634 233 634 q 272 631 255 633 q 304 630 288 630 q 419 629 368 628 q 509 633 469 631 q 577 635 549 634 q 624 638 605 637 q 655 640 644 639 q 670 640 665 640 q 695 638 684 642 q 706 626 706 633 q 697 613 707 618 q 671 607 686 608 q 659 607 666 607 q 640 607 653 607 q 607 606 628 606 q 552 605 585 606 q 468 605 517 605 q 350 608 419 606 q 315 608 333 608 q 276 612 297 609 q 256 613 267 612 q 235 615 246 613 q 225 616 230 615 q 214 618 219 617 q 210 619 212 618 q 207 619 209 619 l 205 619 q 211 626 210 624 q 212 627 212 627 q 211 625 212 626 q 211 626 210 624 l 211 625 l 211 613 q 204 565 210 588 q 190 515 199 541 q 170 466 181 491 q 146 415 159 441 q 121 368 133 390 q 99 326 110 347 q 93 316 95 320 q 87 306 90 311 l 85 304 l 85 303 q 85 303 84 304 q 82 306 85 302 l 82 308 l 84 308 l 89 308 q 95 310 92 310 q 99 311 98 310 q 121 317 110 315 q 141 321 131 319 q 214 335 180 330 q 276 343 247 340 q 379 347 335 349 q 459 336 422 345 q 525 308 495 328 q 553 284 540 299 q 574 249 566 269 q 585 207 582 231 q 585 156 588 183 q 574 101 583 130 q 552 39 566 72 q 515 -38 534 -4 q 478 -101 495 -72 q 446 -151 461 -128 q 415 -194 431 -174 q 385 -232 399 -214 q 356 -266 371 -249 q 323 -299 340 -283 q 285 -333 306 -316 q 217 -379 250 -360 q 153 -410 185 -398 q 93 -428 122 -422 q 41 -437 65 -435 q -44 -437 -9 -442 q -103 -427 -80 -433 q -143 -417 -127 -422 q -170 -408 -158 -413 q -191 -399 -181 -403 q -212 -390 -200 -396 z "},"6":{"ha":876,"x_min":85,"x_max":745,"o":"m 435 621 q 410 623 421 619 q 399 633 400 626 q 406 647 397 640 q 431 656 415 653 q 438 656 436 657 q 448 656 440 656 q 467 656 455 656 q 503 656 479 657 q 530 653 515 655 q 563 648 544 651 q 601 637 580 644 q 647 615 622 630 q 692 575 670 600 q 727 515 715 551 q 743 435 741 478 q 735 344 745 392 q 700 235 724 292 q 634 122 677 178 q 586 67 613 94 q 522 19 558 40 q 445 -12 488 -1 q 355 -20 402 -24 q 301 -9 325 -17 q 258 9 277 -1 q 223 30 238 19 q 192 51 207 40 q 148 95 167 72 q 115 147 129 118 q 93 215 101 176 q 94 305 85 253 q 130 419 102 356 q 213 558 158 483 q 322 691 269 634 q 421 792 375 748 q 504 869 467 835 q 571 926 542 902 q 623 968 601 951 q 659 997 644 985 q 683 1015 674 1008 q 695 1024 692 1022 q 718 1034 707 1032 q 734 1031 729 1036 q 732 1014 738 1025 q 715 996 727 1003 q 706 990 711 993 q 691 979 701 986 q 664 961 681 972 q 621 930 647 949 q 558 881 594 910 q 469 807 521 851 q 416 759 444 785 q 356 701 388 733 q 292 633 325 670 q 224 551 259 597 q 131 394 160 466 q 102 265 102 322 q 107 212 101 236 q 123 169 113 188 q 142 136 131 151 q 165 108 153 121 q 189 84 176 94 q 216 65 202 74 q 244 47 229 55 q 275 30 258 38 q 355 8 310 14 q 407 7 379 5 q 467 19 434 10 q 538 56 508 35 q 592 100 568 78 q 630 143 614 122 q 659 183 646 163 q 682 224 672 204 q 699 265 691 243 q 713 306 707 285 q 724 353 719 328 q 730 430 732 394 q 717 495 728 466 q 693 546 708 525 q 660 583 677 567 q 625 605 642 597 q 592 617 608 613 q 563 624 576 622 q 539 627 550 626 q 502 628 517 629 q 475 626 487 627 q 455 623 464 624 q 435 621 446 622 z "},"7":{"ha":812,"x_min":-215,"x_max":688,"o":"m -177 -547 q -194 -561 -185 -557 q -210 -559 -204 -565 q -214 -545 -215 -555 q -206 -526 -212 -535 q -201 -521 -203 -523 q -194 -515 -199 -519 q -183 -503 -190 -511 q -164 -481 -176 -496 q -131 -445 -151 -467 q -82 -388 -111 -422 q -15 -307 -53 -354 q 76 -194 24 -259 q 199 -31 131 -125 q 355 182 266 64 q 403 247 383 219 q 441 297 424 274 q 472 338 458 319 q 503 378 487 357 q 536 423 518 398 q 578 484 555 449 q 605 523 591 502 q 633 569 618 543 q 648 594 640 581 q 663 622 655 608 q 668 638 666 630 q 674 653 671 646 q 675 662 674 658 q 676 668 676 665 q 674 670 676 670 l 675 670 q 674 672 675 670 q 672 673 674 672 q 669 675 670 674 q 653 683 662 680 q 635 687 644 685 q 618 689 626 688 q 600 690 610 690 q 565 693 582 693 q 532 694 548 694 q 469 692 499 694 q 414 689 440 690 q 319 678 361 683 q 245 670 277 674 q 152 656 182 660 q 115 650 123 651 q 94 652 103 648 q 83 663 85 656 q 90 676 83 670 q 110 685 98 683 q 119 685 114 685 q 135 687 124 686 q 163 690 146 688 q 208 694 181 691 q 277 699 236 696 q 374 706 317 703 q 435 709 403 708 q 506 711 468 711 q 545 710 525 711 q 587 708 565 710 q 607 705 597 707 q 631 701 618 703 q 653 697 642 700 q 676 685 665 693 q 685 679 679 684 q 687 673 687 676 q 688 667 688 669 q 687 656 688 662 q 684 644 686 651 q 676 626 681 635 q 667 608 672 616 q 650 575 658 590 q 632 547 642 560 q 600 494 615 517 q 571 451 584 471 q 524 380 544 409 q 488 326 504 351 q 456 278 472 301 q 422 228 441 255 q 377 169 402 202 q 316 91 352 135 q 236 -10 268 31 q 178 -84 203 -51 q 132 -145 153 -116 q 83 -208 110 -174 q 6 -306 39 -264 q -52 -380 -28 -349 q -94 -434 -76 -412 q -123 -474 -111 -457 q -142 -500 -134 -490 q -155 -519 -149 -511 q -166 -533 -160 -527 q -177 -547 -171 -540 m 465 127 q 471 125 467 128 q 480 116 475 122 q 485 105 483 110 q 483 98 487 99 q 480 97 481 97 q 469 93 478 97 q 441 82 459 90 q 385 63 422 75 q 340 42 365 56 q 281 20 316 28 q 262 16 270 17 q 248 15 254 15 q 235 14 241 15 q 224 13 230 14 q 193 10 212 13 q 138 2 174 8 q 77 -8 101 -4 q 37 -15 52 -12 q 15 -18 22 -17 q 6 -19 8 -19 q 0 -15 3 -19 q -2 -2 -2 -10 q -1 10 -3 5 q 4 15 1 15 q 9 15 6 17 q 26 13 13 13 q 66 11 40 11 q 137 15 91 12 q 173 19 158 17 q 199 24 188 22 q 218 29 210 26 q 233 34 226 31 q 245 39 239 37 q 258 44 251 42 q 275 48 265 46 q 297 51 284 49 q 326 56 315 53 q 348 61 338 58 q 365 67 357 64 q 383 74 373 70 q 427 96 413 87 q 449 113 441 106 q 458 121 456 118 q 465 127 460 124 z "},"8":{"ha":824,"x_min":-6,"x_max":694,"o":"m 640 467 q 626 496 631 483 q 626 514 621 509 q 645 512 632 520 q 670 485 659 504 q 675 476 673 480 q 680 462 676 472 q 684 452 682 458 q 690 435 686 446 q 693 415 691 427 q 694 385 694 402 q 688 349 693 369 q 668 306 683 328 q 630 263 653 283 q 576 224 607 242 q 416 160 512 187 q 316 127 369 146 q 204 77 263 108 q 142 37 173 59 q 83 -15 112 15 q 37 -82 56 -44 q 15 -165 17 -119 q 31 -255 14 -210 q 80 -337 49 -299 q 158 -408 114 -376 q 256 -458 201 -440 q 376 -477 324 -481 q 465 -451 431 -472 q 497 -429 483 -442 q 522 -402 510 -416 q 541 -371 533 -387 q 558 -336 550 -354 q 570 -295 565 -317 q 579 -248 576 -273 q 584 -195 583 -224 q 577 -134 585 -167 q 552 -67 570 -101 q 501 -1 535 -33 q 425 60 469 31 q 326 120 381 89 q 273 152 299 136 q 224 188 247 169 q 183 229 201 207 q 153 278 164 251 q 139 331 141 304 q 140 381 137 357 q 152 428 144 406 q 168 471 160 451 q 249 606 201 552 q 302 649 274 632 q 358 671 331 665 q 410 673 386 676 q 454 665 435 670 q 488 652 473 659 q 515 639 503 644 q 549 616 538 625 q 565 603 561 606 q 588 576 581 590 q 590 557 595 562 q 570 558 583 551 q 544 575 558 564 q 533 585 539 580 q 514 601 526 590 q 498 610 506 605 q 477 623 490 616 q 449 635 465 629 q 413 644 433 641 q 367 644 392 647 q 315 628 342 642 q 262 585 288 612 q 214 518 236 558 q 192 477 203 499 q 172 431 182 454 q 159 379 165 406 q 158 322 154 351 q 176 266 161 294 q 215 215 190 238 q 270 172 240 192 q 333 131 300 151 q 391 95 363 113 q 444 60 419 78 q 492 23 471 42 q 531 -16 514 4 q 560 -58 548 -37 q 580 -101 572 -80 q 591 -144 588 -123 q 597 -184 595 -165 q 593 -257 598 -224 q 580 -319 588 -290 q 538 -416 565 -374 q 467 -478 508 -456 q 369 -505 425 -501 q 314 -501 343 -506 q 251 -485 284 -497 q 182 -455 217 -474 q 111 -404 147 -435 q 38 -316 65 -362 q 3 -227 11 -270 q 1 -146 -6 -183 q 24 -78 8 -108 q 58 -24 38 -48 q 101 20 78 -1 q 150 58 124 40 q 207 92 176 76 q 305 136 258 119 q 393 168 352 154 q 469 194 435 181 q 533 222 503 207 q 619 282 589 250 q 644 312 635 297 q 658 340 653 326 q 665 366 664 354 q 666 386 666 377 q 664 405 666 397 q 661 420 663 413 q 652 443 657 433 q 640 467 647 454 z "},"9":{"ha":664,"x_min":101,"x_max":556,"o":"m 206 -576 q 202 -599 206 -590 q 191 -608 199 -608 q 178 -599 183 -608 q 173 -576 173 -590 q 173 -569 173 -572 q 174 -561 174 -567 q 176 -544 174 -555 q 179 -512 177 -533 q 185 -460 181 -492 q 197 -381 188 -428 q 220 -270 206 -334 q 260 -121 235 -206 q 288 -22 273 -75 q 320 90 302 31 q 361 217 338 150 q 414 356 384 283 q 449 436 433 403 q 476 497 464 470 q 500 546 489 523 q 524 594 512 569 q 530 606 528 599 q 536 619 533 613 l 539 623 q 540 623 542 621 q 538 625 539 624 q 541 622 538 625 q 556 609 544 619 l 556 609 l 556 608 l 552 608 q 546 603 551 605 q 539 599 542 601 q 532 594 535 597 q 501 575 517 585 q 464 552 485 565 q 421 527 444 540 q 372 500 398 515 q 312 467 344 484 q 242 434 281 450 q 201 420 222 426 q 160 413 181 414 q 139 414 151 412 q 117 424 126 415 q 105 447 106 433 q 105 468 101 457 q 110 487 106 478 q 119 503 114 496 q 144 530 131 519 q 168 550 156 541 q 194 567 181 560 q 241 593 219 582 q 285 615 264 605 q 325 631 306 623 q 360 644 344 638 q 417 664 393 656 q 457 677 441 672 q 482 685 473 683 q 495 690 492 688 q 519 690 508 693 q 531 680 529 688 q 525 666 532 674 q 505 655 517 659 q 495 652 501 653 q 478 649 490 651 q 449 642 467 647 q 403 630 431 638 q 335 608 376 621 q 240 569 294 595 q 212 555 226 563 q 184 538 198 547 q 155 516 169 528 q 131 489 141 505 q 123 472 126 481 q 120 453 119 463 q 127 437 120 444 q 144 428 133 430 q 166 428 155 426 q 190 432 178 430 q 213 439 201 435 q 237 447 224 442 q 317 483 281 464 q 384 518 353 501 q 441 552 415 536 q 488 582 467 567 q 508 596 499 589 q 528 608 518 603 q 538 614 533 612 q 546 620 542 617 l 547 622 q 546 622 545 623 q 548 620 547 622 q 551 618 550 619 q 552 618 553 617 l 551 615 l 549 609 q 548 606 549 608 q 546 601 547 603 q 530 568 538 584 q 517 537 523 552 q 495 480 506 508 q 472 420 485 453 q 441 348 458 388 q 401 251 424 307 q 373 182 385 213 q 350 123 360 150 q 332 73 340 97 q 317 29 324 50 q 292 -49 303 -12 q 269 -132 281 -86 q 238 -260 250 -205 q 220 -358 226 -316 q 210 -430 213 -400 q 206 -479 208 -459 q 206 -514 206 -500 q 206 -538 206 -528 q 206 -557 206 -549 q 206 -576 206 -566 z "}," ":{"ha":1302,"x_min":0,"x_max":0,"o":""},"e":{"ha":961,"x_min":-58,"x_max":1122,"o":"m 130 368 q 147 366 140 370 q 156 354 154 362 q 151 340 157 347 q 138 332 146 334 q 133 332 135 331 q 126 332 131 332 q 115 330 122 331 q 94 326 108 328 q 59 315 81 322 q 11 290 38 308 q -15 268 -2 281 q -35 233 -28 254 q -39 187 -43 213 q -22 133 -35 160 q -3 106 -15 119 q 25 83 9 94 q 59 64 41 73 q 98 49 77 56 q 187 29 139 35 q 290 21 235 22 q 351 22 325 20 q 397 25 376 24 q 434 28 417 26 q 472 33 452 30 q 514 41 491 37 q 568 55 537 46 q 640 78 599 64 q 733 118 680 93 q 830 169 788 144 q 906 215 872 193 q 965 256 940 238 q 1010 290 991 274 q 1067 334 1049 319 q 1088 352 1084 349 q 1104 357 1096 358 q 1117 351 1113 357 q 1121 337 1122 346 q 1112 323 1119 328 q 1106 319 1109 321 q 1095 312 1102 317 q 1078 300 1089 308 q 1049 281 1067 292 q 1006 252 1031 269 q 942 213 980 235 q 856 163 905 190 q 739 106 806 135 q 630 63 676 78 q 547 35 583 47 q 485 19 512 25 q 437 7 459 13 q 394 -1 415 2 q 348 -6 373 -4 q 291 -8 323 -8 q 215 -1 259 -8 q 119 23 157 9 q 53 51 81 36 q 27 66 40 58 q 3 83 15 74 q -18 105 -8 93 q -35 132 -28 116 q -53 181 -48 156 q -53 228 -58 206 q -38 267 -49 251 q -16 294 -28 283 q 28 326 8 316 q 62 344 48 337 q 86 354 76 350 q 102 360 95 358 q 116 365 110 363 q 130 368 122 366 z "},"f":{"ha":1007,"x_min":-6,"x_max":1172,"o":"m 37 -687 q 36 -692 36 -690 q 35 -695 36 -694 q 22 -736 30 -719 q 6 -751 13 -753 q -4 -731 -2 -750 q -1 -687 -6 -712 q 3 -672 1 -681 q 8 -647 5 -662 q 18 -607 12 -632 q 33 -544 24 -583 q 49 -422 40 -497 q 71 -234 58 -347 q 92 -36 83 -122 q 106 113 101 50 q 115 219 112 176 q 119 288 117 261 q 120 327 120 315 q 122 343 121 340 q 128 353 123 349 q 142 356 134 357 q 154 350 149 354 q 158 339 159 345 q 156 329 158 335 q 151 305 155 323 q 142 250 147 286 q 127 151 136 214 q 107 -5 119 89 q 81 -235 96 -99 q 68 -344 74 -296 q 60 -431 63 -392 q 89 -311 72 -379 q 129 -154 106 -243 q 162 -31 144 -97 q 201 110 180 35 q 248 270 222 185 q 306 450 274 355 q 362 613 335 538 q 415 752 389 688 q 464 870 440 816 q 510 969 488 924 q 596 1122 556 1059 q 680 1230 637 1184 q 726 1270 702 1252 q 779 1300 750 1288 q 794 1306 787 1303 q 810 1309 802 1308 q 817 1311 813 1310 q 826 1312 822 1311 l 831 1312 q 838 1310 834 1312 q 844 1304 842 1308 q 847 1298 847 1301 q 849 1287 849 1292 q 848 1278 849 1283 q 847 1269 847 1274 q 845 1261 847 1265 q 841 1245 843 1253 q 835 1228 838 1237 q 809 1161 824 1196 q 775 1086 794 1126 q 733 1000 756 1046 q 682 902 710 955 q 613 774 644 832 q 554 667 581 716 q 504 576 527 618 q 460 497 481 535 q 420 426 439 460 q 382 357 401 392 q 343 287 363 323 q 301 212 323 251 q 296 204 298 208 q 292 197 294 200 l 291 196 q 308 194 299 194 q 324 192 316 193 q 358 189 341 190 q 390 187 374 188 q 452 185 422 185 q 510 187 482 185 q 614 194 566 189 q 703 207 661 199 q 840 238 784 221 q 934 268 896 254 q 997 293 973 282 q 1040 313 1022 303 q 1073 328 1058 321 q 1106 345 1088 335 q 1147 361 1128 357 q 1169 358 1165 365 q 1159 338 1172 351 q 1123 313 1146 324 q 1110 307 1115 309 q 1095 300 1106 304 q 1064 288 1084 296 q 1007 265 1044 279 q 909 233 969 251 q 758 197 849 214 q 657 181 711 188 q 537 172 602 174 q 469 170 504 170 q 397 172 435 170 q 320 178 360 174 q 300 181 310 180 q 279 185 290 183 q 275 194 276 192 q 275 195 274 196 q 275 194 275 195 q 275 194 276 193 l 276 195 l 276 197 l 278 199 l 280 203 l 285 213 q 291 221 288 217 q 296 231 293 226 q 393 404 342 311 q 499 606 443 497 q 618 834 556 713 q 747 1094 681 955 q 784 1176 767 1138 q 813 1248 801 1215 q 817 1264 815 1256 q 821 1280 819 1272 q 822 1284 821 1283 q 776 1272 797 1281 q 732 1245 751 1260 q 694 1213 712 1230 q 628 1137 659 1179 q 563 1038 596 1094 q 492 901 531 981 q 453 814 474 861 q 411 710 433 767 q 366 589 390 654 q 319 446 343 523 q 233 158 269 289 q 170 -81 197 27 q 124 -274 144 -189 q 90 -426 105 -359 q 62 -559 73 -506 q 45 -644 51 -612 l 37 -687 z "},"a":{"ha":1021,"x_min":-107,"x_max":1180,"o":"m 126 359 q 143 367 134 367 q 158 362 153 367 q 160 347 163 356 q 149 331 158 338 q 145 327 147 328 q 139 324 143 326 q 127 316 135 321 q 108 300 120 310 q 75 272 94 289 q 28 226 56 254 q 0 194 15 211 q -31 154 -15 176 q -62 105 -47 132 q -89 44 -78 78 q -93 25 -91 35 q -91 14 -96 15 q -74 15 -84 11 q -54 21 -63 17 q -13 42 -34 30 q 29 67 8 53 q 74 97 51 81 q 120 128 96 112 q 132 137 126 133 q 144 145 138 141 l 156 154 l 159 156 l 160 157 l 160 158 l 161 158 l 181 158 l 182 157 l 188 153 q 214 137 201 145 q 242 122 228 129 q 305 89 278 101 q 354 67 332 77 q 395 51 376 58 q 437 37 415 44 q 485 25 458 31 q 549 15 511 19 q 589 14 567 14 q 635 18 610 15 q 687 30 660 22 q 746 53 715 38 q 857 114 809 83 q 943 172 906 144 q 1010 224 981 200 q 1060 266 1038 247 q 1120 323 1102 304 q 1143 347 1138 342 q 1160 356 1151 354 q 1174 352 1169 358 q 1178 337 1180 347 q 1169 320 1176 328 q 1163 315 1166 318 q 1152 306 1159 312 q 1133 290 1144 299 q 1101 264 1121 280 q 1054 226 1082 248 q 984 174 1026 203 q 886 110 942 145 q 751 40 831 76 q 682 15 715 24 q 619 4 649 7 q 565 2 590 1 q 519 6 540 3 q 444 17 475 10 q 388 31 414 24 q 339 46 363 38 q 289 65 316 53 q 261 78 275 72 q 230 95 247 85 q 194 116 213 104 l 176 128 l 171 132 l 168 134 l 167 135 l 166 135 l 176 135 l 176 135 q 170 132 173 134 q 165 128 168 131 q 113 96 137 110 q 68 69 89 81 q 30 47 47 57 q -5 29 12 38 q -36 14 -21 21 q -69 2 -52 7 q -87 0 -77 0 q -93 1 -90 1 q -98 3 -95 2 q -106 14 -104 7 q -106 25 -107 20 q -104 35 -106 30 q -102 44 -103 40 q -99 53 -101 49 q -76 109 -90 85 q -50 154 -63 133 q -25 191 -37 174 q -1 222 -12 208 q 39 268 22 250 q 67 300 56 287 q 88 322 80 313 q 102 337 96 331 q 113 348 108 343 q 126 359 119 353 z "},"b":{"ha":1007,"x_min":17,"x_max":1174,"o":"m 1169 356 q 1161 334 1174 349 q 1127 303 1149 319 q 1110 293 1119 299 q 1080 275 1100 287 q 1027 245 1060 263 q 938 202 994 228 q 800 144 882 176 q 600 79 719 113 q 472 45 541 62 q 323 15 403 29 q 303 11 313 13 q 283 8 294 10 q 273 4 278 6 q 262 0 267 2 q 253 -3 256 -1 q 250 -3 251 -3 q 248 -3 249 -3 l 247 -4 q 246 2 247 -6 l 245 2 q 243 13 244 10 q 243 14 243 15 q 243 12 243 13 q 244 13 244 11 q 242 24 242 20 q 243 19 242 27 l 244 19 l 246 20 q 255 21 250 21 q 263 23 259 22 q 274 24 269 24 q 284 26 278 25 q 307 36 296 31 q 330 48 318 42 q 410 97 370 69 q 485 164 450 125 q 513 201 501 182 q 531 242 525 221 q 531 285 536 264 q 515 322 526 306 q 501 338 508 331 q 494 344 498 341 q 486 349 490 347 q 467 349 476 351 q 449 343 458 347 q 416 326 431 335 q 385 306 400 316 q 331 264 356 285 q 282 223 306 243 q 238 184 259 203 q 198 147 217 165 q 126 80 159 111 q 63 24 94 49 q 55 18 59 21 q 47 13 51 15 q 38 7 42 10 q 28 3 34 5 q 25 4 27 3 q 20 6 22 4 q 17 10 17 8 q 17 14 17 13 q 17 19 17 17 q 18 24 17 21 q 19 33 19 28 q 22 42 20 37 q 30 75 26 59 q 39 106 35 90 q 74 214 56 163 q 113 324 91 266 q 122 348 112 332 q 148 418 134 381 q 180 497 163 455 q 218 588 197 540 q 263 694 238 637 q 325 832 297 769 q 379 947 353 894 q 427 1044 404 1000 q 471 1127 449 1088 q 492 1165 482 1147 q 515 1201 503 1183 q 538 1235 526 1219 q 565 1267 549 1251 q 583 1280 573 1274 q 588 1282 585 1281 q 594 1283 590 1283 q 607 1282 600 1284 q 626 1267 618 1278 q 631 1256 629 1261 q 633 1244 632 1250 q 634 1199 637 1222 q 626 1153 632 1176 q 607 1081 618 1115 q 583 1015 595 1047 q 559 955 572 983 q 533 899 546 926 q 484 802 508 846 q 438 720 460 758 q 359 594 393 644 q 299 509 324 544 q 256 451 273 474 q 224 413 238 429 q 199 383 210 397 q 172 353 188 369 q 144 329 158 338 q 119 261 131 292 q 97 201 107 231 q 77 148 86 174 q 59 98 67 122 q 51 73 55 85 q 43 48 47 60 q 40 38 42 42 q 38 27 39 33 q 55 40 46 33 q 74 54 64 47 q 98 74 85 64 q 123 97 110 85 q 178 146 149 119 q 242 203 207 172 q 278 235 260 219 q 319 269 297 251 q 363 304 340 286 q 414 338 386 322 q 428 346 421 342 q 444 353 435 350 q 460 359 451 357 q 480 361 469 362 q 491 359 485 361 q 501 353 497 358 q 515 340 508 348 q 537 308 528 326 q 547 269 546 290 q 540 227 547 247 q 521 189 533 207 q 496 154 510 171 q 433 96 467 121 q 366 50 400 71 q 355 44 360 47 q 344 38 350 41 q 432 57 390 47 q 513 78 474 67 q 710 139 625 108 q 858 198 794 169 q 966 250 922 226 q 1039 291 1010 274 q 1084 319 1068 309 q 1106 334 1100 330 q 1146 355 1128 349 q 1169 356 1164 362 m 431 1015 q 323 770 378 900 q 208 491 268 640 q 191 448 199 469 q 176 408 183 428 q 198 432 185 417 q 233 472 212 447 q 300 553 260 503 q 392 684 340 603 q 448 774 419 725 q 507 882 476 822 q 537 944 522 912 q 567 1013 552 976 q 595 1087 581 1049 q 617 1169 608 1126 q 623 1217 622 1192 q 621 1241 623 1229 q 613 1262 619 1253 q 597 1271 608 1271 q 588 1268 592 1271 q 578 1261 583 1265 q 560 1242 568 1253 q 544 1221 551 1232 q 485 1123 513 1175 q 431 1015 458 1072 z "},"c":{"ha":1032,"x_min":34,"x_max":1192,"o":"m 1158 359 q 1173 365 1165 365 q 1187 359 1181 365 q 1190 345 1192 353 q 1181 331 1189 336 q 1176 327 1178 328 q 1167 322 1174 326 q 1146 308 1160 317 q 1108 282 1133 299 q 1041 239 1082 265 q 937 178 1001 213 q 866 143 905 162 q 781 106 828 124 q 680 68 735 87 q 560 35 626 50 q 322 5 433 6 q 218 12 267 5 q 128 35 169 19 q 89 56 107 44 q 58 83 72 67 q 47 100 51 91 q 39 119 42 109 q 35 138 35 128 q 35 156 34 148 q 44 221 36 192 q 65 274 53 250 q 91 315 77 297 q 119 344 106 332 q 146 366 133 357 q 169 381 158 374 q 201 397 189 392 q 216 403 213 402 q 234 403 226 407 q 244 392 242 400 q 241 378 245 385 q 228 369 236 372 q 219 366 224 367 q 201 360 213 365 q 185 354 194 358 q 166 344 177 350 q 142 327 155 337 q 114 303 128 318 q 86 266 100 288 q 63 214 72 244 q 55 181 58 199 q 51 145 53 164 q 59 109 51 127 q 84 77 67 91 q 123 52 101 63 q 170 35 144 42 q 281 17 222 19 q 411 20 342 13 q 558 44 481 26 q 669 75 619 58 q 763 110 719 92 q 842 145 807 128 q 908 178 878 163 q 1006 238 968 212 q 1069 283 1044 265 q 1107 314 1093 302 q 1130 334 1122 326 q 1144 347 1138 342 q 1158 359 1150 353 z "},"d":{"ha":1091,"x_min":-62,"x_max":1263,"o":"m 1259 358 q 1249 339 1263 351 q 1211 315 1235 326 q 1199 310 1203 312 q 1183 303 1194 308 q 1152 291 1172 299 q 1097 267 1133 283 q 1002 226 1060 251 q 860 164 945 201 q 766 124 816 146 q 655 78 715 103 q 592 54 624 67 q 524 30 559 42 q 487 18 506 24 q 448 8 468 13 q 438 7 442 7 q 427 6 433 6 l 422 6 q 420 6 420 6 q 418 6 419 6 q 414 7 415 6 q 408 12 410 9 q 404 19 406 15 q 400 41 400 31 q 401 63 401 52 q 418 159 407 110 q 442 260 428 208 q 464 343 452 301 q 489 429 476 385 q 354 261 419 336 q 226 128 289 187 q 145 58 185 89 q 61 8 105 27 q 39 0 50 3 q 16 -5 28 -3 q -8 -5 4 -6 q -32 3 -21 -3 q -43 10 -37 6 q -52 20 -48 15 q -61 44 -59 31 q -61 66 -62 56 q -58 85 -60 76 q -45 118 -52 103 q -32 147 -39 133 q -3 194 -18 172 q 23 231 10 215 q 44 261 35 248 q 77 302 65 288 q 94 323 89 317 q 127 352 111 342 q 149 357 144 362 q 147 335 155 351 q 122 299 139 318 q 109 284 117 292 q 88 260 102 276 q 72 241 81 251 q 51 215 63 230 q 27 182 40 201 q -1 139 13 163 q -16 113 -9 127 q -28 83 -23 99 q -34 51 -34 67 q -20 27 -35 35 q 16 21 -5 18 q 60 34 38 24 q 105 58 82 44 q 150 91 127 73 q 245 174 197 127 q 346 281 294 222 q 422 370 383 323 q 501 471 460 417 q 504 481 503 475 q 585 727 540 597 q 688 1001 630 858 q 724 1086 707 1047 q 756 1158 740 1125 q 786 1220 772 1192 q 815 1275 801 1249 q 831 1299 823 1288 q 847 1323 838 1311 q 855 1334 851 1328 q 866 1345 860 1340 q 873 1350 869 1348 q 882 1355 876 1353 q 897 1356 889 1358 q 910 1347 904 1353 q 924 1320 919 1334 q 929 1292 928 1306 q 930 1264 931 1278 q 927 1236 929 1250 q 915 1179 923 1208 q 894 1118 906 1150 q 868 1051 883 1086 q 833 975 853 1015 q 788 889 813 935 q 732 791 763 843 q 663 679 701 738 q 578 553 625 619 q 549 511 563 531 q 519 470 534 490 q 502 416 510 442 q 486 366 494 390 q 463 288 474 325 q 443 211 453 250 q 434 173 438 192 q 425 133 429 153 q 418 92 422 113 q 414 49 415 71 q 414 40 413 44 q 415 31 414 35 q 419 19 416 22 l 419 19 l 423 19 l 431 19 q 440 21 435 20 q 448 22 444 22 q 480 31 464 26 q 511 41 496 35 q 570 62 542 51 q 624 84 598 73 q 721 124 676 105 q 803 161 765 144 q 933 221 881 196 q 1024 264 986 246 q 1085 294 1060 282 q 1128 315 1110 306 q 1161 332 1146 324 q 1196 349 1177 340 q 1237 363 1219 360 q 1259 358 1256 365 m 640 803 q 580 645 606 715 q 534 515 554 574 q 551 538 542 526 q 567 560 559 549 q 664 704 621 636 q 742 831 708 772 q 803 944 776 891 q 850 1043 830 997 q 884 1130 870 1090 q 905 1208 897 1171 q 910 1245 908 1227 q 911 1278 913 1263 q 909 1294 910 1287 q 906 1310 908 1302 q 900 1324 903 1316 q 898 1327 899 1325 q 897 1330 898 1328 q 894 1333 895 1331 q 892 1334 893 1334 q 886 1333 891 1336 q 881 1329 883 1331 q 876 1324 879 1326 q 867 1312 872 1318 q 860 1301 863 1306 q 845 1276 852 1288 q 831 1249 838 1263 q 804 1195 817 1223 q 777 1136 791 1167 q 716 994 749 1074 q 640 803 683 915 z "},"g":{"ha":1120,"x_min":-214,"x_max":1289,"o":"m 1285 357 q 1278 338 1289 350 q 1248 314 1267 325 q 1237 308 1242 310 q 1224 301 1233 306 q 1198 288 1215 297 q 1150 261 1181 278 q 1072 216 1119 244 q 953 146 1024 189 q 786 41 883 103 q 566 -108 690 -20 q 425 -214 499 -156 q 269 -343 351 -272 q 186 -417 228 -378 q 102 -500 144 -456 q 63 -541 82 -520 q 23 -584 43 -562 q -32 -708 -6 -653 q -79 -811 -57 -764 q -116 -886 -99 -852 q -148 -951 -133 -921 q -177 -1008 -164 -982 q -182 -1016 -180 -1012 q -186 -1024 -184 -1020 l -185 -1026 l -185 -1029 l -185 -1031 l -184 -1031 q -186 -1031 -185 -1031 q -189 -1031 -187 -1031 q -190 -1032 -190 -1032 q -191 -1034 -190 -1033 l -192 -1037 l -193 -1037 q -191 -1038 -189 -1038 q -195 -1037 -192 -1037 q -202 -1036 -199 -1037 q -204 -1036 -205 -1036 l -204 -1035 l -205 -1033 q -206 -1031 -206 -1032 q -206 -1028 -206 -1030 q -213 -1027 -213 -1028 q -212 -1027 -213 -1027 q -209 -1028 -210 -1028 q -211 -1028 -208 -1028 l -210 -1027 q -209 -1025 -210 -1026 q -208 -1022 -208 -1024 q -209 -1012 -209 -1015 q -212 -957 -214 -984 q -204 -903 -210 -930 q -189 -851 -199 -877 q -165 -797 -179 -825 q -92 -679 -137 -742 q 28 -540 -47 -616 l 28 -539 q 63 -450 45 -497 q 99 -348 81 -402 q 175 -92 146 -208 q 218 123 203 25 q 220 134 219 128 q 222 146 221 140 l 219 144 q 183 119 201 130 q 144 100 164 108 q 106 87 126 92 q 65 86 85 83 q 27 101 44 90 q 2 127 12 112 q -13 157 -8 141 q -18 188 -18 173 q -14 217 -18 204 q -4 242 -10 231 q 20 278 7 264 q 44 303 33 292 q 82 333 68 324 q 103 347 97 343 q 140 361 123 359 q 160 357 157 364 q 152 339 163 350 q 122 315 140 327 q 108 306 116 311 q 84 291 99 301 q 67 278 76 285 q 47 259 58 270 q 27 232 38 248 q 13 194 16 217 q 23 147 9 172 q 41 125 30 135 q 68 113 52 115 q 103 113 84 109 q 142 126 122 117 q 223 175 182 143 l 226 178 l 226 178 l 226 178 q 224 180 225 179 q 226 178 222 181 q 230 181 228 180 q 233 183 231 182 l 233 184 q 234 183 235 183 q 232 184 233 184 q 235 183 232 185 q 248 177 238 182 l 248 176 l 247 175 l 247 172 l 247 168 q 249 167 248 168 q 248 167 248 167 l 247 166 l 247 165 q 244 151 245 158 q 242 137 244 144 q 238 108 240 123 q 232 79 235 94 q 219 17 226 49 q 203 -49 212 -15 q 164 -192 187 -117 q 112 -353 142 -268 q 81 -439 96 -398 q 50 -517 65 -479 q 131 -440 93 -474 q 203 -376 169 -406 q 274 -316 241 -343 q 336 -266 306 -290 q 394 -221 366 -242 q 449 -178 422 -199 q 506 -135 477 -157 q 569 -90 535 -114 q 758 42 676 -13 q 903 138 840 97 q 1010 206 966 178 q 1085 254 1053 234 q 1136 287 1116 274 q 1172 310 1156 300 q 1200 328 1187 320 q 1229 345 1213 335 q 1265 360 1249 357 q 1285 357 1282 364 m -65 -751 q -35 -686 -51 -721 q -2 -612 -19 -652 q -34 -652 -18 -632 q -66 -692 -50 -672 q -144 -818 -117 -762 q -183 -922 -172 -874 q -188 -957 -186 -940 q -190 -990 -190 -974 q -176 -967 -183 -980 q -152 -923 -165 -946 q -126 -874 -140 -900 q -97 -817 -112 -847 q -65 -751 -81 -787 z "},"h":{"ha":1567,"x_min":2,"x_max":1736,"o":"m 1731 360 q 1724 338 1736 353 q 1690 307 1712 323 q 1672 295 1682 302 q 1643 277 1663 289 q 1591 244 1624 265 q 1506 193 1559 224 q 1446 160 1479 178 q 1372 123 1413 143 q 1283 82 1332 103 q 1174 42 1235 62 q 1112 24 1144 33 q 1044 10 1080 16 q 970 1 1008 4 q 890 1 931 -2 q 805 15 848 4 q 719 47 761 25 q 639 102 676 69 q 570 179 601 135 q 545 220 556 199 q 524 262 534 241 q 516 283 520 272 q 508 303 512 293 l 502 324 q 501 329 501 327 q 500 334 501 331 l 496 331 q 427 289 460 309 q 364 248 394 268 q 252 174 303 208 q 158 108 201 140 q 115 79 135 93 q 77 51 95 65 q 59 38 67 44 q 42 25 50 31 q 34 19 36 21 q 31 13 33 16 q 27 6 28 10 l 27 6 q 22 10 28 5 l 20 10 l 18 8 q 13 13 14 12 q 12 14 12 14 q 13 13 13 13 q 13 13 13 13 l 13 14 l 13 15 l 14 17 q 5 24 8 22 q 9 22 2 27 l 10 22 l 12 23 l 15 26 l 19 28 q 49 95 35 64 q 75 155 63 126 q 114 244 95 201 q 153 335 133 288 q 128 326 139 328 q 115 329 117 324 q 123 350 111 336 q 156 381 135 365 q 166 389 162 386 q 180 400 171 392 q 183 401 181 400 q 213 469 197 433 q 247 546 228 505 q 288 634 266 587 q 334 735 309 681 q 398 874 369 811 q 452 991 427 938 q 498 1090 476 1044 q 538 1176 519 1135 q 556 1216 547 1197 q 574 1255 565 1235 q 583 1274 578 1265 q 592 1292 588 1283 q 597 1301 595 1297 q 602 1310 599 1306 q 605 1315 603 1313 q 608 1319 606 1317 q 609 1322 608 1321 q 610 1324 610 1322 q 613 1326 611 1325 q 616 1328 615 1328 q 621 1332 618 1330 q 629 1333 624 1333 q 637 1330 634 1333 q 641 1324 640 1326 q 644 1312 644 1317 q 645 1301 645 1306 q 645 1279 646 1290 q 642 1257 644 1268 q 634 1213 639 1235 q 624 1167 629 1191 q 581 1028 603 1092 q 536 909 558 965 q 492 808 513 854 q 450 722 470 762 q 376 591 409 644 q 317 503 342 539 q 272 446 290 468 q 238 408 253 424 q 218 388 228 397 q 199 369 209 378 q 155 274 175 317 q 118 194 135 232 q 83 122 100 157 q 48 49 66 87 q 61 58 55 53 q 76 67 68 63 q 138 110 105 88 q 210 160 170 133 q 293 216 249 186 q 392 281 338 245 q 420 298 406 289 q 448 316 433 306 q 463 325 456 321 q 478 335 470 330 q 485 339 481 337 q 493 344 489 342 l 495 345 l 496 346 q 493 347 491 348 q 500 344 495 347 q 508 341 504 342 q 511 340 513 339 l 511 339 q 512 337 512 338 q 513 335 512 336 l 515 326 q 541 256 524 291 q 582 187 558 221 q 635 125 606 152 q 698 77 665 97 q 765 44 731 57 q 834 26 799 32 q 967 20 903 14 q 1087 40 1031 26 q 1191 72 1143 54 q 1282 109 1240 90 q 1359 146 1324 128 q 1426 182 1395 165 q 1530 244 1488 217 q 1601 291 1572 272 q 1646 322 1631 310 q 1668 338 1662 333 q 1708 359 1690 353 q 1731 360 1726 366 m 503 1060 q 395 812 452 943 q 272 532 339 681 q 253 490 263 510 q 236 451 244 470 l 251 466 q 318 548 278 497 q 406 683 357 599 q 457 777 431 726 q 510 890 483 828 q 564 1025 537 952 q 615 1185 592 1098 q 625 1233 620 1208 q 632 1283 631 1257 q 633 1296 633 1290 q 632 1308 633 1302 q 629 1319 632 1313 q 628 1320 628 1320 q 626 1320 628 1320 q 625 1319 626 1319 q 622 1318 624 1319 q 622 1317 622 1317 l 619 1315 q 616 1309 618 1312 q 613 1303 615 1307 q 607 1291 610 1297 q 601 1279 604 1285 q 552 1174 576 1228 q 503 1060 528 1119 z "},"i":{"ha":1278,"x_min":60,"x_max":1444,"o":"m 1440 361 q 1439 347 1444 354 q 1426 335 1435 339 q 1419 333 1422 333 q 1409 330 1417 332 q 1385 322 1401 328 q 1339 306 1369 317 q 1261 277 1308 294 q 1143 233 1215 259 q 974 171 1072 206 q 743 95 877 136 q 498 32 609 56 q 294 7 387 9 q 207 13 248 6 q 133 38 166 19 q 81 86 98 57 q 68 116 72 101 q 63 144 64 131 q 64 197 60 174 q 73 238 68 219 q 84 271 78 257 q 94 297 89 285 q 109 331 103 319 q 117 347 115 343 q 131 358 122 355 q 145 357 139 361 q 152 344 151 353 q 149 328 153 335 q 143 319 147 324 q 132 301 140 314 q 113 265 124 289 q 101 236 107 252 q 90 198 94 219 q 84 150 84 176 q 88 122 85 136 q 99 94 91 108 q 119 68 106 81 q 150 47 132 56 q 233 24 185 30 q 336 22 281 18 q 455 35 391 25 q 589 63 518 46 q 740 104 660 80 q 955 175 864 142 q 1113 235 1047 209 q 1225 281 1181 262 q 1300 315 1270 301 q 1347 337 1330 328 q 1376 351 1365 346 q 1394 361 1387 357 q 1411 369 1401 365 q 1429 370 1421 372 q 1440 361 1437 368 m 391 738 q 301 728 335 732 q 246 724 266 724 q 219 727 226 723 q 211 740 212 731 q 212 753 210 748 q 217 759 214 759 q 221 758 218 759 q 233 757 224 758 q 259 755 242 756 q 306 754 276 754 q 381 756 336 754 q 489 761 425 758 q 572 767 538 764 q 626 773 605 770 q 660 778 648 776 q 678 783 672 781 q 688 786 685 785 q 695 788 691 788 q 703 790 698 788 q 710 785 709 792 q 693 767 710 772 q 637 759 676 762 q 538 752 599 756 q 391 738 477 748 z "},"j":{"ha":1064,"x_min":-504,"x_max":1239,"o":"m 1235 369 q 1226 351 1239 363 q 1194 331 1214 340 q 1183 326 1188 328 q 1169 321 1178 324 q 1142 310 1160 317 q 1093 290 1125 303 q 1011 256 1061 277 q 887 201 962 235 q 711 122 813 168 q 475 9 609 76 q 322 -73 402 -27 q 153 -177 242 -118 q 64 -240 109 -206 q -26 -312 19 -274 q -113 -397 -70 -351 q -194 -496 -156 -442 q -274 -619 -244 -565 q -327 -718 -304 -674 q -367 -801 -349 -762 q -404 -883 -385 -840 q -424 -929 -414 -906 q -444 -980 -433 -953 q -467 -1038 -455 -1007 q -470 -1046 -469 -1042 q -474 -1053 -472 -1050 l -477 -1062 q -481 -1061 -475 -1062 q -492 -1057 -486 -1059 q -501 -1055 -498 -1056 q -497 -1056 -504 -1054 l -497 -1056 l -497 -1054 l -497 -1052 l -495 -1047 q -491 -1029 -493 -1038 q -485 -1010 -488 -1020 q -425 -837 -463 -935 q -331 -610 -387 -740 q -224 -369 -273 -477 q -133 -173 -174 -262 q -58 -15 -91 -84 q 1 108 -25 53 q 45 199 26 160 q 76 263 63 238 q 95 303 88 289 q 106 324 103 318 q 128 356 116 344 q 147 364 140 367 q 151 344 153 360 q 139 308 149 328 q 131 293 135 301 q 117 267 126 284 q 93 223 108 251 q 55 150 78 195 q -3 39 31 104 q -82 -119 -36 -26 q -187 -333 -128 -211 q -318 -615 -247 -456 q -378 -754 -351 -690 q -426 -874 -405 -818 q -447 -929 -437 -903 q -463 -980 -456 -956 q -470 -1002 -467 -992 q -476 -1024 -474 -1013 q -450 -955 -462 -987 q -427 -894 -437 -922 q -406 -840 -416 -865 q -386 -791 -396 -815 q -344 -695 -365 -741 q -294 -597 -323 -649 q -261 -542 -279 -570 q -220 -483 -243 -514 q -168 -417 -197 -451 q -100 -347 -139 -383 q -3 -264 -49 -299 q 84 -201 43 -228 q 161 -151 126 -173 q 228 -110 196 -129 q 291 -75 260 -92 q 351 -41 321 -58 q 413 -8 381 -25 q 480 26 444 8 q 683 126 595 84 q 837 200 771 169 q 949 254 903 232 q 1028 292 995 276 q 1082 318 1060 307 q 1119 336 1103 328 q 1149 350 1135 344 q 1179 365 1163 357 q 1216 375 1199 374 q 1235 369 1232 376 m 243 898 q 237 909 237 901 q 239 917 236 914 q 246 919 242 921 q 248 919 247 919 q 251 921 249 919 q 253 924 252 922 q 256 927 255 925 q 257 928 257 927 q 258 929 257 928 q 258 931 258 930 l 259 931 q 260 930 260 931 q 265 927 261 929 q 276 923 268 925 q 298 918 283 920 q 334 914 313 916 q 386 913 355 913 q 457 914 417 913 q 551 921 498 916 q 623 928 592 925 q 677 935 654 932 q 715 942 699 939 q 741 948 731 945 q 757 952 751 950 q 767 956 763 954 q 773 958 771 957 q 779 959 776 959 q 785 955 783 960 q 789 942 788 949 q 789 928 790 934 q 783 922 787 923 q 781 923 782 922 q 778 924 781 924 q 769 925 775 924 q 753 926 764 926 q 687 923 733 926 q 552 912 640 919 q 406 900 463 904 q 314 894 349 895 q 264 893 280 892 q 243 898 248 894 z "},"k":{"ha":1143,"x_min":4,"x_max":1308,"o":"m 1303 360 q 1300 341 1308 354 q 1274 315 1291 328 q 1264 309 1268 312 q 1252 302 1260 307 q 1228 287 1244 297 q 1185 260 1213 278 q 1113 216 1157 242 q 1001 152 1069 189 q 925 114 966 134 q 833 75 883 94 q 723 38 783 56 q 592 15 663 21 q 511 15 553 13 q 426 35 469 18 q 405 44 415 39 q 384 57 394 49 q 375 65 379 61 q 366 75 370 69 q 364 78 365 76 q 363 83 363 80 q 361 91 361 85 q 364 106 361 100 q 377 130 369 119 q 392 149 384 140 q 409 168 400 159 q 427 185 417 176 q 470 224 448 206 q 515 262 492 243 q 419 214 461 235 q 343 174 378 192 q 277 139 308 156 q 211 103 245 122 q 126 54 171 83 q 76 23 101 40 q 63 14 69 18 q 49 4 56 9 q 42 -1 46 1 q 35 -6 39 -3 q 28 -12 31 -10 l 27 -13 l 26 -14 q 23 -12 28 -15 q 14 -7 19 -10 q 7 -2 9 -3 q 10 -3 4 0 l 10 -3 l 11 1 q 63 167 30 74 q 147 386 96 261 q 244 616 199 513 q 327 804 289 719 q 395 955 365 889 q 449 1072 426 1021 q 490 1159 473 1122 q 519 1220 508 1195 q 538 1259 531 1244 q 547 1278 544 1273 q 568 1308 557 1297 q 586 1316 579 1319 q 591 1297 593 1313 q 580 1263 590 1281 q 573 1248 577 1256 q 560 1224 568 1240 q 537 1181 551 1208 q 501 1112 523 1155 q 448 1006 479 1068 q 375 856 417 944 q 278 650 333 767 q 160 381 224 533 q 106 248 129 309 q 63 133 82 187 q 46 81 53 106 q 31 31 38 56 l 25 8 q 24 4 24 6 q 23 -1 24 1 l 24 0 q 58 26 42 15 q 124 70 93 51 q 181 106 154 90 q 232 136 208 122 q 278 164 256 151 q 364 213 322 190 q 455 263 405 237 q 508 291 480 276 q 569 322 536 306 q 603 338 585 330 q 640 356 621 347 l 644 358 q 655 366 649 362 q 665 373 660 369 l 678 381 l 684 385 l 685 386 q 681 392 679 396 q 689 379 683 388 q 690 380 690 379 q 690 380 690 380 q 692 377 690 381 q 697 368 694 372 q 701 361 700 363 q 699 364 702 358 l 699 363 l 699 363 l 698 363 q 702 356 701 358 q 702 356 703 354 l 701 356 l 699 354 l 697 353 q 669 339 683 346 q 642 326 656 333 q 558 267 596 294 q 490 215 521 240 q 455 188 472 201 q 425 160 439 174 q 399 132 411 146 q 378 103 386 118 q 376 90 375 95 q 378 84 376 87 q 383 78 380 81 q 408 58 393 66 q 436 44 422 50 q 467 35 451 39 q 531 27 498 28 q 602 29 565 26 q 713 51 663 36 q 807 82 763 65 q 886 116 851 99 q 953 149 922 133 q 1055 208 1015 182 q 1124 253 1095 233 q 1170 285 1151 272 q 1202 308 1188 299 q 1226 327 1215 318 q 1251 345 1238 335 q 1284 362 1269 358 q 1303 360 1299 367 z "},"l":{"ha":1034,"x_min":101,"x_max":1199,"o":"m 1194 360 q 1188 341 1199 353 q 1159 318 1178 328 q 1144 310 1153 315 q 1119 298 1136 306 q 1075 278 1103 290 q 1003 246 1048 265 q 892 201 958 226 q 733 142 827 175 q 632 109 686 126 q 515 73 578 91 q 450 55 483 64 q 380 37 416 46 q 305 19 344 28 q 225 5 267 11 q 206 2 215 3 q 187 0 197 1 q 177 0 182 0 q 168 -1 173 -1 q 158 0 163 0 q 149 2 154 0 q 135 15 140 8 q 126 31 130 23 q 121 48 123 40 q 117 65 119 56 q 116 130 113 99 q 122 189 118 160 q 134 265 127 229 q 149 332 142 300 q 121 320 134 322 q 105 324 108 318 q 111 343 101 331 q 136 367 120 355 q 145 373 142 371 q 156 381 149 376 q 159 384 158 383 q 164 388 161 385 q 203 525 185 467 q 238 633 222 583 q 253 680 246 657 q 269 727 261 703 q 287 775 278 751 q 307 826 297 799 q 357 945 328 878 q 431 1100 385 1011 q 489 1208 462 1160 q 546 1294 517 1256 q 561 1311 553 1303 q 579 1326 569 1319 q 585 1329 582 1328 q 591 1331 588 1331 q 605 1330 598 1333 q 614 1321 611 1326 q 619 1310 617 1315 q 623 1289 622 1299 q 623 1269 624 1279 q 622 1251 623 1260 q 620 1233 622 1242 q 608 1165 615 1197 q 592 1101 601 1133 q 572 1036 583 1069 q 549 968 562 1004 q 464 768 506 852 q 387 624 422 684 q 323 522 351 563 q 272 455 294 482 q 234 410 250 428 q 207 381 219 393 q 186 361 196 370 q 165 344 177 353 q 163 334 164 339 q 160 324 162 330 q 143 247 151 288 q 129 155 135 205 q 127 103 127 131 q 133 50 126 76 q 144 26 137 36 q 152 16 147 21 l 154 14 l 155 14 q 160 13 156 13 q 190 14 174 12 q 222 18 206 15 q 350 45 290 30 q 465 77 410 61 q 569 109 520 93 q 662 141 618 125 q 817 199 750 172 q 937 249 885 226 q 1024 289 988 272 q 1085 319 1060 307 q 1122 340 1109 332 q 1141 350 1135 347 q 1175 364 1160 360 q 1194 360 1191 367 m 227 542 q 205 478 217 513 q 181 401 194 444 q 214 432 194 413 q 271 494 238 455 q 347 597 304 533 q 440 756 390 661 q 541 983 490 850 q 566 1059 554 1020 q 589 1142 578 1098 q 598 1186 594 1164 q 605 1231 602 1208 q 607 1278 608 1255 q 604 1301 607 1292 q 597 1314 602 1313 q 594 1314 595 1315 q 587 1310 592 1314 q 578 1302 583 1306 q 571 1293 574 1298 q 556 1273 563 1283 q 541 1251 549 1263 q 514 1205 527 1229 q 488 1156 501 1181 q 436 1050 461 1105 q 385 937 411 996 q 329 806 351 861 q 289 706 307 751 q 257 624 272 662 q 227 542 242 585 z "},"m":{"ha":2026,"x_min":-40,"x_max":2196,"o":"m 2192 359 q 2188 341 2196 353 q 2163 320 2179 330 q 2155 315 2158 317 q 2143 310 2151 313 q 2122 299 2136 306 q 2082 278 2108 292 q 2016 243 2056 264 q 1915 191 1976 222 q 1849 158 1885 175 q 1769 121 1813 140 q 1676 81 1726 101 q 1565 42 1626 60 q 1494 31 1530 31 q 1456 34 1475 31 q 1417 46 1436 38 q 1349 94 1379 62 q 1297 166 1319 126 q 1260 252 1275 206 q 1256 265 1258 258 q 1253 277 1254 271 q 1244 270 1249 274 q 1236 263 1240 267 q 1156 198 1198 230 q 1066 133 1114 165 q 958 69 1005 93 q 870 29 911 44 q 831 17 850 22 q 792 9 811 12 q 751 7 772 6 q 710 16 731 8 q 671 40 689 24 q 640 79 653 57 q 604 189 615 123 q 596 257 599 221 q 595 335 594 293 l 583 327 q 562 314 572 321 q 541 301 551 308 q 495 272 519 287 q 447 242 472 258 q 259 127 344 178 q 98 42 173 77 q 61 25 80 33 q 25 12 43 17 q 7 7 16 9 q -14 5 -3 4 q -27 8 -21 5 q -33 12 -31 9 q -37 17 -36 15 q -39 22 -39 20 q -40 26 -40 24 q -40 39 -40 34 q -37 48 -39 43 q -26 79 -33 65 q -15 106 -20 93 q -2 131 -8 119 q 10 155 4 143 q 50 230 33 199 q 79 282 67 261 q 98 315 92 303 q 108 331 105 326 q 130 356 118 347 q 148 360 141 364 q 152 342 154 356 q 140 312 149 328 q 132 300 137 306 q 119 280 128 293 q 96 244 110 267 q 60 186 82 222 q 36 145 49 168 q 10 96 24 123 q -4 67 3 82 q -15 35 -11 51 q -16 29 -16 31 q -3 29 -10 28 q 16 33 6 31 q 35 39 25 35 q 119 75 75 53 q 215 124 164 97 q 321 183 265 151 q 440 253 377 215 q 496 287 469 271 q 547 319 523 303 q 572 334 560 327 q 595 349 583 342 l 596 350 l 596 355 q 597 354 598 353 q 595 356 597 355 q 595 356 594 356 q 600 353 595 356 l 601 353 l 603 355 l 604 356 l 605 356 q 605 356 606 355 q 608 354 603 357 l 608 352 l 608 348 q 611 346 608 347 l 610 345 l 609 344 l 607 343 l 607 339 q 606 326 606 333 q 606 314 606 320 q 611 221 606 263 q 628 143 617 178 q 656 82 639 108 q 697 42 674 56 q 744 27 720 28 q 790 31 768 26 q 831 42 812 35 q 871 57 851 49 q 910 75 891 65 q 951 97 930 85 q 1047 156 995 122 q 1169 242 1099 190 q 1247 302 1212 274 l 1247 303 q 1247 303 1247 303 q 1250 305 1249 304 q 1253 308 1251 306 l 1255 309 l 1256 310 l 1257 310 l 1257 311 q 1268 307 1265 308 q 1269 306 1270 306 q 1268 307 1269 306 q 1269 307 1267 308 l 1269 306 q 1269 303 1269 305 q 1269 301 1269 302 q 1270 298 1270 299 q 1271 294 1270 296 q 1277 292 1276 292 q 1272 294 1278 292 l 1271 294 q 1272 289 1272 292 q 1274 278 1273 283 q 1277 267 1276 273 q 1283 247 1281 257 q 1290 227 1286 237 q 1358 106 1317 151 q 1454 48 1400 60 q 1510 44 1481 42 q 1571 58 1540 47 q 1665 92 1622 74 q 1745 127 1708 110 q 1814 161 1783 145 q 1872 191 1846 177 q 1963 241 1926 220 q 2026 278 2000 263 q 2068 304 2051 293 q 2097 323 2085 315 q 2120 337 2110 331 q 2144 351 2131 344 q 2174 363 2160 361 q 2192 359 2188 365 z "},"n":{"ha":1678,"x_min":-37,"x_max":1839,"o":"m 1795 349 q 1818 360 1807 358 q 1834 356 1829 362 q 1834 339 1839 349 q 1817 319 1829 328 q 1811 315 1814 317 q 1802 310 1808 314 q 1786 300 1797 307 q 1757 281 1776 293 q 1708 249 1738 268 q 1632 201 1678 229 q 1582 172 1609 188 q 1521 140 1554 157 q 1449 106 1488 124 q 1363 73 1410 89 q 1252 41 1313 56 q 1121 24 1192 26 q 1048 28 1085 24 q 971 47 1010 33 q 894 81 932 59 q 822 133 857 102 q 755 207 779 172 q 713 270 730 242 q 697 298 704 285 q 684 326 690 312 q 681 332 683 329 q 678 339 679 335 l 674 345 l 673 349 l 673 349 q 690 343 686 344 q 692 342 693 342 q 690 343 692 342 q 691 342 688 344 l 690 342 l 688 342 q 675 336 681 339 q 661 330 668 333 q 600 301 633 317 q 523 258 567 284 q 422 196 479 233 q 285 109 365 159 q 208 64 245 85 q 133 26 170 42 q 96 12 115 18 q 60 3 78 6 q 23 0 42 -1 q -13 6 4 0 q -17 8 -15 7 q -22 9 -19 8 l -24 10 l -28 13 q -34 19 -31 15 q -37 33 -37 27 q -37 43 -37 38 q -34 59 -36 52 q -29 74 -32 67 q -19 101 -24 88 q -8 125 -13 113 q 15 168 4 148 q 35 204 25 188 q 68 262 54 238 q 92 302 83 286 q 108 328 102 319 q 116 340 114 337 q 134 358 124 353 q 151 360 144 364 q 156 344 157 356 q 147 320 155 333 q 141 311 144 316 q 130 296 137 306 q 110 269 122 286 q 81 224 99 252 q 61 193 72 210 q 38 156 50 176 q 25 134 32 145 q 13 110 19 122 q -1 83 6 97 q -12 53 -7 69 q -15 46 -14 50 q -15 39 -15 42 q -16 32 -17 35 q -15 30 -15 29 q -14 29 -15 30 q -12 28 -13 28 q -10 27 -10 28 q -8 26 -10 27 q -4 25 -6 26 q 0 24 -2 24 q 8 22 4 22 q 17 20 13 21 q 56 22 35 19 q 97 32 76 25 q 184 69 139 46 q 278 121 228 92 q 363 173 324 149 q 435 218 401 197 q 497 257 468 239 q 551 289 526 274 q 597 316 575 303 q 638 338 619 328 l 674 356 l 679 359 l 681 360 l 682 360 l 683 360 l 683 360 q 685 360 683 360 q 689 358 687 359 q 692 357 691 358 q 690 358 693 357 q 695 350 693 353 q 699 342 697 346 q 703 334 701 338 q 739 276 721 303 q 781 219 756 249 q 807 189 792 204 q 840 156 822 173 q 881 123 858 140 q 933 90 903 106 q 1009 59 973 69 q 1076 45 1044 49 q 1135 41 1108 41 q 1186 44 1162 42 q 1232 50 1210 47 q 1276 60 1254 54 q 1319 72 1297 65 q 1366 88 1342 79 q 1500 148 1444 117 q 1597 203 1556 178 q 1664 248 1637 228 q 1710 281 1691 267 q 1741 305 1728 296 q 1761 322 1753 315 q 1778 335 1770 329 q 1795 349 1785 342 z "},"o":{"ha":942,"x_min":-53,"x_max":1101,"o":"m 1069 361 q 1086 363 1078 365 q 1098 353 1094 360 q 1098 339 1101 347 q 1085 327 1094 331 q 1080 325 1082 326 q 1074 324 1078 325 q 1062 320 1069 323 q 1040 313 1054 318 q 1005 300 1026 308 q 949 281 983 292 q 871 255 916 269 q 763 225 826 241 q 691 207 729 217 q 607 188 652 197 q 511 173 562 179 q 401 169 460 167 q 337 171 364 169 q 290 174 310 172 q 256 177 267 174 q 250 169 251 172 q 244 161 247 165 q 238 153 241 158 q 208 119 224 138 q 167 77 192 101 q 140 53 155 65 q 104 28 124 40 q 83 17 94 22 q 58 7 72 11 q 44 3 51 5 q 29 1 37 2 q 21 1 26 1 q 17 1 18 1 l 15 1 l 13 1 l 13 1 l 14 1 l 13 1 q -5 6 3 2 q -32 29 -22 14 q -45 58 -41 44 q -51 87 -49 73 q -53 115 -52 101 q -52 140 -53 128 q -49 165 -51 153 q -46 188 -48 176 q -40 209 -44 199 q -26 248 -35 231 q -6 280 -17 266 q 17 305 6 294 q 40 323 28 315 q 80 346 62 339 q 110 358 98 353 q 130 363 123 361 q 140 365 137 365 q 158 362 150 367 q 166 349 166 357 q 160 336 166 342 q 147 328 155 330 q 140 328 143 328 q 128 326 136 328 q 108 322 121 325 q 77 311 96 319 q 57 301 67 307 q 35 285 47 295 q 12 262 23 276 q -9 230 1 249 q -25 187 -19 211 q -33 134 -31 163 q -35 105 -35 120 q -33 74 -35 90 q -22 42 -30 58 q 1 19 -15 27 q 32 14 16 12 q 62 22 48 17 q 88 33 76 26 q 110 47 100 39 q 147 75 131 60 q 176 104 163 90 q 199 131 189 118 q 217 155 208 143 q 224 166 221 160 q 231 177 228 172 q 235 182 233 180 q 238 188 237 185 l 241 192 l 242 194 l 242 194 q 242 194 244 195 q 248 197 240 193 l 251 197 q 296 199 274 199 q 342 199 317 199 q 400 198 368 199 q 476 197 431 197 q 575 202 535 197 q 647 212 615 206 q 705 223 678 217 q 765 239 732 230 q 856 267 817 253 q 924 292 895 281 q 973 313 953 304 q 1006 328 992 322 q 1029 340 1020 335 q 1045 348 1038 344 q 1057 355 1051 352 q 1069 361 1063 358 z "},"p":{"ha":1453,"x_min":-346,"x_max":1631,"o":"m 106 315 q 130 355 117 340 q 149 367 142 370 q 153 344 156 363 q 139 300 151 324 q 133 287 135 292 q 124 271 130 282 q 109 240 119 260 q 81 182 99 220 q 35 83 63 143 q -32 -67 8 24 q -125 -282 -72 -157 q -243 -576 -178 -406 q -277 -672 -260 -622 q -309 -776 -294 -722 q -323 -831 -317 -803 q -331 -888 -329 -859 q -331 -895 -331 -892 q -330 -902 -331 -899 q -330 -905 -330 -903 q -329 -907 -329 -906 q -330 -906 -329 -907 q -333 -904 -331 -906 q -336 -905 -335 -904 q -336 -905 -337 -906 q -334 -903 -335 -904 q -331 -897 -332 -901 q -326 -892 -328 -894 q -322 -885 -324 -889 q -308 -858 -315 -872 q -294 -829 -301 -844 q -239 -709 -267 -771 q -180 -581 -211 -647 q -114 -445 -149 -515 q -39 -305 -79 -376 q 54 -149 13 -213 q 133 -35 96 -85 q 168 12 151 -10 q 202 55 185 34 q 238 96 220 76 q 276 138 256 117 q 319 180 297 158 q 371 224 342 201 q 432 270 399 247 q 510 315 466 294 q 556 334 532 325 q 608 349 581 343 q 666 357 636 355 q 730 356 697 359 l 738 354 q 750 350 744 354 q 758 340 756 347 q 760 333 760 336 q 760 328 760 331 q 758 308 760 317 q 751 291 755 299 q 735 258 744 274 q 717 226 726 242 q 673 162 697 194 q 624 94 650 129 q 598 60 610 77 q 572 27 585 43 q 558 11 565 19 q 546 -6 552 3 l 539 -13 q 526 -11 529 -13 q 524 -6 522 -9 q 532 -1 526 -3 q 549 2 539 1 q 626 11 588 6 q 699 23 663 17 q 833 52 770 36 q 953 85 897 68 q 1151 154 1065 120 q 1302 217 1237 188 q 1413 270 1367 247 q 1490 310 1458 294 q 1561 350 1549 342 q 1603 368 1585 363 q 1626 367 1622 373 q 1617 346 1631 360 q 1579 318 1603 331 q 1561 308 1572 313 q 1529 292 1550 302 q 1474 265 1509 282 q 1383 222 1440 248 q 1243 163 1326 197 q 1041 90 1160 128 q 911 52 981 71 q 760 17 842 33 q 584 -10 679 0 q 536 -15 561 -12 l 530 -15 l 527 -15 q 527 -17 528 -17 q 526 -15 527 -17 q 524 -12 525 -14 q 524 -8 523 -10 l 524 -5 l 533 3 q 541 13 537 8 q 549 22 544 17 q 581 62 565 42 q 613 103 597 82 q 669 179 643 142 q 718 253 696 216 q 728 271 724 262 q 738 290 733 280 q 745 308 742 299 q 749 326 748 317 q 748 335 749 331 q 742 341 746 340 q 733 343 738 342 q 724 344 728 343 q 705 346 714 345 q 687 346 696 347 q 617 339 650 346 q 555 321 584 332 q 500 296 526 310 q 452 268 474 283 q 374 208 408 238 q 311 149 340 178 q 261 92 283 119 q 218 40 238 65 q 180 -12 198 13 q 144 -63 162 -37 q 109 -116 126 -89 q 72 -174 91 -144 q 33 -240 53 -205 q -11 -315 12 -274 q -60 -403 -34 -356 q -115 -506 -85 -450 q -184 -644 -154 -581 q -241 -760 -215 -706 q -290 -860 -267 -815 q -302 -882 -296 -871 q -315 -903 -308 -892 q -318 -908 -317 -906 q -322 -913 -320 -910 q -325 -915 -324 -915 q -328 -917 -326 -916 q -330 -919 -329 -918 q -333 -919 -331 -919 q -339 -918 -336 -921 q -343 -914 -342 -916 q -344 -910 -343 -912 q -345 -904 -345 -906 q -346 -898 -346 -901 q -346 -892 -346 -895 q -340 -847 -344 -868 q -331 -805 -336 -826 q -308 -725 -321 -766 q -281 -644 -295 -685 q -250 -558 -267 -603 q -151 -301 -195 -411 q -72 -110 -106 -192 q -14 30 -38 -28 q 26 128 10 87 q 54 195 43 168 q 74 242 65 222 q 89 278 82 262 q 106 315 97 295 z "},"q":{"ha":1029,"x_min":-178,"x_max":1198,"o":"m 1194 360 q 1187 340 1198 353 q 1157 315 1176 327 q 1147 309 1151 311 q 1133 302 1142 307 q 1108 286 1124 297 q 1063 256 1092 276 q 989 203 1033 236 q 880 115 944 169 q 732 -19 816 60 q 544 -212 649 -99 q 295 -506 430 -334 q -5 -900 160 -677 q -54 -966 -31 -935 q -96 -1024 -76 -997 q -114 -1050 -106 -1037 q -131 -1074 -123 -1062 l -135 -1080 l -137 -1083 l -137 -1083 l -138 -1083 q -144 -1081 -135 -1085 q -161 -1072 -152 -1076 q -174 -1066 -170 -1068 q -168 -1068 -178 -1063 l -168 -1067 l -167 -1066 q -165 -1059 -166 -1062 q -163 -1053 -165 -1056 q -159 -1040 -161 -1046 q -155 -1027 -157 -1033 q -125 -936 -139 -978 q -95 -847 -111 -894 q -62 -744 -80 -801 q -19 -611 -44 -688 q 37 -432 5 -535 q 112 -189 69 -329 q 153 -53 133 -117 q 191 72 173 12 q 197 92 194 82 q 203 113 200 103 q 202 111 203 112 q 201 110 201 111 q 155 81 177 94 q 110 53 133 67 q 67 30 88 41 q 24 9 46 19 q 3 1 13 5 q -19 -6 -8 -3 q -31 -8 -25 -7 q -44 -8 -37 -8 q -58 -6 -51 -8 q -72 3 -65 -3 l -75 6 l -76 6 q -77 9 -78 10 q -77 9 -76 8 l -77 10 l -78 10 l -81 15 l -85 26 q -87 36 -86 31 q -90 47 -89 41 q -92 67 -92 57 q -91 87 -92 77 q -82 124 -88 107 q -69 154 -76 140 q -37 205 -54 183 q -6 243 -21 226 q 23 273 10 260 q 48 296 36 286 q 84 327 70 316 q 103 342 97 338 q 138 361 122 356 q 159 360 155 366 q 153 340 163 353 q 125 313 143 327 q 111 302 119 308 q 88 285 103 297 q 71 271 81 279 q 49 252 61 263 q 22 226 37 240 q -9 192 7 212 q -25 171 -17 182 q -41 146 -33 160 q -55 117 -49 133 q -64 85 -61 102 q -66 67 -65 76 q -64 48 -66 58 q -62 39 -63 43 q -59 29 -60 34 q -56 21 -56 24 l -55 21 q -55 20 -55 20 q -54 19 -54 20 q -51 18 -53 19 q -33 16 -44 15 q -11 21 -22 17 q 35 39 10 28 q 84 63 60 50 q 135 92 109 76 q 162 109 149 101 q 190 126 176 117 q 201 134 195 130 q 213 142 207 138 l 213 143 l 214 147 q 215 145 216 144 q 213 147 215 146 q 212 148 212 148 q 217 144 213 148 l 217 145 l 221 147 l 222 148 q 223 148 224 147 q 221 149 222 149 q 223 148 221 149 q 232 141 224 147 l 231 140 l 231 139 l 230 135 q 231 134 231 135 q 233 133 232 134 l 232 132 l 231 131 l 228 129 q 225 122 226 126 q 223 114 224 117 q 177 -30 201 46 q 125 -193 153 -106 q 64 -386 91 -299 q 14 -545 36 -474 q -26 -674 -8 -617 q -57 -780 -43 -732 q -83 -868 -72 -828 q -105 -944 -94 -908 q -116 -982 -110 -963 q -126 -1019 -121 -1001 q -119 -1009 -123 -1014 q -112 -999 -116 -1004 q -75 -946 -95 -974 q -31 -886 -55 -918 q 21 -818 -7 -854 q 83 -739 49 -781 q 165 -636 127 -683 q 235 -551 203 -590 q 295 -478 267 -512 q 348 -416 323 -445 q 396 -360 373 -387 q 442 -306 419 -333 q 490 -252 465 -279 q 542 -194 515 -224 q 704 -24 633 -95 q 831 99 776 47 q 928 184 888 150 q 997 242 968 219 q 1046 281 1026 266 q 1081 308 1066 297 q 1109 327 1096 319 q 1138 347 1122 336 q 1174 363 1157 359 q 1194 360 1191 367 z "},"r":{"ha":1493,"x_min":108,"x_max":1658,"o":"m 1620 362 q 1641 366 1631 367 q 1654 358 1651 365 q 1652 342 1658 350 q 1636 328 1647 334 q 1630 326 1633 327 q 1623 323 1628 325 q 1608 318 1617 322 q 1581 308 1599 315 q 1537 289 1564 301 q 1470 259 1510 277 q 1374 217 1430 242 q 1245 160 1319 192 q 1159 121 1205 142 q 1061 76 1114 100 q 1007 52 1035 64 q 948 29 979 41 q 883 8 917 18 q 810 -5 850 -1 q 785 -5 798 -6 q 760 1 773 -3 q 749 7 754 3 q 738 15 743 10 q 724 37 727 25 q 720 58 720 48 q 720 76 719 67 q 723 92 722 85 q 726 107 725 99 q 744 156 735 135 q 766 201 754 178 q 792 251 778 224 q 827 315 807 278 q 838 335 833 325 q 849 356 844 344 l 852 361 l 853 362 q 854 361 855 360 q 852 363 853 363 q 854 361 851 364 q 865 348 856 358 l 863 347 l 860 347 q 853 345 856 345 q 847 343 851 344 q 834 340 841 342 q 821 336 828 338 q 760 322 792 329 q 690 308 728 315 q 548 289 613 294 q 430 285 483 285 q 335 289 376 285 q 261 299 293 293 q 206 309 229 303 q 168 318 183 314 q 144 325 153 322 q 132 329 135 328 q 114 342 120 333 q 111 358 108 350 q 124 366 115 365 q 144 364 133 367 q 152 360 148 363 q 167 355 157 358 q 192 346 176 351 q 234 334 208 341 q 299 320 260 327 q 392 308 337 313 q 520 306 448 304 q 688 322 593 307 q 768 336 731 328 q 836 352 804 344 q 844 354 840 353 q 851 356 848 355 l 859 358 l 860 359 l 861 359 q 863 357 861 360 q 863 356 865 355 l 863 356 l 861 352 q 854 339 858 346 q 847 327 851 333 q 834 303 840 315 q 823 281 828 292 q 788 207 801 238 q 764 147 774 175 q 749 94 754 119 q 747 67 747 81 q 752 42 747 53 q 772 27 758 32 q 806 24 787 23 q 850 29 826 25 q 899 40 873 33 q 965 60 935 50 q 1019 78 994 69 q 1065 96 1044 88 q 1105 112 1086 104 q 1140 127 1124 119 q 1174 142 1157 135 q 1208 157 1191 149 q 1246 174 1226 165 q 1357 226 1309 203 q 1439 267 1404 249 q 1499 297 1474 284 q 1541 319 1524 310 q 1569 334 1558 328 q 1589 345 1581 340 q 1604 353 1597 349 q 1620 362 1611 358 z "},"s":{"ha":792,"x_min":-292,"x_max":956,"o":"m 951 359 q 949 342 956 352 q 930 323 943 331 q 923 318 926 320 q 913 314 919 317 q 895 304 907 310 q 863 285 883 297 q 809 252 842 272 q 728 201 776 232 q 614 126 680 170 q 460 24 547 83 q 360 -47 412 -8 q 247 -132 308 -86 q 129 -224 191 -176 q -3 -327 67 -272 q -17 -382 -8 -353 q -55 -482 -33 -437 q -105 -560 -76 -527 q -167 -608 -134 -593 q -201 -619 -185 -615 q -234 -623 -218 -622 q -265 -620 -251 -623 q -278 -615 -272 -619 q -288 -603 -285 -610 q -290 -588 -292 -595 q -287 -575 -289 -581 q -282 -564 -285 -569 q -276 -553 -279 -558 q -250 -516 -263 -533 q -224 -485 -237 -500 q -172 -433 -197 -457 q -114 -381 -146 -408 q -68 -342 -93 -362 q -12 -298 -43 -322 q -2 -247 -6 -272 q 6 -198 2 -222 q 16 -118 12 -156 q 24 -46 21 -81 q 38 77 32 23 q 51 172 44 131 q 66 244 58 214 q 81 294 73 274 q 94 325 88 314 q 104 341 101 337 q 130 360 116 357 q 141 360 136 362 q 147 356 145 359 q 147 348 148 352 q 145 339 147 344 q 134 319 140 330 q 128 311 131 316 q 119 295 124 306 q 105 264 113 284 q 89 210 97 244 q 71 124 80 175 q 53 1 63 74 q 42 -77 47 -35 q 28 -167 36 -119 q 19 -223 24 -194 q 7 -283 14 -252 q 34 -264 20 -274 q 62 -243 47 -254 q 135 -190 101 -214 q 197 -147 168 -167 q 249 -109 225 -126 q 294 -77 273 -92 q 336 -48 316 -62 q 375 -20 356 -34 q 416 9 395 -6 q 460 40 437 24 q 591 131 534 92 q 690 200 648 170 q 762 250 733 229 q 813 285 792 271 q 847 310 833 300 q 871 327 860 319 q 890 340 881 334 q 910 353 899 347 q 935 364 923 363 q 951 359 947 365 m -99 -534 q -60 -465 -77 -504 q -31 -378 -44 -426 q -26 -360 -28 -369 q -22 -342 -24 -351 q -102 -407 -69 -379 q -161 -458 -135 -435 q -209 -502 -187 -481 q -251 -547 -231 -522 q -261 -560 -256 -553 q -269 -574 -266 -567 q -275 -589 -273 -582 q -274 -599 -276 -596 q -262 -606 -272 -603 q -242 -610 -253 -609 q -194 -605 -219 -611 q -144 -581 -169 -599 q -99 -534 -119 -563 z "},"t":{"ha":967,"x_min":85,"x_max":1135,"o":"m 1132 358 q 1124 339 1135 350 q 1092 319 1113 328 q 1082 315 1086 317 q 1069 310 1078 313 q 1042 301 1060 307 q 994 284 1025 295 q 913 257 963 273 q 787 222 863 241 q 605 183 711 202 q 356 155 499 163 q 224 151 294 152 q 207 105 215 128 q 191 56 199 81 q 238 -7 215 26 q 282 -76 260 -39 q 297 -102 290 -89 q 309 -131 303 -115 q 314 -147 312 -138 q 316 -166 316 -155 q 314 -178 316 -172 q 306 -192 313 -185 q 292 -200 299 -199 q 278 -201 284 -201 q 258 -196 267 -199 q 242 -189 250 -193 q 214 -170 226 -180 q 166 -123 189 -151 q 143 -85 152 -105 q 138 -60 138 -71 q 139 -40 138 -49 q 145 -4 141 -20 q 153 28 149 13 q 164 61 158 45 q 146 84 155 73 q 129 107 138 96 q 117 122 124 115 q 106 138 111 130 q 100 145 102 141 q 94 152 97 149 l 91 156 l 90 156 l 88 156 q 89 158 90 158 q 88 156 89 157 q 88 155 88 155 q 90 158 88 154 l 88 159 l 87 160 l 86 162 l 85 163 q 86 163 86 164 q 85 161 85 162 q 86 163 85 161 q 90 171 87 165 q 94 170 93 171 l 97 170 q 97 171 97 171 q 97 172 97 172 l 97 172 l 98 172 l 98 171 l 99 170 q 152 166 126 167 q 203 164 178 165 q 231 229 217 198 q 260 293 245 260 q 303 383 280 334 q 360 500 327 433 q 364 507 362 503 q 367 515 366 511 q 357 505 362 510 q 347 496 353 501 q 274 431 306 457 q 221 388 243 405 q 186 361 199 370 q 169 347 174 351 q 136 331 151 335 q 116 333 120 326 q 121 352 112 339 q 147 377 130 365 q 160 386 153 381 q 183 402 168 392 q 222 430 197 413 q 283 478 246 447 q 338 525 308 499 q 403 587 368 551 q 468 711 433 643 q 551 864 503 780 q 585 922 568 894 q 621 977 601 951 q 625 983 623 981 q 631 990 628 986 q 634 993 632 991 q 638 997 635 995 q 640 998 639 997 q 642 1000 641 999 q 647 1002 645 1001 l 651 1002 q 656 1001 655 1002 q 664 994 662 997 q 667 988 665 990 q 668 982 667 984 q 668 977 668 980 q 668 968 668 972 q 667 960 667 964 q 660 930 665 944 q 651 901 656 915 q 602 802 629 847 q 547 719 574 757 q 467 618 506 662 q 394 540 428 575 q 369 490 381 514 q 347 443 357 465 q 286 309 310 367 q 244 204 263 252 q 236 184 240 194 q 228 164 232 174 q 295 165 262 164 q 367 169 328 166 q 581 195 490 178 q 740 230 672 212 q 853 263 807 247 q 932 291 899 278 q 985 312 964 303 q 1021 327 1006 321 q 1049 340 1036 334 q 1078 353 1062 346 q 1113 363 1097 362 q 1132 358 1128 365 m 563 857 q 490 727 522 788 q 431 615 458 667 q 488 678 458 643 q 552 762 519 716 q 615 866 585 808 q 630 896 623 881 q 642 927 636 911 q 650 961 647 944 q 651 978 652 970 q 651 985 651 983 q 650 986 650 985 q 638 974 644 981 q 626 958 632 966 q 616 943 621 951 q 605 926 610 935 q 584 892 594 910 q 563 857 574 875 m 238 -47 q 211 -5 224 -25 q 184 33 197 15 q 181 22 183 27 q 178 11 180 17 q 172 -17 175 -3 q 167 -46 169 -31 q 167 -61 167 -53 q 169 -74 167 -68 q 177 -87 173 -81 q 187 -102 181 -94 q 211 -130 197 -116 q 241 -155 224 -143 q 258 -166 249 -160 q 276 -174 267 -171 q 281 -174 279 -174 q 285 -174 283 -174 q 288 -172 286 -174 q 289 -154 291 -167 q 279 -125 285 -140 q 267 -98 273 -111 q 253 -72 260 -84 q 238 -47 246 -59 m 155 101 q 163 92 159 97 q 171 82 167 87 q 181 107 176 95 q 190 131 185 119 q 194 141 192 137 q 198 151 196 146 q 193 151 196 151 q 189 151 191 151 q 151 152 170 151 q 113 154 133 153 q 118 147 115 151 q 124 140 120 144 q 139 121 131 131 q 155 101 147 111 z "},"u":{"ha":1176,"x_min":25,"x_max":1335,"o":"m 1299 360 q 1318 366 1308 366 q 1331 360 1327 366 q 1332 344 1335 353 q 1319 329 1328 335 q 1314 326 1316 327 q 1307 323 1312 325 q 1294 316 1302 320 q 1270 302 1285 311 q 1231 279 1255 293 q 1172 244 1207 265 q 1085 196 1135 224 q 967 135 1036 168 q 886 97 929 117 q 790 60 843 76 q 735 47 764 53 q 672 42 706 40 q 639 47 656 43 q 605 58 622 50 q 574 80 588 67 q 551 111 560 94 q 535 154 539 133 q 530 192 531 174 q 530 224 528 210 q 533 252 531 239 q 536 265 535 259 q 538 277 537 272 q 539 283 539 281 q 541 290 540 286 l 542 292 q 542 293 542 293 q 542 294 542 293 q 548 291 540 294 q 563 284 555 288 q 575 279 571 281 q 569 281 578 277 l 569 281 l 569 281 q 567 278 567 279 q 565 276 566 277 q 550 258 558 266 q 535 240 543 249 q 499 200 519 222 q 449 151 478 178 q 416 123 434 138 q 376 92 399 108 q 327 59 354 76 q 265 28 301 42 q 196 9 230 15 q 129 6 162 3 q 98 11 113 8 q 69 24 83 15 q 45 44 55 31 q 31 70 35 56 q 26 97 26 84 q 26 122 25 110 q 29 145 27 134 q 33 166 31 156 q 45 203 39 186 q 57 233 51 219 q 79 281 69 262 q 97 314 89 301 q 109 334 104 327 q 115 344 113 341 q 130 357 121 353 q 146 357 140 361 q 151 343 151 352 q 146 324 151 333 q 141 317 144 321 q 133 305 138 313 q 118 284 127 297 q 97 249 110 271 q 84 224 91 238 q 69 193 77 210 q 56 156 63 176 q 48 110 49 135 q 49 85 47 98 q 59 60 51 72 q 79 40 66 49 q 108 28 92 32 q 180 23 141 20 q 260 42 219 26 q 330 74 299 56 q 384 112 360 93 q 427 148 408 130 q 462 182 446 166 q 513 241 493 215 q 548 289 533 267 l 550 292 l 551 293 l 551 294 q 553 293 550 294 q 560 290 557 291 q 566 287 564 288 q 563 288 567 286 l 563 288 q 562 281 563 285 q 561 275 561 278 q 560 268 560 272 q 559 256 559 262 q 558 242 558 249 q 557 216 556 230 q 558 189 557 203 q 563 159 560 174 q 575 127 567 143 q 598 97 583 111 q 637 74 613 82 q 668 66 653 68 q 698 65 683 65 q 726 66 713 65 q 751 69 739 67 q 795 80 775 74 q 834 91 816 85 q 868 104 851 97 q 900 117 884 110 q 932 132 916 124 q 967 149 949 140 q 1067 203 1025 178 q 1141 249 1110 228 q 1194 283 1172 269 q 1230 309 1215 298 q 1254 327 1244 319 q 1271 340 1264 334 q 1285 350 1278 345 q 1299 360 1291 354 z "},"v":{"ha":1026,"x_min":117,"x_max":1188,"o":"m 1159 365 q 1174 366 1167 369 q 1184 357 1181 364 q 1185 342 1188 349 q 1174 332 1182 335 q 1169 330 1172 331 q 1161 328 1167 330 q 1141 322 1154 326 q 1103 310 1128 318 q 1076 301 1092 306 q 1040 291 1060 297 q 995 281 1019 285 q 939 273 970 276 q 872 274 907 269 q 834 281 854 276 q 797 299 815 287 q 792 302 794 301 q 788 306 790 304 q 785 308 786 308 q 783 310 785 309 l 781 313 q 788 311 786 312 q 789 311 789 311 q 788 311 788 311 q 788 311 787 311 l 788 311 l 788 310 l 786 310 q 777 304 781 307 q 767 298 772 301 q 748 285 758 292 q 728 272 738 278 q 686 244 708 258 q 641 215 665 231 q 552 158 594 185 q 470 108 510 132 q 395 64 431 84 q 327 27 360 43 q 310 20 318 24 q 291 15 302 17 q 283 17 286 15 q 280 19 281 18 q 278 21 279 20 q 272 28 274 26 q 267 36 269 32 q 263 43 265 40 q 247 70 254 57 q 234 97 240 84 q 210 144 221 122 q 190 185 200 167 q 159 250 172 224 q 138 294 147 277 q 126 320 130 311 q 120 332 122 329 q 119 347 117 340 q 130 357 122 353 q 144 357 138 360 q 154 347 151 354 q 157 338 156 343 q 162 322 158 333 q 173 290 166 310 q 194 235 181 269 q 209 197 201 218 q 228 151 217 176 q 240 125 234 138 q 253 97 246 111 q 268 66 260 82 q 285 35 276 50 q 288 31 287 32 q 290 30 288 30 l 290 29 q 288 27 287 26 q 288 27 289 28 l 288 28 q 289 28 288 28 q 289 30 290 30 q 290 29 289 29 l 291 29 q 293 30 292 29 q 295 30 294 30 q 304 32 299 31 q 313 35 308 34 q 352 53 331 42 q 393 75 372 63 q 436 99 414 86 q 530 156 481 126 q 636 223 580 187 q 678 250 658 237 q 717 276 699 264 q 736 289 727 283 q 753 301 744 294 q 762 306 758 303 q 771 312 767 309 l 779 318 l 781 319 l 782 320 l 783 320 q 784 320 782 320 q 788 319 786 319 q 791 319 790 319 q 790 319 792 319 l 793 315 q 824 297 807 303 q 856 288 840 291 q 888 284 872 285 q 917 285 903 284 q 968 291 945 287 q 1010 301 991 296 q 1072 323 1049 313 q 1109 339 1096 333 q 1131 351 1123 346 q 1146 359 1140 356 q 1159 365 1151 362 z "},"w":{"ha":1395,"x_min":121,"x_max":1560,"o":"m 1524 367 q 1544 370 1535 372 q 1557 361 1553 368 q 1555 345 1560 353 q 1538 333 1549 338 q 1532 331 1534 332 q 1524 329 1529 331 q 1509 325 1519 328 q 1483 318 1500 323 q 1437 305 1465 313 q 1367 290 1409 298 q 1321 284 1346 287 q 1266 279 1296 281 q 1235 279 1251 278 q 1201 281 1219 279 q 1165 288 1184 282 l 1165 288 l 1164 288 l 1163 288 q 1169 289 1167 288 q 1170 289 1170 289 q 1169 289 1169 289 q 1169 289 1168 289 l 1167 288 l 1163 285 l 1156 280 q 1147 274 1151 276 q 1140 269 1143 272 q 1064 218 1104 246 q 976 161 1024 191 q 927 131 953 146 q 874 101 902 116 q 814 74 847 88 q 781 63 798 68 q 744 55 764 58 q 718 56 730 53 q 705 58 711 56 q 694 63 699 60 q 674 75 683 68 q 660 90 666 82 q 641 119 647 105 q 631 147 635 134 q 620 197 623 174 q 616 246 617 220 q 616 301 615 271 q 617 309 616 306 l 617 311 l 617 313 q 618 312 619 311 q 615 314 616 313 q 618 313 614 314 q 636 305 622 311 l 635 304 l 633 301 l 621 290 q 608 277 615 283 q 594 263 601 270 q 526 197 565 234 q 431 109 487 159 q 375 63 402 85 q 321 24 349 41 q 293 9 306 15 q 277 3 285 6 q 258 2 269 1 q 240 10 247 4 q 228 21 233 15 q 218 32 222 26 q 211 44 215 38 q 190 89 198 67 q 174 130 181 110 q 163 166 167 149 q 153 199 158 183 q 131 286 137 258 q 123 322 124 315 q 125 342 121 333 q 136 353 128 351 q 150 347 144 354 q 159 328 157 340 q 160 320 160 325 q 163 305 161 315 q 167 279 164 295 q 174 237 169 263 q 180 209 177 224 q 188 174 183 193 q 199 134 193 156 q 215 88 205 112 q 226 62 220 75 q 240 38 232 49 q 250 27 244 32 q 261 21 256 22 q 275 22 267 19 q 290 28 283 24 q 354 66 322 42 q 422 119 386 90 q 531 217 487 174 q 607 294 574 260 q 615 302 610 298 q 622 310 619 306 l 626 314 q 631 311 633 310 q 631 312 629 313 l 631 311 l 631 310 l 631 308 l 631 297 q 631 278 631 288 q 632 260 631 269 q 636 228 633 243 q 641 200 638 214 q 656 149 647 172 q 668 126 662 138 q 684 104 674 114 q 707 88 694 94 q 739 83 721 82 q 779 91 757 85 q 826 108 801 98 q 886 134 859 121 q 936 158 913 147 q 977 181 958 170 q 1013 202 996 192 q 1044 222 1029 213 q 1075 241 1060 231 q 1105 261 1090 251 q 1138 283 1120 272 q 1144 288 1141 285 q 1151 292 1147 290 l 1158 297 l 1160 299 l 1161 300 q 1162 300 1160 300 q 1166 301 1164 301 q 1168 301 1167 301 q 1167 301 1169 301 l 1168 301 l 1170 300 q 1199 296 1185 297 q 1227 294 1213 294 q 1253 294 1240 294 q 1300 299 1278 296 q 1340 306 1322 302 q 1402 321 1377 313 q 1444 335 1427 328 q 1473 346 1462 341 q 1493 354 1485 351 q 1508 361 1501 358 q 1524 367 1515 364 z "},"x":{"ha":883,"x_min":28,"x_max":1052,"o":"m 1050 357 q 1044 342 1052 349 q 1024 331 1037 335 q 1017 330 1019 331 q 1008 329 1014 330 q 991 327 1002 328 q 959 324 980 326 q 907 318 939 322 q 826 316 874 315 q 773 319 801 317 q 712 330 745 322 q 703 332 708 331 q 695 335 699 333 q 691 336 693 335 q 688 338 690 337 l 683 336 q 667 330 675 333 q 649 323 658 326 q 613 308 631 315 q 574 291 594 300 q 466 238 523 269 q 344 170 410 208 q 352 163 348 167 q 361 156 356 159 q 368 149 365 152 q 376 142 372 145 q 399 142 388 142 q 422 141 410 142 q 455 136 438 140 q 490 125 472 133 q 525 106 508 117 q 556 76 542 94 q 575 35 570 56 q 576 30 576 32 q 577 24 576 27 q 577 21 577 22 q 578 18 578 19 l 578 15 l 578 11 q 572 1 576 5 q 562 -5 569 -3 q 547 -3 554 -6 q 528 5 536 0 q 511 14 519 9 q 495 24 503 19 q 481 34 488 28 q 426 74 451 54 q 378 112 401 94 q 368 120 373 116 q 358 128 363 124 q 317 123 336 126 q 281 114 299 119 q 233 99 255 106 q 192 83 211 91 q 165 67 178 76 q 136 51 151 59 q 95 28 114 38 q 60 8 77 17 q 53 3 57 6 l 49 1 l 48 0 l 47 0 q 51 -6 53 -10 q 44 6 49 -2 l 43 6 q 43 7 42 9 q 44 5 44 6 q 42 7 44 3 q 33 24 40 10 l 33 24 q 30 30 31 28 q 30 31 28 32 l 32 31 q 40 35 36 33 q 47 40 44 38 q 62 47 55 43 q 76 53 69 50 q 92 61 84 57 q 108 68 100 65 q 156 95 130 81 q 213 125 181 109 q 262 150 239 139 q 305 172 285 162 q 269 202 286 188 q 239 228 253 217 q 162 295 186 274 q 132 322 138 316 q 119 341 122 331 q 122 357 116 351 q 137 360 127 363 q 157 349 147 358 q 164 342 160 346 q 176 330 168 338 q 197 309 183 322 q 231 275 210 296 q 272 236 249 258 q 328 184 296 213 q 380 210 357 198 q 424 233 403 222 q 462 251 444 242 q 498 269 480 260 q 535 287 516 278 q 575 306 553 296 q 640 335 609 321 q 655 341 647 338 q 669 347 662 344 q 677 350 673 349 q 684 353 681 351 l 685 353 q 686 353 684 353 q 689 353 688 353 q 692 353 691 353 q 691 353 693 353 l 693 352 l 696 351 q 703 349 699 351 q 754 340 730 342 q 799 336 778 338 q 871 339 842 335 q 922 346 901 342 q 955 352 942 349 q 978 358 968 356 q 997 363 988 360 q 1015 367 1005 365 q 1038 367 1028 370 q 1050 357 1048 365 m 390 130 q 426 99 407 115 q 468 65 446 83 q 501 41 484 53 q 538 17 518 28 q 557 10 552 7 q 562 23 563 13 q 556 46 561 33 q 544 67 551 59 q 513 99 531 87 q 475 117 494 110 q 437 127 456 124 q 401 130 419 130 l 390 130 m 345 139 q 334 149 340 144 q 322 158 328 153 q 291 140 307 149 q 260 122 276 131 q 285 128 272 125 q 313 134 298 131 q 329 136 321 135 q 345 139 337 138 z "},"y":{"ha":1086,"x_min":18,"x_max":1256,"o":"m 1192 343 q 1231 359 1213 356 q 1253 357 1249 363 q 1244 337 1256 350 q 1210 311 1231 324 q 1199 305 1203 307 q 1184 297 1194 302 q 1156 282 1174 292 q 1106 252 1138 272 q 1023 198 1073 231 q 902 108 973 164 q 826 45 867 80 q 740 -33 785 10 q 646 -128 695 -76 q 544 -246 597 -181 q 430 -402 487 -316 q 317 -592 372 -488 q 211 -819 263 -697 q 116 -1085 160 -942 q 110 -1097 114 -1092 q 108 -1102 109 -1100 l 107 -1103 l 104 -1106 q 99 -1110 104 -1108 q 93 -1112 97 -1111 q 85 -1111 89 -1112 q 76 -1104 79 -1109 q 74 -1102 75 -1103 q 73 -1100 74 -1101 q 72 -1096 72 -1096 q 71 -1090 71 -1094 q 70 -1089 70 -1088 q 70 -1088 71 -1089 l 70 -1087 l 70 -1086 l 70 -1083 l 70 -1076 q 70 -1070 70 -1073 q 71 -1064 71 -1067 q 74 -1041 72 -1052 q 76 -1020 75 -1031 q 84 -980 80 -999 q 93 -944 89 -961 q 110 -878 102 -908 q 127 -822 119 -849 q 159 -722 144 -768 q 191 -626 174 -676 q 216 -556 203 -593 q 244 -474 228 -519 q 280 -375 260 -429 q 323 -254 299 -321 q 376 -106 347 -187 q 442 74 406 -25 q 469 148 456 112 q 495 218 482 183 q 520 285 508 252 q 526 301 524 293 q 532 317 529 310 q 535 325 533 321 q 538 333 537 329 l 541 341 l 543 345 q 547 342 542 346 q 557 335 551 339 q 565 328 562 331 q 561 331 567 326 l 560 331 l 560 330 l 558 328 q 362 187 452 248 q 276 131 317 156 q 196 84 235 105 q 158 65 176 74 q 121 49 140 56 q 82 39 101 42 q 72 38 77 38 q 60 39 66 38 q 49 42 55 40 q 37 50 42 44 q 34 53 35 51 q 32 56 33 54 l 29 60 q 27 65 28 63 q 25 69 26 67 q 23 79 24 74 q 20 88 22 83 q 20 122 18 106 q 25 150 22 137 q 32 176 28 164 q 48 218 40 199 q 63 251 56 236 q 86 297 77 281 q 99 319 95 313 q 126 353 112 342 q 147 361 140 365 q 148 339 153 356 q 131 301 143 322 q 121 285 126 294 q 105 258 115 276 q 93 236 99 249 q 80 208 88 224 q 64 172 72 192 q 51 126 56 152 q 49 99 49 113 q 55 73 49 85 q 62 67 57 69 q 68 66 64 66 q 75 66 72 66 q 111 74 91 67 q 192 110 149 87 q 283 163 235 133 q 387 229 333 192 q 504 311 442 266 q 519 322 512 317 q 535 333 527 328 l 543 340 l 547 342 l 549 344 l 550 344 l 551 345 q 558 339 557 340 q 559 338 560 338 q 558 339 559 338 q 559 338 558 339 q 555 329 557 333 q 551 319 553 324 q 536 281 544 301 q 521 241 528 261 q 489 158 505 201 q 455 69 472 115 q 345 -224 390 -99 q 269 -442 301 -349 q 216 -604 238 -535 q 178 -731 195 -673 q 148 -843 163 -789 q 118 -961 133 -897 q 111 -994 115 -977 q 104 -1029 108 -1011 q 102 -1048 103 -1038 q 100 -1067 101 -1057 q 99 -1076 99 -1072 q 99 -1085 99 -1081 l 99 -1087 q 100 -1088 99 -1088 q 98 -1088 101 -1087 q 94 -1090 96 -1089 q 93 -1091 94 -1091 q 92 -1092 93 -1091 q 91 -1092 92 -1092 q 90 -1091 92 -1094 q 85 -1087 89 -1089 q 84 -1086 84 -1085 q 84 -1085 84 -1086 l 85 -1085 q 85 -1083 85 -1084 q 87 -1078 87 -1081 q 117 -992 101 -1039 q 156 -890 133 -944 q 212 -760 185 -818 q 265 -653 240 -702 q 313 -564 290 -604 q 358 -488 336 -524 q 401 -420 381 -453 q 444 -357 422 -388 q 490 -294 466 -326 q 542 -227 514 -262 q 710 -39 632 -116 q 850 91 788 38 q 958 180 913 145 q 1035 238 1003 214 q 1090 277 1068 262 q 1128 303 1112 292 q 1159 324 1145 315 q 1192 343 1174 333 z "},"z":{"ha":1033,"x_min":-243,"x_max":1193,"o":"m 1190 358 q 1181 338 1193 351 q 1149 313 1169 324 q 1139 306 1143 308 q 1125 299 1134 304 q 1098 284 1115 294 q 1049 256 1081 274 q 968 201 1017 235 q 849 115 920 166 q 685 -15 778 63 q 475 -203 592 -92 q 344 -335 412 -263 q 204 -496 277 -408 q 124 -596 165 -544 q 40 -705 83 -648 q -6 -794 16 -754 q -86 -938 -51 -878 q -152 -1047 -121 -998 q -168 -1071 -160 -1059 q -184 -1094 -176 -1083 q -192 -1106 -188 -1100 q -201 -1117 -197 -1111 q -206 -1122 -204 -1119 q -211 -1127 -208 -1124 q -217 -1133 -214 -1131 q -224 -1138 -219 -1135 q -228 -1140 -226 -1139 q -233 -1139 -230 -1140 q -240 -1135 -237 -1139 q -242 -1132 -242 -1133 q -242 -1130 -242 -1131 q -243 -1124 -243 -1126 q -242 -1119 -242 -1122 q -238 -1104 -242 -1112 q -228 -1077 -234 -1091 q -215 -1049 -222 -1063 q -201 -1022 -208 -1035 q -167 -962 -185 -993 q -127 -896 -149 -931 q -77 -822 -104 -861 q -16 -738 -49 -783 q 22 -690 3 -712 q 56 -645 40 -667 q 76 -603 66 -625 q 97 -556 87 -581 q 141 -443 119 -504 q 183 -308 163 -382 q 214 -166 203 -235 q 223 -33 224 -97 q 220 28 223 -2 q 209 84 217 58 q 209 85 209 85 q 208 87 208 86 q 208 88 208 88 q 208 91 207 87 q 211 100 210 95 q 213 106 213 104 q 213 103 214 108 l 213 104 l 219 108 q 225 113 222 110 q 231 117 227 115 q 242 125 236 121 q 253 133 247 129 q 274 150 264 142 q 295 166 285 158 q 373 227 337 198 q 438 284 408 256 q 452 298 445 292 q 465 312 459 305 q 473 323 471 319 q 447 333 461 330 q 419 338 433 336 q 363 343 390 343 q 314 343 336 344 q 273 341 292 342 q 239 338 254 340 q 191 333 208 335 q 167 331 174 331 q 126 330 143 327 q 108 341 109 333 q 122 356 106 349 q 163 367 138 364 q 181 369 170 368 q 212 371 192 369 q 267 374 233 372 q 356 374 301 376 q 385 371 370 372 q 418 367 401 370 q 453 360 435 364 q 492 344 472 356 l 494 342 l 495 341 q 495 340 494 341 q 497 340 496 340 l 497 339 l 499 338 q 502 331 501 334 q 501 325 502 327 q 499 317 501 319 q 496 311 498 314 q 482 292 490 302 q 466 276 474 284 q 449 260 458 268 q 411 228 431 244 q 369 195 391 213 q 323 160 347 178 q 274 124 299 142 q 260 114 267 118 q 247 104 254 109 q 240 99 244 101 q 233 94 237 97 l 227 90 q 235 55 233 73 q 239 19 238 38 q 233 -138 244 -56 q 197 -312 222 -221 q 146 -466 173 -397 q 92 -595 119 -536 q 87 -607 90 -601 q 182 -494 139 -542 q 262 -405 224 -447 q 314 -349 289 -376 q 365 -295 340 -322 q 417 -242 390 -269 q 476 -185 444 -215 q 656 -22 576 -90 q 798 94 736 46 q 905 178 860 142 q 981 237 949 215 q 1033 275 1013 259 q 1070 302 1054 290 q 1100 324 1086 314 q 1131 344 1114 333 q 1168 360 1151 356 q 1190 358 1186 364 m -115 -953 q -67 -874 -92 -917 q -10 -776 -42 -832 q -55 -840 -33 -808 q -100 -908 -78 -873 q -181 -1044 -148 -984 q -186 -1054 -184 -1049 q -192 -1065 -189 -1059 l -169 -1033 q -142 -994 -155 -1014 q -115 -953 -129 -974 z "},"A":{"ha":1296,"x_min":-149,"x_max":1457,"o":"m 1453 356 q 1446 336 1457 349 q 1415 311 1435 323 q 1404 306 1408 308 q 1390 299 1399 303 q 1363 286 1380 294 q 1312 263 1345 278 q 1226 228 1278 249 q 1091 188 1173 208 q 1002 169 1050 178 q 896 157 953 161 q 892 142 894 149 q 888 128 890 135 q 872 82 880 104 q 853 41 863 60 q 840 22 847 31 q 823 8 833 13 q 803 -1 813 2 q 783 -3 793 -3 q 744 6 762 -3 q 713 26 726 14 q 686 51 698 38 q 663 78 674 64 q 623 139 642 106 q 614 156 619 147 q 606 173 610 164 q 603 177 604 175 q 601 182 603 180 q 602 183 603 183 q 600 182 601 182 q 601 183 600 181 q 609 191 603 185 l 610 191 l 611 190 l 613 190 l 618 189 q 627 186 623 188 q 638 184 632 185 q 760 170 703 172 q 868 171 818 168 q 878 172 872 172 q 879 173 878 173 q 892 230 886 201 q 903 290 898 259 q 943 547 925 410 q 960 699 954 635 q 972 815 967 763 q 978 910 975 866 q 981 1003 981 954 q 981 1053 981 1027 q 977 1109 981 1080 q 972 1139 975 1123 q 963 1167 969 1154 q 956 1177 960 1175 q 953 1178 955 1178 q 947 1176 953 1178 q 932 1168 940 1173 q 917 1158 924 1163 q 851 1102 885 1134 q 778 1033 817 1071 q 603 849 702 956 q 422 648 503 740 q 275 481 341 556 q 157 345 208 405 q 67 238 106 285 q -1 158 27 192 q -48 102 -29 125 q -78 66 -67 79 q -93 48 -89 53 q -123 22 -108 31 q -143 18 -137 13 q -142 39 -149 23 q -122 72 -136 54 q -110 85 -117 78 q -90 107 -103 93 q -55 146 -76 122 q 3 209 -33 170 q 88 305 38 248 q 210 440 139 361 q 375 623 281 519 q 594 859 469 727 q 701 971 651 920 q 796 1066 751 1022 q 839 1108 818 1088 q 881 1144 860 1127 q 901 1161 891 1153 q 922 1176 911 1169 q 932 1182 926 1179 q 942 1188 937 1185 q 949 1190 946 1190 q 955 1190 951 1191 q 961 1189 958 1190 q 967 1185 965 1187 q 979 1165 976 1176 q 985 1144 982 1154 q 989 1124 988 1134 q 992 1103 991 1113 q 996 1066 994 1084 q 998 1031 997 1048 q 1000 966 999 996 q 999 908 1000 935 q 998 853 999 879 q 996 800 997 826 q 992 745 994 773 q 988 686 990 717 q 981 622 985 656 q 973 548 978 588 q 960 463 967 508 q 943 365 953 417 q 922 262 933 309 q 900 174 912 215 q 975 183 940 177 q 1040 196 1010 189 q 1163 231 1113 213 q 1245 264 1212 249 q 1300 290 1279 279 q 1338 310 1322 301 q 1367 326 1353 319 q 1397 343 1380 333 q 1432 358 1416 355 q 1453 356 1449 362 m 847 67 q 862 110 855 88 q 874 156 869 132 q 756 156 819 153 q 623 174 694 158 q 620 175 622 174 q 618 175 619 175 q 621 170 619 173 q 624 165 622 168 q 634 146 628 156 q 645 127 639 137 q 670 90 657 108 q 700 55 684 72 q 736 26 716 39 q 780 12 757 13 q 802 15 792 12 l 813 19 q 815 21 814 21 q 817 23 816 22 q 822 26 820 24 q 835 44 829 33 q 847 67 841 56 z "},"B":{"ha":1463,"x_min":-37,"x_max":1633,"o":"m 1630 360 q 1617 337 1633 353 q 1572 305 1600 321 q 1557 297 1563 300 q 1538 288 1551 294 q 1500 269 1524 281 q 1431 234 1476 257 q 1315 177 1386 212 q 1137 96 1244 143 q 1019 45 1083 72 q 879 -12 956 18 q 860 -19 869 -15 q 840 -26 850 -23 l 840 -26 l 835 -28 l 831 -31 l 829 -31 l 829 -31 q 830 -33 831 -35 q 827 -27 828 -31 q 824 -19 826 -23 q 823 -17 822 -16 q 822 -12 822 -13 q 823 -16 822 -12 l 825 -15 q 833 -12 829 -14 q 842 -8 838 -10 l 842 -8 q 851 -5 845 -8 q 891 14 871 4 q 932 35 911 24 q 972 60 952 47 q 1013 88 992 73 q 1050 122 1032 103 q 1081 163 1069 140 q 1092 188 1088 174 q 1094 216 1096 202 q 1086 242 1094 230 q 1066 260 1078 253 q 1038 271 1053 268 q 1008 276 1024 274 q 975 277 992 277 q 942 275 959 276 q 875 265 909 272 q 807 249 842 258 q 790 244 799 247 q 773 240 781 242 l 768 238 q 766 238 767 238 q 756 253 758 250 q 755 256 754 257 q 757 254 756 256 q 756 255 758 252 l 756 256 l 758 256 l 764 263 q 770 269 767 266 q 776 276 773 273 q 801 304 789 290 q 827 332 814 318 q 932 450 878 389 q 1040 578 985 511 q 1094 647 1067 612 q 1149 718 1122 681 q 1202 793 1176 755 q 1252 873 1228 831 q 1278 925 1267 899 q 1292 974 1289 951 q 1285 1005 1294 997 q 1270 1012 1280 1010 l 1268 1013 q 1267 1013 1266 1013 q 1267 1013 1267 1013 l 1266 1013 l 1265 1013 l 1265 1013 l 1259 1015 l 1249 1017 q 1208 1019 1228 1020 q 1169 1014 1188 1017 q 1132 1006 1149 1010 q 1097 995 1114 1001 q 1035 969 1064 983 q 977 940 1006 956 q 922 908 949 925 q 867 873 895 892 q 808 833 838 854 q 744 785 778 811 q 674 729 711 760 q 594 662 637 699 q 504 581 552 625 q 402 483 456 537 q 286 367 347 430 q 156 228 224 303 q 88 152 120 189 q 26 78 56 115 q 11 60 18 69 q -3 42 3 51 q -10 33 -7 38 q -17 24 -14 28 q -20 20 -19 21 q -20 19 -20 19 q -21 18 -21 19 q -20 19 -21 17 q -21 23 -20 22 l -23 21 q -24 19 -24 19 q -26 18 -25 19 q -27 17 -26 17 q -28 17 -27 17 l -29 16 q -31 16 -31 16 q -33 16 -31 15 q -37 20 -37 19 q -37 22 -36 21 q -36 24 -37 23 q -36 25 -36 25 q -35 26 -35 25 q -34 27 -35 27 q -33 29 -34 28 q -32 31 -33 31 q -31 33 -32 31 q -32 32 -32 33 q -35 32 -33 32 q -35 31 -36 31 q -36 31 -36 31 q -35 32 -35 31 q -34 33 -34 33 q -32 35 -33 34 q -20 51 -26 42 q -8 70 -14 60 l 13 108 q 85 255 52 185 q 147 390 118 325 q 249 619 205 517 q 326 799 293 721 q 384 934 360 878 q 424 1029 408 991 q 449 1089 440 1067 q 462 1120 458 1111 q 475 1147 468 1135 q 488 1168 482 1160 q 500 1181 494 1177 q 509 1184 506 1185 q 513 1158 517 1181 q 496 1106 508 1135 q 486 1083 492 1096 q 468 1044 480 1069 q 438 978 457 1019 q 390 869 419 937 q 316 706 359 802 q 210 474 272 609 q 141 328 178 406 q 60 162 105 251 q 48 138 54 150 q 35 115 42 126 q 89 175 62 144 q 146 237 117 206 q 297 395 226 323 q 430 527 367 467 q 548 636 493 587 q 652 728 603 686 q 744 803 701 769 q 825 865 787 837 q 900 917 864 894 q 969 960 935 940 q 1037 996 1003 980 q 1107 1025 1071 1013 q 1144 1036 1125 1031 q 1183 1044 1163 1041 q 1224 1047 1203 1047 q 1268 1042 1246 1047 q 1291 1035 1278 1040 q 1313 1017 1304 1030 q 1321 990 1320 1004 q 1320 964 1322 976 q 1305 913 1315 938 q 1281 865 1294 889 q 1216 762 1253 815 q 1131 651 1178 710 q 1012 510 1067 572 q 909 394 957 447 q 819 299 861 342 q 800 277 810 288 q 781 258 790 267 q 790 260 785 259 q 799 263 794 261 q 850 275 825 269 q 901 283 876 280 q 951 289 926 287 q 1001 290 976 291 q 1026 286 1013 288 q 1051 281 1039 285 q 1076 269 1064 276 q 1096 250 1088 262 q 1106 223 1104 238 q 1106 194 1108 208 q 1098 166 1104 180 q 1083 141 1092 153 q 1053 105 1069 121 q 1019 76 1036 90 q 999 61 1009 68 q 980 48 990 54 q 1026 68 1004 58 q 1069 87 1048 77 q 1231 163 1165 130 q 1343 220 1297 196 q 1419 261 1389 244 q 1471 290 1449 277 q 1512 314 1494 303 q 1553 337 1531 324 q 1604 360 1582 353 q 1630 360 1626 367 z "},"C":{"ha":1094,"x_min":94,"x_max":1258,"o":"m 1203 353 q 1236 365 1221 363 q 1254 360 1251 367 q 1248 342 1258 353 q 1221 321 1239 331 q 1211 316 1215 318 q 1200 311 1208 315 q 1176 301 1192 308 q 1133 281 1161 294 q 1061 246 1105 267 q 952 195 1018 226 q 880 164 919 181 q 794 127 841 147 q 693 88 747 108 q 575 49 640 68 q 503 28 540 38 q 424 10 466 18 q 339 -1 383 3 q 244 3 294 -5 q 196 18 220 8 q 151 47 172 28 q 118 92 131 66 q 100 146 105 117 q 95 203 94 174 q 101 260 97 231 q 114 318 106 290 q 132 376 122 347 q 158 443 145 413 q 184 499 172 474 q 209 547 197 525 q 233 588 222 569 q 276 659 255 626 q 321 726 297 692 q 375 802 345 762 q 449 897 406 843 q 498 955 472 924 q 557 1019 524 985 q 591 1055 573 1037 q 631 1090 610 1072 q 652 1108 641 1099 q 676 1126 664 1117 q 702 1142 688 1134 q 732 1156 716 1150 q 741 1158 736 1157 q 750 1159 745 1158 q 759 1159 755 1160 q 767 1159 763 1159 q 799 1157 783 1159 q 830 1149 815 1154 q 859 1136 845 1144 q 884 1116 873 1128 q 901 1090 894 1103 q 912 1061 908 1076 q 917 1033 915 1047 q 916 979 919 1005 q 908 929 913 953 q 896 883 902 905 q 882 840 890 861 q 851 764 867 799 q 820 697 835 728 q 791 639 805 666 q 763 590 776 613 q 718 511 738 544 q 685 457 699 478 q 663 423 672 435 q 652 406 655 410 q 628 380 641 389 q 610 376 616 372 q 607 395 603 381 q 622 426 610 410 q 630 438 625 431 q 645 459 635 445 q 670 495 655 472 q 710 557 686 519 q 767 651 734 595 q 838 790 800 707 q 856 833 847 810 q 874 881 865 856 q 889 933 882 906 q 899 990 896 960 q 900 1020 900 1005 q 897 1051 900 1035 q 888 1081 894 1067 q 869 1108 881 1096 q 842 1127 858 1119 q 809 1140 827 1135 q 792 1143 801 1142 q 773 1144 783 1144 q 764 1145 768 1145 q 754 1145 759 1145 q 745 1144 750 1145 q 736 1142 741 1144 q 705 1128 719 1137 q 676 1110 690 1119 q 650 1090 663 1100 q 626 1069 638 1080 q 582 1029 603 1049 q 544 989 562 1008 q 479 914 508 949 q 426 847 450 879 q 384 789 403 816 q 349 736 365 761 q 319 690 333 712 q 294 647 306 667 q 249 565 269 605 q 206 478 228 526 q 184 428 195 455 q 160 369 172 401 q 138 300 149 338 q 122 217 128 263 q 122 160 119 187 q 134 110 124 133 q 158 69 143 86 q 192 42 174 53 q 229 26 210 31 q 266 17 248 20 q 301 14 284 15 q 335 14 319 13 q 398 20 368 15 q 458 31 428 24 q 581 65 515 43 q 682 100 635 82 q 769 134 728 117 q 844 167 810 151 q 907 197 878 183 q 1006 245 966 224 q 1074 281 1046 266 q 1120 307 1102 297 q 1152 325 1139 317 q 1177 339 1166 333 q 1203 353 1189 346 z "},"D":{"ha":1308,"x_min":-43,"x_max":1474,"o":"m 1472 360 q 1455 338 1474 353 q 1403 311 1435 324 q 1387 306 1394 308 q 1365 299 1380 303 q 1324 285 1351 294 q 1246 263 1297 277 q 1188 249 1220 257 q 1114 232 1156 241 q 1023 215 1073 224 q 912 198 973 206 q 900 196 906 197 q 888 194 894 196 l 869 169 q 805 92 837 128 q 739 27 772 56 q 704 0 722 13 q 669 -22 687 -12 q 650 -31 660 -27 q 631 -37 641 -35 q 612 -42 622 -41 q 594 -44 603 -43 q 522 -47 556 -49 q 456 -39 487 -44 q 395 -25 424 -33 q 340 -6 367 -16 q 242 41 288 15 q 155 98 197 66 q 135 115 144 106 q 116 134 125 124 q 111 139 114 137 q 108 145 109 142 q 104 152 106 149 q 102 160 102 155 q 103 167 101 164 q 108 172 106 170 q 113 173 111 173 q 117 174 115 173 q 124 175 120 174 q 131 175 127 175 q 186 176 158 176 q 245 176 215 176 q 586 185 439 175 q 841 208 733 194 q 855 210 848 210 q 868 212 861 211 q 928 307 899 258 q 985 408 958 356 q 1034 516 1014 466 q 1068 613 1054 567 q 1099 775 1097 703 q 1096 844 1101 811 q 1076 904 1091 876 q 1038 950 1063 931 q 981 978 1014 969 q 910 987 948 987 q 831 977 873 987 q 744 946 790 967 q 650 894 699 926 q 549 819 601 862 q 441 719 497 776 q 326 593 385 663 q 203 437 267 523 q 195 425 199 431 q 186 413 190 419 q 169 374 178 394 q 151 333 161 354 q 118 260 135 298 q 80 181 100 222 q 59 141 70 161 q 35 99 48 120 q 22 78 28 89 q 7 58 15 68 q -1 48 3 53 q -10 39 -6 44 q -16 35 -13 37 q -22 31 -19 33 q -26 29 -24 30 q -31 28 -28 28 q -38 31 -35 28 q -42 37 -40 33 q -42 45 -43 42 q -41 52 -42 49 q -40 59 -40 56 q -37 65 -39 62 q -33 78 -35 72 q -28 90 -31 85 q -16 115 -22 103 q -4 140 -10 128 q 23 189 9 164 q 53 239 37 214 q 99 311 75 274 q 149 385 122 347 q 170 436 160 411 q 190 486 181 462 q 230 588 212 540 q 264 676 248 635 q 317 820 295 760 q 354 921 340 880 q 377 985 369 962 q 388 1017 385 1008 q 413 1070 400 1049 q 433 1088 425 1090 q 438 1061 440 1085 q 423 1005 435 1037 q 414 981 419 994 q 398 940 408 967 q 370 869 388 914 q 325 753 353 825 q 276 630 303 700 q 210 468 248 560 q 343 632 278 559 q 471 765 408 706 q 599 873 538 827 q 722 950 661 919 q 838 994 781 981 q 945 1002 894 1007 q 994 993 971 999 q 1037 974 1017 986 q 1072 946 1057 963 q 1097 911 1087 930 q 1122 834 1117 874 q 1124 754 1126 794 q 1113 674 1121 715 q 1091 590 1104 634 q 1058 500 1077 547 q 1013 401 1040 453 q 965 313 992 358 q 904 217 939 267 q 1048 243 988 230 q 1153 267 1108 256 q 1239 292 1205 281 q 1298 312 1273 303 q 1344 328 1323 321 q 1390 346 1365 336 q 1445 362 1422 358 q 1472 360 1468 367 m 88 245 q 103 280 96 263 q 118 314 110 297 q 103 290 110 302 q 88 266 96 278 q 39 183 62 224 q -3 102 16 142 q -12 82 -8 92 q -19 63 -16 72 q -21 58 -20 60 q -22 53 -22 56 q -4 75 -13 63 q 7 91 1 83 q 18 108 13 100 q 55 178 38 144 q 88 245 72 212 m 775 94 q 852 190 815 139 q 581 168 735 176 q 227 164 426 160 l 165 164 q 149 163 157 163 q 133 163 141 163 q 125 162 129 163 q 118 161 122 162 q 116 160 117 160 q 115 160 115 160 l 115 158 q 122 147 117 153 q 133 135 127 140 q 157 113 143 123 q 213 74 184 91 q 341 10 272 37 q 488 -26 410 -17 q 528 -29 508 -28 q 567 -28 547 -29 q 587 -26 577 -27 q 607 -23 597 -24 q 626 -18 617 -22 q 644 -11 635 -15 q 713 34 681 6 q 775 94 744 62 z "},"E":{"ha":872,"x_min":19,"x_max":1038,"o":"m 1033 364 q 1030 344 1038 358 q 1004 317 1022 331 q 995 311 999 313 q 984 303 992 308 q 960 289 976 298 q 917 261 945 279 q 845 217 889 243 q 732 155 801 190 q 656 117 697 137 q 566 77 615 98 q 514 57 541 67 q 458 35 488 46 q 398 15 429 25 q 331 -4 367 4 q 293 -11 313 -8 q 251 -16 273 -15 q 230 -16 241 -16 q 208 -12 219 -15 q 186 -3 197 -9 q 168 15 175 3 q 162 40 161 26 q 167 65 163 53 q 192 107 175 88 q 225 144 207 127 q 265 176 244 160 q 338 219 298 199 q 242 221 285 217 q 165 235 200 225 q 81 278 115 249 q 32 357 45 308 q 33 460 19 403 q 78 582 44 516 q 120 651 97 615 q 176 727 144 688 q 248 808 208 767 q 342 892 289 849 q 452 965 397 934 q 565 1008 507 996 q 594 1013 580 1012 q 622 1014 608 1014 q 677 1012 650 1015 q 703 1006 690 1010 q 728 997 717 1003 q 751 980 740 990 q 767 958 761 970 q 776 933 774 946 q 777 908 778 920 q 775 885 777 897 q 771 863 774 874 q 758 824 765 842 q 743 788 751 805 q 711 726 727 754 q 682 673 696 697 q 633 590 653 624 q 598 533 612 556 q 576 497 584 510 q 565 478 569 483 q 543 450 555 460 q 524 443 531 440 q 520 463 517 447 q 533 497 523 478 q 542 510 537 503 q 557 533 547 518 q 584 573 567 549 q 626 638 600 598 q 655 683 640 658 q 688 738 670 708 q 724 805 706 768 q 740 844 733 824 q 753 888 748 865 q 756 911 755 899 q 753 935 756 923 q 726 974 749 959 q 674 992 705 988 q 613 996 644 997 q 549 987 581 996 q 483 963 516 978 q 417 927 449 947 q 351 881 384 906 q 244 786 290 834 q 165 694 199 739 q 106 606 129 648 q 67 525 82 565 q 45 451 51 486 q 44 385 40 416 q 62 331 48 354 q 96 294 76 308 q 138 270 116 278 q 183 257 160 262 q 232 249 207 251 q 284 247 256 247 q 343 249 312 247 q 410 256 374 251 q 419 257 415 256 q 428 258 423 257 l 461 268 q 490 275 475 272 q 519 282 504 278 q 533 284 526 283 q 548 287 540 285 l 556 288 q 568 288 561 290 q 577 280 574 285 q 578 267 581 274 q 562 253 575 260 l 560 253 l 559 253 l 556 252 l 540 249 q 481 237 511 242 q 417 227 450 231 l 403 225 q 331 194 364 211 q 205 100 250 153 q 186 73 194 87 q 176 43 178 58 q 183 17 174 27 q 193 7 187 11 q 207 1 199 3 q 238 -3 222 -3 q 270 -2 253 -3 q 304 3 287 -1 q 339 11 321 6 q 395 28 368 19 q 447 47 422 38 q 495 65 472 56 q 540 84 518 74 q 618 119 582 102 q 684 153 653 137 q 786 210 745 185 q 856 254 827 235 q 901 286 883 273 q 933 309 919 299 q 957 328 946 319 q 982 347 968 336 q 1013 364 999 359 q 1033 364 1027 369 z "},"F":{"ha":978,"x_min":-212,"x_max":1551,"o":"m 1549 959 q 1544 943 1551 951 q 1522 932 1536 935 q 1515 931 1518 931 q 1506 930 1513 931 q 1489 927 1500 928 q 1456 923 1477 926 q 1402 917 1435 920 q 1320 910 1369 913 q 1204 906 1272 907 q 1047 906 1137 904 q 942 906 998 906 q 822 907 886 906 q 686 910 758 908 q 533 917 614 912 q 444 924 481 921 q 376 928 407 926 q 321 933 347 931 q 268 934 295 935 q 261 934 265 934 q 254 933 258 933 q 249 933 253 933 l 249 926 q 250 918 250 922 q 251 909 250 914 q 251 871 251 891 q 249 827 251 851 q 239 717 247 779 q 212 571 231 655 q 171 417 192 485 q 131 293 150 349 q 113 245 122 267 q 97 202 105 222 q 137 208 116 206 q 222 216 176 214 q 322 210 268 217 q 433 199 374 203 q 561 198 492 196 q 744 217 667 201 q 878 249 822 232 q 971 283 935 267 q 1031 310 1007 299 q 1067 332 1054 323 q 1088 346 1081 340 q 1102 356 1097 351 q 1115 365 1107 360 q 1128 367 1121 369 q 1140 360 1135 366 q 1143 346 1145 353 q 1135 333 1142 338 q 1129 331 1131 332 q 1121 327 1127 331 q 1102 318 1115 324 q 1065 301 1089 313 q 1002 276 1040 291 q 903 242 963 260 q 759 209 844 225 q 561 189 675 192 q 453 189 504 187 q 354 195 401 191 q 309 200 331 197 q 267 203 288 203 q 226 203 246 204 q 188 201 207 203 q 137 194 161 198 q 90 185 113 190 q 63 118 76 147 q 39 62 49 85 q 22 22 29 38 q 11 -3 15 6 q 6 -15 7 -12 q -10 -33 -1 -27 q -26 -36 -19 -40 q -33 -22 -33 -33 q -28 1 -33 -11 q -23 10 -26 5 q -15 25 -20 15 q -1 52 -10 35 q 22 96 8 69 q 39 132 29 112 q 60 177 48 152 q 8 162 31 169 q -35 147 -15 155 q -102 119 -76 132 q -147 98 -129 106 q -172 83 -164 88 q -183 77 -181 78 q -198 76 -191 74 q -209 85 -206 78 q -210 99 -212 92 q -200 110 -208 107 q -192 114 -197 112 q -175 120 -187 115 q -142 133 -163 125 q -85 153 -122 141 q -21 174 -58 163 q 68 197 17 186 q 81 227 74 211 q 94 260 88 242 q 145 395 117 319 q 199 574 172 471 q 230 740 222 669 q 238 863 238 810 q 235 913 238 890 q 234 924 235 918 q 233 935 234 929 l 233 937 l 233 938 l 233 940 q 234 942 233 941 q 240 947 237 945 q 251 949 244 948 q 289 953 271 953 q 323 954 306 953 q 386 953 356 954 q 452 951 416 953 q 533 946 488 949 q 640 938 578 943 q 739 930 696 933 q 818 924 783 926 q 883 921 853 922 q 939 920 912 920 q 994 919 967 919 q 1054 919 1022 919 q 1190 921 1131 919 q 1292 927 1249 924 q 1366 936 1335 931 q 1417 944 1397 940 q 1452 952 1438 949 q 1476 958 1465 955 q 1494 963 1486 960 q 1513 968 1503 965 q 1536 969 1526 972 q 1549 959 1546 967 z "},"G":{"ha":1205,"x_min":108,"x_max":1372,"o":"m 1367 360 q 1360 338 1372 355 q 1327 302 1349 320 q 1316 293 1321 297 q 1303 283 1312 290 q 1280 265 1295 276 q 1237 230 1265 253 q 1167 172 1210 208 q 1062 83 1125 136 q 912 -44 999 30 q 710 -217 825 -118 q 697 -239 703 -228 q 685 -261 691 -250 q 661 -300 674 -281 q 635 -337 649 -319 q 605 -370 621 -355 q 570 -398 590 -386 q 549 -407 560 -403 q 526 -411 538 -411 q 501 -407 513 -411 q 496 -405 499 -406 q 490 -402 493 -403 l 489 -401 q 489 -399 489 -402 q 488 -393 488 -397 q 488 -389 488 -390 q 488 -391 488 -387 l 488 -391 l 490 -389 l 494 -385 q 530 -355 512 -370 q 567 -322 548 -339 q 634 -264 602 -292 q 695 -210 665 -236 q 712 -176 703 -193 q 728 -141 720 -159 q 779 -13 754 -80 q 828 125 804 53 q 840 161 834 143 q 851 199 846 180 q 853 203 853 201 q 792 166 823 185 q 727 130 760 148 q 554 49 630 77 q 413 10 478 21 q 350 3 381 4 q 290 6 320 1 q 233 23 261 11 q 181 58 204 35 q 142 112 157 81 q 120 182 126 144 q 127 356 108 259 q 156 460 137 406 q 203 576 174 515 q 275 703 233 637 q 378 837 317 769 q 509 955 440 906 q 653 1028 578 1004 q 801 1047 729 1053 q 836 1039 819 1044 q 869 1023 853 1034 q 894 994 885 1011 q 904 960 903 977 q 904 926 906 942 q 899 896 902 910 q 890 867 895 881 q 880 840 885 853 q 857 790 869 813 q 832 746 844 767 q 782 667 806 703 q 735 601 757 632 q 656 499 690 540 q 597 429 622 458 q 560 385 574 401 q 540 364 546 370 q 521 345 531 353 q 504 332 512 338 q 490 325 496 327 q 481 326 483 324 q 485 350 475 332 q 513 389 494 368 q 528 405 519 396 q 553 431 537 413 q 595 478 569 449 q 663 557 622 507 q 708 613 684 582 q 759 681 732 643 q 787 722 773 701 q 815 767 801 742 q 843 817 829 791 q 868 874 857 843 q 878 904 874 888 q 883 937 882 920 q 881 970 885 953 q 865 999 877 987 q 836 1018 853 1012 q 799 1027 819 1024 q 759 1029 779 1029 q 717 1026 738 1028 q 547 961 632 1013 q 388 828 465 910 q 273 676 319 751 q 196 531 226 601 q 149 398 165 460 q 130 278 133 335 q 136 176 126 223 q 171 95 147 128 q 198 66 183 78 q 229 46 213 54 q 263 34 246 38 q 296 27 279 29 q 361 27 329 24 q 424 38 393 31 q 488 56 456 45 q 556 80 520 66 q 628 112 590 94 q 708 153 665 130 q 753 177 730 164 q 800 203 776 190 q 824 219 812 211 q 850 234 837 226 q 857 239 853 236 q 865 243 861 241 l 865 245 l 866 248 l 867 248 l 867 249 q 866 249 865 249 q 870 246 867 248 q 873 248 872 247 q 876 251 875 249 l 878 251 q 891 242 889 244 q 893 240 894 240 q 892 241 893 240 q 892 241 890 242 l 892 240 l 892 240 l 890 235 l 889 232 q 898 225 896 226 q 892 229 901 223 l 892 228 l 888 226 q 883 212 885 218 q 830 59 856 128 q 780 -67 804 -9 q 753 -127 766 -99 q 727 -182 740 -156 q 890 -39 819 -101 q 1013 70 960 23 q 1104 150 1066 117 q 1168 208 1142 184 q 1214 249 1195 233 q 1247 280 1232 266 q 1274 305 1261 293 q 1303 330 1288 316 q 1343 357 1324 348 q 1367 360 1361 366 m 670 -257 q 674 -251 672 -253 q 677 -244 676 -248 q 622 -292 651 -267 q 564 -342 594 -316 q 544 -359 554 -350 q 524 -376 534 -367 q 514 -385 519 -381 q 504 -394 510 -389 l 503 -394 q 509 -396 506 -396 q 558 -390 533 -403 q 581 -374 570 -383 q 601 -355 592 -365 q 638 -309 622 -334 q 670 -257 654 -284 z "},"H":{"ha":1080,"x_min":-40,"x_max":1244,"o":"m 1239 358 q 1232 336 1244 351 q 1199 306 1220 321 q 1187 298 1192 301 q 1172 289 1182 295 q 1142 272 1161 283 q 1088 239 1124 260 q 997 188 1053 219 q 854 115 941 156 q 759 71 810 94 q 644 25 707 49 q 613 14 628 19 q 579 2 597 8 q 562 -3 569 -1 l 560 -4 l 558 -5 l 558 -5 q 549 4 551 2 q 548 5 547 6 q 550 4 549 5 q 549 5 551 3 l 551 9 l 553 18 l 566 53 q 592 129 578 90 q 620 209 606 167 q 669 351 644 276 q 722 510 694 426 q 633 431 683 472 q 511 341 583 390 q 427 287 473 315 q 327 229 382 260 q 209 166 273 199 q 70 96 144 134 q 68 95 69 95 q 66 89 67 92 q 64 84 65 87 q 56 64 60 74 q 47 43 51 53 q 35 23 41 33 q 21 4 30 13 q 16 0 19 2 q 9 -3 13 -1 q 1 -2 6 -3 l -4 0 q -26 10 -16 3 q -36 20 -33 14 q -38 35 -40 26 q -32 47 -36 42 q -23 56 -27 51 q 14 81 -6 69 q 53 102 33 92 q 55 108 54 106 q 57 114 56 111 q 96 241 79 181 q 126 358 113 302 q 173 558 154 470 q 206 713 192 645 q 230 830 220 781 q 247 913 240 879 q 257 965 253 946 q 262 991 260 983 q 275 1034 267 1017 q 292 1049 284 1051 q 301 1029 299 1048 q 298 984 303 1010 q 293 964 296 976 q 286 931 291 953 q 272 873 281 909 q 251 778 264 837 q 217 635 237 720 q 168 433 198 551 q 134 307 153 374 q 92 163 116 240 q 84 139 88 151 q 76 114 80 126 q 152 152 115 134 q 222 188 188 169 q 293 224 260 206 q 357 260 326 242 q 469 328 419 295 q 561 392 519 361 q 661 474 619 435 q 736 549 703 513 q 749 586 742 567 q 762 625 755 606 q 804 747 782 684 q 852 876 826 809 q 878 942 865 909 q 908 1010 892 976 q 925 1045 916 1028 q 936 1063 930 1053 q 939 1068 938 1065 q 944 1073 941 1070 q 948 1076 945 1074 l 951 1078 q 954 1080 951 1078 q 960 1081 957 1081 q 968 1081 965 1081 q 975 1077 971 1080 q 979 1072 978 1074 q 983 1066 983 1068 q 984 1061 983 1063 q 985 1054 985 1056 l 985 1042 q 985 1032 985 1037 q 984 1022 985 1027 q 982 1002 983 1012 q 980 982 981 992 q 960 887 972 930 q 933 809 947 844 q 902 743 918 773 q 871 689 887 714 q 811 607 841 643 q 747 534 782 570 q 742 522 744 528 q 738 509 740 515 q 710 429 724 467 q 683 353 697 391 q 657 276 670 315 q 628 192 643 236 q 604 122 615 156 q 582 57 593 88 l 572 26 q 568 15 571 21 q 591 22 580 18 q 613 31 602 26 q 713 71 667 51 q 797 109 758 91 q 926 175 874 146 q 1015 227 978 205 q 1074 265 1051 249 q 1114 292 1097 281 q 1145 314 1131 304 q 1177 336 1159 324 q 1216 357 1199 351 q 1239 358 1234 364 m 6 13 l 6 13 l 6 13 m 31 49 q 45 82 39 65 q 0 55 20 69 q -15 43 -8 49 q -23 31 -22 37 q -24 28 -24 29 q -21 26 -24 28 q -8 18 -17 22 q -3 16 -6 17 q 1 15 -1 16 q 6 13 3 13 q 13 19 8 13 q 23 33 18 25 q 31 49 27 41 m 807 697 q 785 637 795 665 q 765 583 774 609 q 777 598 772 590 q 790 613 783 606 q 825 663 808 638 q 857 715 842 688 q 885 769 872 741 q 910 830 898 798 q 933 900 923 863 q 950 981 943 937 q 953 1004 951 992 q 956 1027 954 1015 q 957 1036 956 1031 q 957 1044 957 1040 q 946 1025 951 1035 q 935 1005 941 1015 q 923 978 929 992 q 910 951 917 965 q 852 814 877 876 q 807 697 828 751 z "},"I":{"ha":619,"x_min":44,"x_max":778,"o":"m 774 358 q 773 341 778 351 q 756 324 767 331 q 749 319 752 321 q 741 315 747 318 q 724 307 735 313 q 695 290 714 301 q 647 261 676 278 q 573 217 617 243 q 467 155 528 190 q 320 76 406 120 q 273 52 297 65 q 221 28 248 40 q 193 16 207 22 q 163 5 179 10 q 132 -5 148 -1 q 97 -10 115 -9 q 86 -9 91 -10 q 75 -6 81 -8 q 57 10 63 0 q 48 31 50 20 q 46 51 47 41 q 47 90 44 71 q 54 128 50 108 q 75 205 63 166 q 102 283 88 243 q 137 372 122 335 q 165 438 152 408 q 189 492 177 467 q 212 544 200 517 q 239 605 224 572 q 272 683 253 638 q 314 791 290 729 q 368 937 338 852 q 383 981 376 959 q 397 1023 390 1002 q 372 991 385 1006 q 292 912 330 944 q 223 858 254 881 q 168 822 192 836 q 129 799 145 808 q 104 784 113 789 q 90 778 94 779 q 66 772 78 771 q 51 780 55 772 q 55 796 49 788 q 74 810 62 805 q 84 815 78 813 q 100 822 90 817 q 128 836 111 828 q 174 861 146 845 q 239 904 201 878 q 325 974 277 930 q 371 1022 347 995 q 417 1083 394 1049 q 418 1089 418 1086 q 420 1094 419 1092 l 423 1103 l 423 1105 l 424 1106 q 426 1105 425 1105 q 429 1103 428 1104 l 430 1104 l 430 1105 q 431 1105 432 1104 q 429 1105 430 1105 q 431 1105 428 1106 q 440 1101 433 1103 l 440 1099 q 447 1095 447 1096 q 447 1095 448 1095 q 444 1097 445 1096 q 445 1096 442 1097 l 444 1094 l 442 1090 q 437 1082 440 1085 q 433 1074 435 1078 q 432 1072 432 1072 q 431 1070 431 1072 q 424 1051 427 1060 q 417 1031 420 1041 q 400 983 409 1008 q 381 932 391 958 q 317 766 344 836 q 269 644 290 696 q 235 553 249 592 q 208 482 220 515 q 185 420 196 450 q 161 356 174 391 q 131 276 148 320 q 92 169 115 231 q 80 130 85 149 q 71 92 74 110 q 66 58 67 74 q 69 28 65 42 q 85 10 73 15 q 97 7 90 8 q 109 8 103 7 q 134 12 122 9 q 157 18 146 15 q 199 33 179 25 q 239 51 219 42 q 279 70 259 60 q 322 92 299 80 q 445 162 393 130 q 538 219 498 194 q 604 262 577 244 q 649 293 631 280 q 680 315 668 306 q 701 330 692 324 q 718 342 710 337 q 735 354 726 348 q 758 363 747 362 q 774 358 769 364 z "},"J":{"ha":537,"x_min":-371,"x_max":699,"o":"m 695 359 q 689 339 699 353 q 659 313 678 326 q 649 307 653 309 q 636 299 644 304 q 610 284 627 294 q 564 255 594 274 q 487 204 533 235 q 371 126 440 174 q 208 10 301 78 q -6 -153 114 -57 q -72 -209 -39 -180 q -141 -272 -106 -238 q -160 -291 -151 -281 q -180 -310 -170 -300 q -222 -376 -199 -341 q -271 -452 -244 -412 q -310 -509 -291 -482 q -347 -560 -328 -536 l -351 -566 l -352 -568 l -353 -569 q -353 -569 -355 -569 q -352 -569 -352 -569 q -353 -569 -351 -569 q -364 -569 -356 -569 q -365 -569 -364 -569 l -365 -568 q -367 -563 -366 -566 q -369 -556 -369 -558 l -371 -556 l -370 -555 l -370 -554 l -369 -553 q -369 -546 -369 -551 q -367 -531 -369 -538 q -362 -517 -365 -524 q -351 -491 -357 -503 q -337 -469 -344 -480 q -286 -400 -312 -430 q -235 -344 -260 -370 q -217 -315 -226 -330 q -199 -284 -208 -300 q -121 -151 -153 -208 q -65 -50 -90 -95 q -19 35 -40 -4 q 24 117 2 74 q 72 214 46 160 q 130 340 97 267 q 164 420 146 377 q 202 514 183 463 q 244 624 222 565 q 290 752 266 683 q 333 887 313 823 q 369 1011 353 951 q 377 1040 374 1026 q 385 1069 381 1055 q 387 1076 386 1074 q 361 1054 374 1065 q 335 1033 349 1043 q 257 976 295 1001 q 183 932 219 951 q 115 899 148 913 q 54 874 83 885 q -48 841 -5 852 q -120 824 -90 830 q -167 815 -150 817 q -191 811 -183 813 q -231 813 -214 808 q -248 825 -248 817 q -233 839 -248 833 q -195 848 -217 845 q -178 850 -187 849 q -149 853 -168 851 q -98 862 -130 856 q -16 881 -67 867 q 38 899 8 889 q 103 923 68 908 q 179 958 139 938 q 263 1008 219 978 q 308 1038 285 1022 q 355 1075 331 1055 q 375 1093 365 1084 q 396 1113 385 1103 l 397 1117 l 398 1119 q 401 1117 401 1118 l 405 1120 l 406 1121 q 404 1122 402 1123 q 409 1120 406 1122 q 415 1116 412 1118 q 417 1115 417 1115 l 416 1113 l 415 1110 q 421 1106 421 1106 q 419 1107 421 1106 q 417 1108 418 1108 q 419 1108 416 1109 l 418 1107 l 416 1104 q 413 1101 414 1103 q 411 1095 412 1098 q 409 1088 410 1092 q 405 1072 407 1080 q 400 1054 402 1063 q 357 910 381 986 q 303 747 333 834 q 249 601 275 668 q 200 476 224 533 q 156 369 176 418 q 117 278 135 320 q 51 134 80 195 q -1 23 23 74 q -49 -74 -25 -28 q -101 -174 -72 -120 q -126 -218 -113 -195 q -153 -265 -139 -240 q -83 -202 -118 -233 q -5 -135 -47 -171 q 179 9 99 -51 q 321 115 260 69 q 425 190 382 160 q 498 243 467 221 q 548 279 528 265 q 583 305 568 294 q 610 325 598 316 q 639 344 623 333 q 675 361 658 357 q 695 359 691 365 m -290 -433 q -312 -465 -301 -449 q -331 -498 -323 -481 q -310 -466 -321 -482 q -290 -433 -300 -449 z "},"K":{"ha":1219,"x_min":45,"x_max":1383,"o":"m 1378 365 q 1373 343 1383 359 q 1344 309 1363 326 q 1333 300 1338 303 q 1319 290 1328 297 q 1293 268 1310 282 q 1243 230 1276 255 q 1206 202 1227 218 q 1158 169 1185 187 q 1098 129 1131 150 q 1022 85 1065 108 q 977 63 1001 74 q 926 42 953 52 q 869 25 899 33 q 805 17 839 18 q 735 24 772 15 q 667 56 699 32 q 612 116 634 80 q 578 195 590 153 q 568 243 572 219 q 563 294 564 267 q 562 319 562 306 q 564 347 563 333 q 566 360 565 353 q 571 374 567 367 q 574 381 572 377 q 583 388 576 385 q 588 391 585 390 q 593 394 590 392 q 634 430 614 410 q 676 469 655 449 q 760 553 717 508 q 849 645 804 597 q 942 744 894 692 q 978 783 960 763 q 1014 823 996 803 q 983 795 998 808 q 954 769 968 781 q 902 723 926 744 q 856 681 878 701 q 775 609 813 642 q 696 538 737 575 q 605 457 655 501 q 488 351 556 412 q 415 285 454 319 q 330 208 376 250 q 282 166 307 188 q 229 121 257 144 q 173 73 202 97 q 108 24 143 48 q 99 18 103 21 q 90 13 94 15 q 79 7 84 10 q 67 3 74 5 q 54 6 61 2 q 50 11 51 8 q 47 15 49 13 q 46 23 46 19 q 45 28 46 26 q 45 40 45 35 q 47 51 46 45 q 54 90 50 71 q 63 128 58 110 q 82 201 72 166 q 102 270 92 237 q 141 398 122 338 q 178 512 160 458 q 244 705 215 620 q 295 855 273 790 q 334 967 318 920 q 362 1045 351 1014 q 379 1095 373 1077 q 388 1121 385 1113 q 408 1160 397 1145 q 427 1173 419 1176 q 433 1151 435 1170 q 423 1108 432 1132 q 416 1089 420 1099 q 403 1058 412 1078 q 382 1003 395 1038 q 347 913 368 969 q 297 777 326 858 q 226 583 267 696 q 184 460 206 526 q 136 319 161 395 q 111 240 124 281 q 86 156 99 200 q 75 111 81 134 q 65 65 69 89 q 63 54 63 60 q 60 42 62 48 q 60 30 60 36 q 61 19 60 24 q 63 17 62 17 q 68 18 66 17 q 73 20 71 19 q 78 22 76 21 q 100 35 90 29 q 173 90 140 62 q 238 144 207 118 q 298 196 269 171 q 353 244 326 221 q 449 331 405 291 q 531 407 494 372 q 662 530 607 477 q 762 626 717 582 q 807 668 785 647 q 850 710 828 689 q 895 752 872 731 q 944 798 918 774 q 998 847 969 822 q 1062 902 1026 873 l 1081 917 q 1090 924 1085 920 q 1102 931 1095 928 q 1104 932 1103 932 q 1107 933 1106 932 q 1111 934 1109 933 q 1119 931 1114 934 q 1122 927 1121 929 q 1123 923 1123 924 q 1123 920 1124 921 q 1123 918 1123 919 q 1122 913 1123 915 q 1118 906 1120 909 q 1115 900 1116 903 q 1107 890 1111 894 q 1099 879 1103 885 q 1063 837 1082 858 q 1023 794 1044 816 q 920 686 967 734 q 832 598 873 639 q 756 524 790 558 q 689 460 721 490 q 658 431 673 445 q 626 404 642 417 q 611 391 619 397 q 594 379 603 385 q 591 378 592 378 q 589 376 590 377 q 588 376 588 376 l 587 376 l 586 375 q 583 369 583 372 q 580 360 581 365 q 578 351 578 356 q 574 311 574 331 q 576 271 574 291 q 583 229 578 250 q 594 185 587 208 q 625 122 606 151 q 669 73 644 93 q 722 44 694 53 q 778 33 750 35 q 832 36 806 32 q 881 47 858 40 q 926 62 905 53 q 965 79 947 70 q 1034 116 1003 97 q 1090 151 1065 134 q 1135 182 1115 167 q 1172 210 1156 197 q 1225 254 1205 236 q 1262 285 1246 272 q 1290 311 1278 299 q 1319 337 1303 322 q 1355 362 1338 353 q 1378 365 1372 370 z "},"L":{"ha":1221,"x_min":-13,"x_max":1385,"o":"m 1340 351 q 1363 364 1352 361 q 1380 362 1374 367 q 1381 345 1385 356 q 1365 324 1376 333 q 1358 318 1361 320 q 1350 313 1356 317 q 1334 300 1344 308 q 1305 278 1324 292 q 1257 240 1286 263 q 1182 183 1228 217 q 1132 149 1159 167 q 1069 110 1104 130 q 994 73 1035 92 q 902 42 953 54 q 844 33 874 36 q 781 31 814 30 q 748 34 765 32 q 714 40 731 37 q 680 47 697 44 q 645 52 663 49 q 493 59 574 62 q 321 45 412 57 q 220 31 262 38 q 144 19 178 24 q 81 9 110 13 q 19 -1 51 4 q 11 -3 15 -2 q 3 -4 7 -3 l 1 -5 l 0 -5 q -1 -3 -2 -1 q 1 -6 0 -6 q -1 -3 1 -7 q -13 15 -3 0 l -12 15 l -10 19 q -8 23 -9 21 q -6 26 -7 24 q 4 42 -1 34 q 13 58 8 49 q 33 96 23 76 q 54 140 43 116 q 101 256 76 189 q 153 416 125 323 q 202 590 183 511 q 238 734 222 669 q 265 851 254 799 q 285 942 276 902 q 299 1010 293 981 q 308 1058 305 1038 q 314 1088 312 1077 q 317 1103 316 1099 q 327 1128 320 1119 q 342 1136 335 1138 q 353 1123 350 1135 q 353 1097 357 1111 q 351 1085 352 1092 q 346 1066 349 1078 q 337 1032 342 1053 q 323 976 331 1010 q 302 894 315 942 q 272 776 290 845 q 228 617 253 708 q 167 412 203 527 q 103 229 132 306 q 49 98 74 153 q 24 47 37 72 q 18 35 21 41 q 12 24 15 30 q 9 19 10 22 q 6 14 8 17 q 3 9 6 13 l 1 7 l 1 6 l 1 6 q 0 6 0 6 q 1 5 1 6 q 0 6 1 5 q -3 12 -1 7 l -2 12 q 40 22 20 17 q 78 30 60 26 q 148 45 115 38 q 222 60 181 52 q 314 74 263 67 q 438 83 365 81 q 526 82 486 84 q 600 76 566 81 q 662 67 633 72 q 715 55 690 61 q 763 46 740 49 q 810 44 786 44 q 907 57 856 44 q 984 84 949 68 q 1048 117 1019 100 q 1101 150 1077 133 q 1144 181 1124 166 q 1211 234 1185 211 q 1256 273 1238 257 q 1286 301 1274 290 q 1307 320 1298 312 q 1323 336 1316 329 q 1340 351 1331 343 z "},"M":{"ha":1480,"x_min":-57,"x_max":1643,"o":"m 1638 365 q 1633 341 1643 360 q 1603 302 1624 323 q 1589 288 1597 296 q 1572 272 1581 281 q 1544 246 1562 263 q 1494 199 1527 230 q 1456 165 1477 184 q 1407 124 1435 147 q 1377 101 1393 113 q 1343 76 1361 89 q 1305 51 1325 63 q 1260 26 1284 38 q 1234 16 1247 21 q 1206 8 1221 11 q 1175 3 1192 4 q 1142 8 1159 3 q 1112 26 1126 14 q 1090 53 1099 38 q 1075 86 1081 69 q 1067 122 1070 103 q 1059 198 1060 158 q 1060 279 1058 237 q 1068 366 1063 322 q 1081 459 1073 411 q 1097 566 1088 511 q 1114 680 1106 621 q 1118 710 1116 695 q 1121 740 1119 725 l 1123 765 q 1116 752 1119 758 q 1108 739 1112 745 q 1091 710 1100 724 q 1073 681 1083 696 q 993 564 1035 623 q 904 443 951 506 q 808 317 858 381 q 704 185 758 252 q 639 105 669 141 q 583 35 610 68 q 577 28 580 32 q 570 20 574 24 l 569 19 l 569 19 q 541 33 547 31 q 536 36 535 36 q 541 34 538 35 q 539 35 544 32 l 540 38 l 540 42 l 543 51 q 548 70 546 61 q 553 88 550 78 q 562 121 558 105 q 570 153 566 137 q 600 269 586 215 q 628 382 614 323 q 659 513 642 441 q 694 682 675 584 q 714 789 704 732 q 733 913 724 845 q 741 982 738 947 q 747 1058 745 1018 q 747 1097 747 1077 q 742 1138 746 1117 q 738 1157 741 1147 q 729 1172 735 1166 q 718 1176 724 1176 q 701 1169 711 1176 q 667 1143 683 1158 q 638 1111 651 1127 q 583 1044 608 1078 q 535 978 558 1011 q 491 913 513 945 q 413 790 449 849 q 344 678 376 732 q 231 484 279 570 q 146 332 183 399 q 83 217 109 265 q 40 137 58 169 q 13 86 22 104 q -1 60 3 67 q -29 19 -15 35 q -50 8 -43 4 q -52 32 -57 11 q -34 77 -48 52 q -23 97 -29 85 q -5 129 -17 108 q 28 185 8 150 q 81 277 49 220 q 162 415 114 333 q 278 610 210 497 q 353 732 313 667 q 442 871 394 797 q 493 947 466 908 q 549 1026 519 985 q 580 1066 565 1046 q 613 1107 596 1087 q 651 1147 631 1126 q 671 1165 660 1156 q 694 1182 682 1174 q 706 1188 700 1185 q 720 1190 713 1190 q 734 1185 728 1190 q 743 1175 740 1181 q 753 1151 751 1163 q 757 1127 756 1139 q 759 1079 760 1103 q 758 1033 759 1056 q 749 947 754 988 q 739 867 744 906 q 715 725 727 790 q 692 604 703 660 q 671 501 681 549 q 652 411 661 453 q 636 333 644 369 q 620 262 628 296 q 605 196 613 228 q 590 131 598 164 q 583 102 587 117 q 576 72 580 88 q 626 134 600 101 q 683 204 653 167 q 748 285 713 242 q 823 378 783 328 q 924 507 879 449 q 1006 617 969 566 q 1041 667 1025 643 q 1073 713 1058 690 q 1099 755 1087 735 q 1120 796 1112 776 q 1119 797 1120 797 q 1120 797 1120 797 q 1118 797 1119 797 q 1120 797 1117 797 q 1122 800 1122 799 q 1122 803 1122 801 l 1123 803 q 1125 804 1122 803 q 1130 805 1127 804 q 1134 805 1133 805 q 1132 805 1135 806 l 1133 805 l 1133 804 q 1133 802 1133 803 q 1135 799 1135 801 l 1137 799 l 1137 799 l 1137 798 q 1136 796 1136 797 q 1135 795 1136 795 q 1137 789 1137 792 q 1137 783 1137 786 q 1137 771 1138 777 q 1137 759 1137 765 q 1134 736 1135 747 q 1132 714 1133 725 q 1125 670 1128 692 q 1119 626 1122 649 q 1105 538 1112 583 q 1091 442 1098 492 q 1075 288 1080 360 q 1078 153 1071 216 q 1090 95 1081 122 q 1115 49 1099 67 q 1132 33 1122 39 q 1153 24 1142 27 q 1176 23 1165 22 q 1198 26 1188 24 q 1239 39 1220 31 q 1274 58 1258 48 q 1306 78 1292 67 q 1334 98 1321 88 q 1382 136 1360 118 q 1419 169 1403 153 q 1475 222 1453 200 q 1512 260 1496 244 q 1544 294 1528 276 q 1577 328 1561 311 q 1614 359 1597 348 q 1638 365 1632 370 z "},"N":{"ha":1408,"x_min":58,"x_max":1576,"o":"m 1517 344 q 1551 366 1535 360 q 1572 367 1566 372 q 1567 346 1576 361 q 1541 317 1558 331 q 1529 307 1535 312 q 1512 293 1523 301 q 1483 270 1501 284 q 1436 235 1465 256 q 1361 180 1407 213 q 1243 101 1315 147 q 1163 54 1206 78 q 1063 8 1119 29 q 1005 -12 1035 -3 q 938 -22 974 -20 q 903 -20 921 -23 q 867 -11 885 -18 q 833 9 849 -3 q 806 38 817 21 q 784 76 792 56 q 770 119 776 97 q 763 166 765 142 q 760 214 760 190 q 764 315 758 263 q 778 422 769 367 q 837 651 798 531 q 881 774 856 713 q 888 789 885 781 q 894 804 891 797 l 898 812 l 898 813 q 899 811 901 808 q 897 815 897 814 q 900 811 896 816 q 919 788 903 807 l 919 788 l 917 788 l 913 786 q 904 784 908 785 q 897 781 900 783 q 864 771 881 776 q 831 760 848 766 q 690 704 747 731 q 588 650 632 676 q 507 598 543 624 q 435 540 472 572 q 357 465 398 508 q 269 358 317 422 q 220 285 245 324 q 169 199 195 247 q 142 148 155 174 q 115 93 128 122 q 101 64 108 79 q 88 33 94 49 q 84 25 86 29 q 81 17 82 22 l 80 15 q 61 20 65 19 q 58 21 58 22 q 61 20 59 21 q 60 21 63 20 l 60 22 l 60 23 l 60 27 l 62 36 q 64 54 63 45 q 67 72 65 63 q 94 214 78 147 q 127 340 110 280 q 162 454 144 401 q 197 556 179 508 q 259 726 230 652 q 313 858 289 801 q 354 955 336 915 q 383 1023 372 996 q 402 1066 395 1051 q 413 1088 410 1082 q 434 1122 422 1109 q 453 1131 447 1134 q 458 1110 460 1127 q 446 1072 456 1093 q 438 1057 442 1065 q 424 1030 433 1048 q 401 983 415 1013 q 365 906 387 953 q 312 787 342 857 q 242 617 282 717 q 202 509 223 567 q 159 383 181 451 q 116 238 138 315 q 81 70 95 161 q 74 29 76 50 l 73 19 q 68 20 69 20 q 67 21 67 21 q 68 21 67 21 q 68 21 69 21 l 68 22 l 69 23 l 69 25 l 72 30 q 76 39 74 34 q 80 48 78 43 q 96 83 88 66 q 113 116 104 100 q 144 179 128 149 q 176 235 160 208 q 238 334 208 290 q 297 415 267 378 q 351 480 325 451 q 402 534 378 510 q 450 578 427 558 q 496 616 474 598 q 585 679 540 651 q 687 734 631 707 q 747 760 715 747 q 818 787 779 774 q 858 800 837 793 q 901 813 878 806 l 907 814 l 910 815 l 911 815 l 912 815 q 909 818 908 819 q 915 812 911 816 q 921 804 918 808 q 924 801 924 800 l 924 801 q 921 795 922 798 q 919 790 920 793 q 914 779 916 785 q 908 768 911 774 q 898 744 903 756 q 888 720 894 733 q 843 596 861 653 q 812 490 825 540 q 791 398 799 440 q 778 317 783 356 q 773 243 774 278 q 775 172 772 208 q 780 138 776 155 q 788 102 783 120 q 802 68 794 85 q 823 35 810 51 q 874 1 845 11 q 902 -6 888 -4 q 931 -8 917 -8 q 985 -1 960 -7 q 1035 14 1011 6 q 1122 52 1083 32 q 1192 92 1160 73 q 1299 165 1257 133 q 1371 219 1341 197 q 1421 261 1400 243 q 1458 293 1442 278 q 1489 320 1475 308 q 1517 344 1503 333 z "},"O":{"ha":1076,"x_min":42,"x_max":1238,"o":"m 1190 351 q 1216 362 1203 360 q 1234 358 1229 364 q 1231 340 1238 351 q 1208 319 1224 328 q 1200 315 1203 317 q 1190 310 1197 314 q 1168 301 1182 307 q 1128 286 1155 295 q 1098 277 1115 282 q 1059 271 1081 273 q 1009 270 1037 269 q 951 285 982 272 q 890 322 920 297 q 836 384 860 347 q 824 403 830 393 q 813 423 818 413 q 807 434 810 428 q 802 445 805 440 l 799 451 l 798 453 l 798 454 l 797 454 q 795 454 793 454 q 801 455 797 454 q 808 456 805 456 q 811 456 812 456 l 810 454 q 809 449 810 451 q 808 442 808 446 q 793 392 801 418 q 774 339 785 366 q 746 280 761 310 q 711 219 731 250 q 667 158 692 188 q 612 99 643 128 q 543 46 581 70 q 460 6 506 22 q 363 -15 414 -11 q 310 -14 337 -17 q 257 -4 283 -12 q 196 20 223 6 q 149 52 169 35 q 115 86 129 69 q 90 122 100 104 q 58 191 68 157 q 45 263 49 225 q 46 345 42 300 q 67 449 51 390 q 86 511 74 478 q 114 583 97 544 q 154 662 131 620 q 210 749 176 703 q 353 895 276 838 q 431 941 392 923 q 509 967 470 959 q 547 971 528 970 q 583 970 566 972 q 618 966 601 969 q 649 957 634 963 q 702 928 679 946 q 740 892 724 911 q 765 855 756 874 q 782 821 775 837 q 792 791 788 805 q 799 765 796 777 q 806 730 804 743 q 808 712 807 717 q 803 681 809 694 q 790 669 798 668 q 777 681 783 669 q 771 708 772 692 q 770 721 770 714 q 767 742 769 728 q 761 779 765 756 q 742 836 757 802 q 720 871 733 853 q 686 907 708 890 q 635 936 665 924 q 565 949 605 947 q 483 939 527 951 q 395 901 440 927 q 306 834 350 874 q 221 740 263 794 q 158 643 183 690 q 115 553 133 596 q 86 472 97 510 q 68 401 75 434 q 61 284 56 333 q 79 197 65 235 q 116 127 94 158 q 173 69 138 97 q 213 44 191 56 q 262 24 235 33 q 322 13 289 16 q 394 15 355 10 q 486 41 447 23 q 558 79 526 59 q 612 122 589 101 q 654 165 635 144 q 688 209 673 188 q 717 253 703 230 q 742 299 730 275 q 765 353 753 324 q 780 398 774 376 q 792 440 787 419 l 794 451 l 796 456 l 797 458 l 797 459 q 794 459 792 458 q 800 459 796 459 q 808 460 804 460 q 811 460 812 460 l 812 459 q 816 450 814 454 q 821 441 818 445 q 840 408 830 423 q 882 353 860 376 q 928 318 905 331 q 973 299 951 304 q 1015 293 995 294 q 1049 294 1033 292 q 1078 300 1065 297 q 1119 314 1103 307 q 1147 327 1135 322 q 1168 339 1159 333 q 1190 351 1178 344 z "},"P":{"ha":934,"x_min":-19,"x_max":1105,"o":"m 1097 373 q 1094 349 1105 367 q 1079 333 1088 342 q 1058 318 1069 325 q 1045 311 1050 313 q 1028 303 1040 308 q 996 291 1017 299 q 935 270 975 283 q 833 244 896 258 q 676 215 771 229 q 605 205 642 209 q 526 195 568 200 q 472 185 500 189 q 398 177 434 179 q 329 176 363 175 l 321 176 l 317 176 l 315 176 l 314 176 q 314 179 314 175 q 313 188 313 183 q 313 194 313 192 q 313 192 313 197 l 314 192 q 322 192 318 192 q 330 193 326 192 q 346 194 338 194 q 362 195 354 194 q 392 198 377 197 q 421 201 407 199 q 560 217 498 209 q 674 265 619 234 q 766 329 722 292 q 845 416 809 367 q 907 526 881 466 q 938 653 932 585 q 937 722 940 688 q 919 788 933 756 q 882 844 906 820 q 822 877 857 868 q 778 883 800 883 q 738 879 756 883 q 700 868 717 875 q 667 853 683 861 q 609 816 635 835 q 562 778 584 797 q 485 702 519 740 q 415 623 451 665 q 380 578 398 601 q 342 526 362 554 q 300 466 322 499 q 254 394 278 433 q 203 310 230 356 q 147 210 176 265 q 127 172 138 192 q 107 133 117 153 q 100 105 103 119 q 92 76 96 91 q 68 -3 81 38 q 39 -87 56 -44 q 29 -109 34 -98 q 18 -130 24 -119 q 11 -140 15 -135 q 3 -149 8 -145 q -2 -153 0 -151 q -10 -156 -4 -156 q -15 -154 -13 -156 q -18 -149 -17 -152 q -19 -142 -19 -147 q -14 -117 -17 -129 q -7 -94 -10 -106 q 2 -70 -3 -82 q 11 -46 6 -58 q 46 35 28 -3 q 81 109 64 74 q 102 194 93 153 q 120 273 112 235 q 161 473 144 385 q 192 630 178 561 q 213 747 204 698 q 227 830 222 797 q 236 882 233 863 q 240 908 239 901 q 253 951 245 934 q 269 967 262 968 q 279 947 277 966 q 276 902 281 928 q 273 882 275 894 q 266 849 270 871 q 253 791 261 827 q 234 696 246 754 q 204 552 222 637 q 160 349 186 468 q 141 271 151 312 q 121 185 132 230 q 156 251 138 219 q 222 365 191 314 q 281 460 253 417 q 334 541 309 504 q 383 609 360 578 q 428 667 406 640 q 470 719 449 694 q 513 765 492 743 q 557 808 534 787 q 606 847 580 828 q 664 883 631 867 q 698 898 680 891 q 736 908 716 905 q 824 907 779 917 q 871 888 848 901 q 912 853 894 875 q 942 805 930 832 q 959 746 953 777 q 963 666 966 704 q 951 594 959 628 q 931 531 942 560 q 905 476 919 501 q 844 387 876 424 q 778 320 812 349 q 709 270 744 291 q 638 233 675 249 q 631 230 634 231 q 624 226 628 228 q 764 253 707 240 q 861 278 822 266 q 928 299 902 290 q 972 317 953 308 q 1006 332 991 324 q 1039 349 1021 340 q 1059 360 1050 356 q 1076 369 1068 365 q 1097 373 1092 376 m 59 26 q 61 35 60 31 q 64 43 63 39 q 44 -3 54 21 q 24 -51 34 -26 q 10 -90 17 -70 q -1 -128 3 -109 q -2 -131 -2 -129 q -3 -133 -2 -132 q 5 -123 1 -128 q 11 -110 8 -117 q 38 -42 27 -76 q 59 26 49 -7 z "},"Q":{"ha":1137,"x_min":77,"x_max":1299,"o":"m 1292 365 q 1298 352 1297 360 q 1294 338 1299 344 q 1291 335 1292 336 q 1287 332 1290 334 q 1280 325 1285 330 q 1266 312 1274 321 q 1244 289 1258 303 q 1210 256 1231 276 q 1162 208 1190 235 q 1092 148 1134 181 q 1044 110 1070 131 q 986 69 1019 90 q 915 32 954 49 q 826 6 875 14 q 771 3 794 2 q 730 7 748 3 q 697 14 712 10 q 665 24 681 18 q 644 33 656 27 q 583 -1 615 14 q 515 -26 551 -16 q 458 -36 484 -34 q 451 -36 454 -36 q 444 -37 447 -37 l 441 -37 l 440 -37 l 439 -37 q 435 -37 437 -37 q 432 -37 433 -37 q 420 -38 426 -38 q 408 -38 414 -38 q 365 -36 385 -38 q 328 -31 346 -35 q 262 -14 292 -24 q 203 14 233 -4 q 174 35 188 24 q 144 63 159 47 q 118 99 131 78 q 96 147 105 120 q 79 275 77 201 q 110 445 81 350 q 183 615 140 543 q 272 739 226 688 q 361 824 319 790 q 440 880 404 858 q 502 916 475 902 q 548 937 529 929 q 577 949 567 945 q 593 955 588 953 q 620 958 608 960 q 635 948 633 956 q 627 933 636 940 q 605 920 619 925 q 594 917 600 919 q 575 910 588 915 q 543 899 563 906 q 492 876 523 891 q 418 833 460 860 q 323 759 375 807 q 269 705 297 735 q 216 635 242 674 q 166 548 190 595 q 124 442 142 500 q 98 340 106 388 q 91 251 90 292 q 100 174 92 209 q 124 113 109 140 q 158 69 140 87 q 197 39 177 51 q 234 19 216 26 q 270 6 252 11 q 340 -7 306 -3 q 415 -10 374 -11 q 425 -9 420 -10 q 435 -8 430 -9 l 438 -8 l 438 -8 l 439 -8 l 440 -8 q 442 -8 440 -8 l 447 -8 q 452 -7 449 -8 q 458 -7 454 -7 q 505 1 480 -5 q 558 18 530 8 q 616 46 585 28 q 602 53 610 49 q 588 61 595 57 q 534 97 564 75 q 468 155 504 119 q 406 225 432 192 q 361 287 381 258 q 328 339 342 316 q 304 381 314 363 q 276 435 284 417 q 265 457 267 452 q 265 472 262 465 q 276 481 268 478 q 290 481 283 484 q 299 471 297 478 q 301 465 300 469 q 304 456 302 462 q 310 439 306 449 q 321 413 314 429 q 338 374 328 397 q 367 319 349 351 q 410 249 385 288 q 478 165 436 210 q 551 99 517 123 q 613 63 585 76 q 622 58 617 60 q 631 54 626 56 q 693 101 667 76 q 740 149 720 125 q 778 198 763 174 q 807 244 794 222 q 830 288 819 267 q 848 332 840 310 q 865 377 857 353 q 881 426 873 400 q 910 580 905 513 q 906 694 915 647 q 894 738 901 719 q 877 771 886 757 q 859 796 869 785 q 840 813 849 806 q 808 833 822 827 q 783 842 794 839 q 763 848 772 846 q 742 851 753 849 q 718 857 728 852 q 707 870 708 863 q 717 883 706 878 q 746 887 729 889 q 755 885 751 886 q 765 883 758 885 q 786 876 773 880 q 822 859 799 872 q 846 842 833 852 q 873 817 859 833 q 899 780 887 801 q 918 730 910 759 q 927 594 934 673 q 890 415 921 515 q 850 300 874 360 q 784 176 826 240 q 737 115 764 145 q 677 57 710 84 q 669 50 673 53 q 660 44 665 47 q 702 35 682 38 q 738 31 720 32 q 775 31 755 31 q 820 35 795 32 q 881 46 845 38 q 956 73 926 58 q 1008 101 985 88 q 1048 129 1030 115 q 1088 161 1066 143 q 1145 214 1122 190 q 1185 257 1169 238 q 1213 290 1202 276 q 1232 314 1224 304 q 1244 331 1239 324 q 1252 343 1249 338 q 1258 352 1256 348 q 1265 362 1261 357 q 1278 368 1270 367 q 1292 365 1285 369 z "},"R":{"ha":1653,"x_min":34,"x_max":1819,"o":"m 1814 365 q 1808 341 1819 359 q 1776 305 1797 324 q 1765 295 1769 299 q 1749 283 1760 291 q 1721 261 1740 276 q 1667 219 1702 246 q 1626 189 1649 206 q 1574 153 1603 173 q 1507 112 1544 134 q 1422 69 1470 90 q 1372 48 1398 58 q 1315 30 1345 38 q 1252 17 1285 22 q 1181 13 1219 12 q 1106 24 1144 15 q 1031 53 1068 33 q 960 104 993 74 q 897 173 926 134 q 841 265 866 215 q 797 371 817 315 q 778 429 787 399 q 763 490 769 458 q 761 498 762 494 q 760 506 760 501 q 759 508 760 507 q 761 510 759 507 q 764 516 763 513 q 767 520 766 519 q 765 518 767 522 l 766 518 l 766 519 l 767 519 l 771 521 l 778 524 q 792 531 785 527 q 807 538 799 534 q 836 552 822 545 q 865 568 851 560 q 925 601 895 584 q 984 638 954 618 q 1043 678 1014 657 q 1100 725 1073 700 q 1126 751 1114 738 q 1150 779 1139 764 q 1169 810 1161 794 q 1181 843 1178 826 q 1169 908 1189 878 q 1144 931 1160 922 q 1110 947 1128 940 q 1062 957 1086 954 q 1016 959 1038 959 q 972 957 993 959 q 931 953 951 956 q 859 938 892 947 q 796 919 826 928 q 739 898 766 909 q 688 876 713 888 q 638 851 663 864 q 588 822 613 838 q 536 788 563 806 q 480 747 509 770 q 420 696 451 724 q 356 631 390 667 q 289 550 323 595 q 219 449 254 506 q 153 322 185 391 q 94 166 121 252 q 72 80 81 122 q 66 59 69 69 q 62 38 64 49 l 60 28 l 59 23 l 58 20 l 58 19 l 58 18 q 62 17 65 17 q 53 19 59 18 q 40 21 47 20 q 36 22 34 22 q 37 32 37 27 q 39 43 38 38 q 56 123 46 85 q 77 199 66 162 q 124 336 100 272 q 172 458 149 400 q 258 662 218 574 q 328 819 297 751 q 384 936 360 888 q 423 1018 407 985 q 448 1069 438 1051 q 460 1096 457 1088 q 488 1136 474 1121 q 508 1148 501 1151 q 511 1124 515 1144 q 494 1079 506 1104 q 484 1060 490 1071 q 466 1028 478 1049 q 436 971 455 1006 q 389 878 418 935 q 320 736 360 820 q 226 533 279 652 q 185 436 206 487 q 141 326 163 385 q 186 415 163 374 q 233 492 209 456 q 317 606 275 556 q 400 694 360 655 q 478 764 441 734 q 550 818 515 794 q 617 861 585 842 q 681 896 649 880 q 742 925 712 912 q 803 949 772 938 q 868 968 835 959 q 940 982 901 976 q 1021 988 978 988 q 1066 986 1043 988 q 1114 976 1090 983 q 1138 967 1126 972 q 1163 953 1151 961 q 1185 933 1174 945 q 1201 908 1195 922 q 1210 877 1208 894 q 1210 844 1213 861 q 1200 812 1207 828 q 1184 783 1194 797 q 1157 747 1172 763 q 1128 717 1142 731 q 1097 691 1113 703 q 1067 668 1082 679 q 1008 628 1037 646 q 952 594 979 610 q 900 566 925 579 q 850 541 874 553 q 827 530 838 535 q 803 519 815 524 l 781 508 l 775 506 q 776 497 776 500 q 798 409 785 450 q 827 327 811 367 q 865 248 843 288 q 917 169 886 208 q 1030 70 967 105 q 1092 44 1060 53 q 1153 31 1123 35 q 1267 37 1215 26 q 1361 65 1319 49 q 1438 99 1404 81 q 1500 135 1472 117 q 1550 167 1528 152 q 1590 197 1572 183 q 1650 243 1627 224 q 1690 277 1672 263 q 1720 304 1706 292 q 1751 332 1734 317 q 1790 360 1772 351 q 1814 365 1808 370 z "},"S":{"ha":1069,"x_min":-17,"x_max":1234,"o":"m 1231 370 q 1234 362 1234 369 q 1230 348 1234 356 q 1217 331 1226 340 q 1199 315 1209 323 q 1187 309 1192 311 q 1172 301 1182 306 q 1143 288 1162 296 q 1088 265 1124 279 q 995 235 1052 252 q 852 199 939 218 q 757 179 808 189 q 647 156 706 169 q 562 137 606 147 q 470 114 518 127 q 473 103 472 107 q 478 69 476 87 q 480 33 481 51 q 474 -7 479 13 q 459 -47 469 -27 q 400 -120 439 -86 q 306 -172 361 -153 q 234 -190 269 -185 q 167 -193 199 -194 q 106 -186 135 -192 q 52 -167 76 -181 q 30 -149 40 -159 q 17 -125 20 -139 q 17 -98 13 -111 q 28 -76 22 -85 q 59 -42 42 -56 q 94 -17 76 -29 q 162 20 128 5 q 231 50 196 36 q 302 77 266 64 q 381 103 339 90 q 410 112 396 108 q 439 120 425 116 q 421 172 431 148 q 401 217 411 196 q 352 305 376 265 q 301 388 328 345 q 236 481 272 431 q 151 601 200 531 q 99 676 127 636 q 42 767 72 717 q 15 821 28 792 q -8 883 1 849 q -15 917 -12 899 q -15 955 -17 935 q -3 993 -12 974 q 21 1026 6 1012 q 55 1050 37 1041 q 90 1066 72 1060 q 127 1077 109 1073 q 163 1084 145 1081 q 233 1091 199 1090 q 301 1093 267 1093 q 425 1089 367 1093 q 538 1074 484 1085 q 589 1062 564 1069 q 636 1045 613 1055 q 678 1023 658 1035 q 715 993 699 1010 q 740 956 731 976 q 753 916 749 936 q 755 877 756 896 q 749 842 753 858 q 727 783 740 808 q 701 737 714 757 q 677 700 689 716 q 656 672 665 684 q 624 633 635 647 q 606 615 612 620 q 573 589 590 597 q 551 587 557 581 q 555 608 547 592 q 580 640 564 623 q 593 653 585 646 q 614 676 600 660 q 649 717 626 689 q 672 748 659 731 q 697 789 684 765 q 709 814 703 801 q 719 843 715 827 q 727 875 724 858 q 727 911 729 892 q 716 948 724 929 q 691 982 707 966 q 653 1010 675 998 q 606 1033 631 1023 q 491 1061 554 1052 q 353 1074 427 1071 q 277 1076 316 1076 q 196 1072 238 1076 q 153 1067 175 1070 q 110 1057 132 1063 q 69 1042 90 1051 q 31 1016 48 1032 q 6 982 15 1001 q -3 943 -2 963 q 0 903 -4 923 q 10 866 4 884 q 39 800 22 831 q 72 740 55 769 q 139 639 106 684 q 199 556 171 594 q 252 484 228 517 q 298 422 277 451 q 338 366 319 392 q 372 315 356 340 q 402 266 388 290 q 429 217 417 242 q 449 174 440 196 q 466 127 458 152 q 652 174 569 156 q 799 207 734 192 q 929 241 876 225 q 1019 269 982 256 q 1078 293 1056 283 q 1118 312 1101 303 q 1149 328 1135 321 q 1178 347 1162 336 q 1196 358 1188 353 q 1211 366 1204 363 q 1223 370 1218 369 q 1231 370 1227 372 m 431 -37 q 446 0 442 -19 q 451 38 450 19 q 449 74 451 56 q 442 107 447 91 q 372 86 408 97 q 285 58 330 74 q 195 21 241 42 q 150 -2 173 10 q 105 -28 127 -14 q 83 -44 94 -36 q 63 -61 73 -51 q 46 -81 53 -70 q 35 -102 38 -91 q 49 -141 28 -124 q 72 -154 59 -149 q 98 -163 84 -160 q 157 -171 126 -170 q 218 -167 187 -172 q 280 -154 249 -163 q 339 -128 310 -144 q 391 -90 367 -112 q 431 -37 415 -67 z "},"T":{"ha":1155,"x_min":-211,"x_max":1364,"o":"m 1363 719 q 1350 704 1364 712 q 1314 694 1336 697 q 1302 693 1307 693 q 1288 693 1298 693 q 1261 692 1278 693 q 1210 692 1243 692 q 1124 694 1176 692 q 995 703 1072 697 q 812 723 917 710 q 566 761 706 737 q 542 765 554 763 q 519 769 531 767 q 502 661 512 724 q 478 516 492 599 q 460 412 470 467 q 436 292 450 356 q 422 227 429 260 q 404 157 414 193 q 393 121 399 139 q 381 84 388 103 q 374 65 377 74 q 365 47 370 56 q 355 29 360 38 q 341 13 349 20 q 321 6 333 4 q 303 15 311 8 q 289 28 295 21 q 277 42 283 35 q 257 71 266 56 q 239 100 247 85 q 208 156 222 129 q 181 209 194 183 q 135 305 156 261 q 96 387 114 349 q 33 518 60 463 q -17 619 6 574 q -64 706 -42 665 q -116 797 -87 748 q -148 846 -131 820 q -189 899 -165 872 q -192 902 -190 900 q -196 905 -194 903 q -198 906 -197 906 q -200 906 -199 906 l -203 907 l -206 907 l -206 907 l -206 908 q -209 901 -211 897 q -204 913 -208 904 q -208 916 -207 915 l -209 917 q -208 920 -210 915 q -203 931 -206 925 q -199 939 -200 936 q -201 935 -198 942 l -200 935 l -199 935 l -197 935 l -194 934 q -192 939 -193 938 q -192 940 -191 941 l -191 939 q -187 936 -189 938 q -184 933 -185 935 q -181 931 -183 932 q -167 928 -174 930 q -152 924 -160 926 q -109 914 -131 919 q -62 903 -87 908 q 56 875 2 888 q 155 853 109 863 q 239 835 200 843 q 313 819 278 826 q 403 802 360 810 q 492 787 446 794 q 500 864 497 831 q 507 918 504 896 q 510 953 509 940 q 512 972 511 966 q 522 1007 515 992 q 536 1020 528 1022 q 548 1003 544 1019 q 549 967 551 988 q 547 951 548 960 q 542 924 545 942 q 535 876 540 906 q 524 799 531 847 q 522 791 523 795 q 521 782 522 786 q 549 777 535 779 q 580 772 564 775 q 793 743 701 753 q 953 727 885 732 q 1071 720 1022 722 q 1153 719 1119 719 q 1210 722 1188 720 q 1249 724 1232 723 q 1279 727 1265 726 q 1310 731 1293 729 q 1346 730 1331 733 q 1363 719 1361 727 m 487 744 q 488 759 488 752 q 490 774 489 767 q 360 796 428 785 q 216 822 292 808 q 114 841 166 831 q 5 863 61 851 q -51 874 -23 868 q -110 886 -80 880 q -129 890 -119 888 q -148 894 -138 892 q -134 877 -140 885 q -122 859 -128 868 q -103 830 -112 844 q -87 803 -94 816 q -59 752 -72 776 q -36 707 -47 728 q 2 627 -15 664 q 38 548 19 590 q 78 457 56 507 q 131 340 101 408 q 165 268 147 307 q 206 185 183 230 q 231 139 218 163 q 258 91 243 115 q 275 67 266 79 q 293 43 283 55 q 303 32 297 38 q 314 24 308 27 q 324 19 319 20 q 332 23 329 19 q 342 34 338 27 q 349 47 346 40 q 362 76 356 60 q 372 106 367 91 q 381 136 377 121 q 397 194 390 166 q 409 251 403 223 q 430 357 421 307 q 446 453 438 407 q 470 616 460 544 q 487 744 479 688 z "},"U":{"ha":1451,"x_min":116,"x_max":1614,"o":"m 606 950 q 636 962 622 960 q 654 957 651 964 q 649 939 658 950 q 625 919 641 928 q 617 914 620 915 q 606 908 614 913 q 586 896 599 904 q 549 872 573 888 q 492 825 526 854 q 409 749 457 797 q 359 694 385 724 q 303 627 333 665 q 244 545 274 590 q 186 444 215 500 q 158 380 171 413 q 138 308 146 346 q 132 230 131 271 q 152 151 133 188 q 208 88 171 114 q 293 53 246 65 q 341 44 317 47 q 392 40 366 41 q 418 38 406 38 q 445 38 431 38 q 498 42 471 39 q 560 57 533 48 q 613 77 588 67 q 656 99 636 88 q 692 121 675 110 q 754 166 727 144 q 810 216 781 189 q 869 280 838 244 q 937 369 899 315 q 956 397 947 383 q 975 428 965 412 q 984 444 980 436 q 994 462 989 453 q 1004 480 1000 472 q 1009 490 1007 485 l 1012 494 l 1013 497 l 1013 498 q 1014 497 1016 497 q 1012 498 1013 498 q 1015 498 1011 499 q 1032 492 1018 497 l 1032 492 l 1032 491 q 1020 397 1025 447 q 1017 288 1016 347 q 1028 174 1018 226 q 1041 124 1033 148 q 1063 81 1049 101 q 1094 50 1076 61 q 1132 37 1112 39 q 1172 38 1152 34 q 1210 50 1192 42 q 1276 83 1247 64 q 1332 122 1306 103 q 1378 160 1357 142 q 1417 195 1399 178 q 1478 254 1453 228 q 1519 297 1503 279 q 1548 328 1535 315 q 1565 345 1561 342 q 1590 365 1577 359 q 1608 366 1603 372 q 1609 347 1614 360 q 1592 320 1605 334 q 1578 306 1588 315 q 1558 286 1569 297 q 1527 256 1546 274 q 1476 209 1508 238 q 1440 177 1460 194 q 1396 140 1420 160 q 1341 98 1372 120 q 1273 55 1311 76 q 1231 35 1253 44 q 1184 20 1210 26 q 1158 16 1172 17 q 1130 17 1144 15 q 1076 40 1101 21 q 1039 88 1052 59 q 1017 149 1025 117 q 1007 215 1010 181 q 1003 287 1003 250 q 1005 353 1003 322 q 1010 414 1007 385 q 1013 442 1011 428 q 1017 470 1015 456 q 1018 477 1017 474 q 1019 483 1018 480 l 1020 490 l 1020 493 l 1021 494 q 1025 493 1026 492 q 1024 492 1023 493 l 1024 492 l 1023 491 q 1017 479 1020 485 q 1011 468 1015 474 q 964 387 987 423 q 918 321 940 351 q 838 220 874 260 q 767 149 801 180 q 698 94 733 119 q 617 48 663 69 q 566 29 593 38 q 506 15 539 20 q 435 10 473 9 q 395 12 415 10 q 353 16 375 13 q 248 43 294 24 q 171 94 201 63 q 145 126 156 109 q 129 160 135 142 q 121 194 124 177 q 117 226 118 210 q 121 287 116 258 q 134 344 126 316 q 179 458 149 399 q 229 548 203 508 q 278 622 254 588 q 326 683 303 655 q 369 734 349 710 q 441 810 410 780 q 494 862 472 841 q 532 895 517 882 q 560 917 548 908 q 582 934 572 927 q 606 950 592 942 z "},"V":{"ha":1160,"x_min":105,"x_max":1326,"o":"m 1283 1056 q 1310 1059 1298 1061 q 1324 1049 1322 1057 q 1317 1034 1326 1042 q 1295 1021 1309 1026 q 1286 1018 1290 1019 q 1270 1013 1282 1017 q 1235 999 1258 1009 q 1168 965 1212 990 q 1062 895 1126 941 q 911 772 998 850 q 714 576 824 694 q 469 289 603 458 q 405 206 436 247 q 345 125 374 165 q 291 47 317 85 q 242 -30 265 8 q 240 -35 241 -33 q 238 -40 239 -37 l 235 -44 q 235 -45 235 -44 l 235 -46 q 234 -46 233 -46 q 235 -47 235 -47 q 234 -47 236 -47 q 224 -47 232 -47 l 224 -45 q 220 -35 222 -40 q 217 -24 218 -30 q 210 -4 213 -14 q 203 17 207 6 q 193 57 198 37 q 184 97 188 76 q 170 172 176 135 q 158 244 164 209 q 131 494 139 385 q 118 686 123 604 q 111 825 114 768 q 108 920 109 883 q 106 976 106 957 q 105 1001 105 995 q 111 1028 106 1017 q 124 1038 116 1038 q 137 1027 131 1038 q 142 1001 142 1017 q 142 985 142 995 q 140 951 141 975 q 139 885 139 928 q 138 772 138 843 q 143 595 139 701 q 160 342 147 490 q 169 265 164 304 q 181 182 174 225 q 197 93 188 138 q 220 0 206 48 q 224 -12 222 -6 q 228 -24 226 -18 q 230 -30 229 -28 q 232 -36 231 -33 l 234 -42 l 234 -43 q 236 -43 238 -43 q 232 -43 235 -43 q 226 -44 229 -44 q 224 -44 224 -44 q 225 -42 225 -43 q 226 -38 226 -39 q 239 -15 232 -26 q 253 8 246 -3 q 284 53 268 31 q 316 100 299 76 q 385 195 349 147 q 462 294 422 244 q 689 564 586 452 q 872 753 791 676 q 1012 880 952 831 q 1113 958 1072 928 q 1182 1003 1156 988 q 1225 1028 1208 1019 q 1255 1043 1242 1038 q 1283 1056 1267 1049 z "},"W":{"ha":1517,"x_min":103,"x_max":1681,"o":"m 1675 365 q 1669 339 1681 359 q 1635 294 1658 319 q 1617 275 1628 287 q 1594 253 1605 264 q 1564 225 1583 244 q 1506 172 1544 206 q 1464 134 1488 155 q 1407 88 1440 113 q 1373 63 1391 76 q 1332 37 1354 50 q 1285 13 1310 25 q 1229 -4 1260 1 q 1196 -6 1213 -7 q 1163 4 1179 -4 q 1135 27 1147 13 q 1115 58 1123 41 q 1096 130 1100 92 q 1092 210 1092 168 q 1104 366 1092 283 q 1101 357 1103 361 q 1098 348 1099 353 q 1070 274 1085 311 q 1036 200 1055 238 q 994 126 1017 163 q 938 58 971 90 q 902 28 922 42 q 859 5 883 14 q 809 -4 836 -3 q 785 -3 797 -4 q 760 -1 773 -3 q 712 14 736 3 q 668 44 688 25 q 636 86 648 63 q 616 135 624 110 q 605 197 607 167 q 603 255 603 227 q 607 308 605 283 q 613 357 610 333 q 625 420 619 390 q 639 477 631 450 q 580 360 612 421 q 507 233 547 299 q 450 147 479 188 q 387 70 421 106 q 351 38 370 53 q 310 12 332 22 q 286 3 299 6 q 261 1 274 1 q 215 8 237 1 q 173 26 192 13 q 140 58 153 40 q 119 98 126 77 q 109 138 113 118 q 106 218 103 180 q 115 291 109 256 q 148 423 128 363 q 189 535 168 483 q 231 633 210 588 q 271 716 251 677 q 344 845 311 793 q 401 933 377 898 q 442 986 426 967 q 465 1012 458 1004 q 488 1033 476 1024 q 510 1047 500 1042 q 527 1053 520 1052 q 537 1050 535 1053 q 536 1041 539 1047 q 526 1026 533 1035 q 511 1009 520 1019 q 492 987 502 999 q 475 969 485 979 q 449 938 466 958 q 405 880 432 917 q 340 781 378 844 q 300 710 322 749 q 255 623 278 671 q 207 516 232 574 q 161 386 183 458 q 141 312 150 351 q 128 230 132 273 q 125 187 126 209 q 128 142 125 165 q 140 98 132 120 q 163 58 147 76 q 202 31 179 40 q 250 19 224 21 q 301 26 276 15 q 347 54 325 37 q 388 93 368 72 q 425 138 407 115 q 461 187 444 162 q 495 240 478 213 q 586 399 547 323 q 658 545 625 476 q 696 660 676 606 q 740 772 716 714 q 768 838 753 803 q 801 910 783 872 q 805 920 803 916 q 810 931 808 925 q 815 940 813 935 l 817 946 l 818 947 q 837 939 833 940 q 840 937 841 937 q 837 938 839 938 q 838 938 835 939 l 838 936 l 837 933 q 828 912 833 923 q 819 890 824 901 q 801 843 810 867 q 780 792 791 819 q 746 711 764 753 q 706 622 728 669 q 687 558 696 589 q 670 494 678 526 q 653 419 660 457 q 640 339 645 381 q 634 295 636 317 q 633 249 633 273 q 634 199 632 224 q 642 148 636 174 q 663 97 649 122 q 701 53 676 72 q 758 28 724 35 q 827 24 792 20 q 871 38 851 27 q 908 63 891 49 q 940 94 926 78 q 967 127 954 110 q 1009 194 991 161 q 1043 260 1028 228 q 1090 375 1071 322 q 1124 478 1108 429 q 1134 532 1128 505 q 1147 586 1140 558 q 1161 644 1153 615 q 1176 705 1168 674 l 1181 720 l 1183 728 l 1183 730 l 1183 731 l 1184 731 q 1185 732 1186 731 q 1183 732 1183 732 q 1185 731 1182 732 q 1197 728 1188 731 l 1197 728 l 1197 724 q 1193 709 1195 717 q 1190 692 1192 701 q 1183 660 1187 676 q 1176 628 1180 644 q 1157 545 1167 587 q 1134 460 1147 504 q 1116 347 1123 401 q 1108 243 1110 293 q 1109 175 1107 208 q 1117 113 1110 142 q 1135 60 1123 84 q 1168 24 1148 35 q 1211 14 1189 12 q 1254 24 1234 17 q 1292 41 1274 31 q 1326 60 1310 50 q 1381 99 1357 80 q 1424 135 1405 119 q 1488 194 1463 169 q 1530 237 1512 219 q 1569 278 1548 256 q 1609 320 1591 301 q 1631 341 1620 332 q 1650 357 1641 351 q 1666 365 1659 363 q 1675 365 1672 367 z "},"X":{"ha":1268,"x_min":-124,"x_max":1425,"o":"m 1419 359 q 1415 336 1425 353 q 1385 300 1406 319 q 1375 290 1379 294 q 1360 278 1370 286 q 1334 256 1351 271 q 1283 215 1317 241 q 1245 184 1267 201 q 1196 149 1224 168 q 1133 107 1167 128 q 1053 63 1098 85 q 1005 41 1030 51 q 950 24 979 31 q 889 11 921 15 q 822 8 857 6 q 750 19 786 9 q 677 48 713 28 q 607 94 641 67 q 542 155 574 122 q 453 263 497 204 q 367 390 410 322 q 255 284 306 331 q 163 199 204 238 q 70 116 109 151 q 6 59 32 82 q -36 22 -21 35 q -58 3 -51 9 q -97 -22 -78 -14 q -119 -24 -115 -30 q -113 -2 -124 -19 q -81 32 -102 14 q -65 45 -74 38 q -38 67 -56 52 q 9 106 -20 81 q 86 171 39 131 q 199 268 133 210 q 354 409 265 326 q 317 467 336 438 q 279 527 299 496 q 207 639 244 582 q 126 754 170 696 q 31 867 83 812 q -87 969 -22 923 q -98 975 -93 972 q -108 982 -103 978 q -111 984 -110 983 q -113 985 -112 984 l -116 987 l -117 988 q -104 1011 -108 1003 q -99 1021 -100 1019 q -98 1022 -97 1024 q -100 1019 -99 1021 q -101 1017 -101 1017 q -99 1019 -101 1016 l -99 1019 q -93 1017 -96 1018 q -88 1014 -91 1015 q -67 1003 -78 1008 q -47 994 -57 999 q 31 967 -6 978 q 100 951 67 957 q 162 943 132 946 q 274 941 222 938 q 381 953 326 944 q 504 982 438 963 q 658 1036 571 1001 q 704 1055 681 1045 q 753 1076 727 1065 q 805 1099 778 1087 q 864 1122 833 1111 q 880 1127 872 1125 q 898 1131 888 1129 q 908 1131 903 1131 q 919 1128 913 1131 q 930 1119 926 1126 q 935 1107 934 1113 q 934 1086 936 1095 q 928 1068 931 1077 q 922 1050 925 1058 q 915 1033 918 1042 q 877 963 899 997 q 831 893 856 928 q 726 761 778 822 q 623 647 673 701 q 527 547 573 594 q 438 458 481 500 q 377 400 406 428 q 413 343 395 371 q 450 290 431 316 q 501 222 474 256 q 562 153 528 188 q 618 103 590 126 q 676 65 647 81 q 736 39 706 49 q 795 26 766 30 q 903 31 853 19 q 994 58 953 42 q 1067 93 1035 75 q 1125 129 1099 112 q 1172 162 1151 147 q 1210 191 1193 177 q 1265 238 1244 219 q 1302 272 1286 257 q 1331 299 1318 287 q 1360 327 1344 311 q 1397 355 1380 345 q 1419 359 1414 365 m 250 610 q 307 515 281 558 q 357 433 333 472 q 361 426 359 429 q 365 419 363 423 q 461 510 410 461 q 569 617 512 559 q 691 746 628 677 q 819 901 754 815 q 873 980 849 941 q 913 1059 897 1019 q 919 1079 916 1069 q 923 1099 922 1089 q 922 1108 924 1103 q 917 1115 921 1113 q 909 1118 914 1118 q 900 1119 905 1119 q 863 1109 881 1116 q 828 1096 844 1103 q 703 1041 760 1067 q 595 998 646 1016 q 500 966 544 979 q 417 943 456 952 q 342 928 377 934 q 273 920 306 923 q 208 917 240 917 q 144 919 176 917 q 79 928 112 922 q 11 944 47 933 q -5 948 3 946 q -20 953 -12 951 q 87 844 33 909 q 180 719 141 778 q 250 610 218 660 z "},"Y":{"ha":870,"x_min":-39,"x_max":1040,"o":"m 1036 365 q 1030 345 1040 358 q 999 319 1019 331 q 988 313 992 315 q 974 306 983 310 q 948 292 965 301 q 898 266 930 283 q 815 224 865 249 q 686 164 764 199 q 601 127 647 147 q 501 85 556 107 q 385 35 447 61 q 253 -26 323 9 q 198 -55 226 -40 q 141 -90 169 -71 q 131 -107 136 -98 q 121 -124 126 -115 q 86 -183 103 -155 q 52 -237 69 -212 q 21 -286 36 -263 q -12 -329 6 -309 q -14 -331 -14 -331 q -16 -333 -15 -332 l -16 -334 l -16 -335 q -17 -334 -16 -335 q -20 -336 -19 -335 q -23 -338 -22 -337 q -26 -340 -24 -340 l -26 -341 q -25 -342 -24 -342 q -29 -340 -26 -341 q -33 -337 -31 -338 q -35 -335 -35 -335 l -35 -335 l -35 -334 l -35 -333 l -35 -326 l -35 -323 q -39 -321 -38 -322 q -35 -323 -39 -320 q -34 -312 -35 -317 q -33 -302 -34 -308 q -29 -279 -32 -290 q -23 -256 -26 -267 q -5 -217 -15 -235 q 17 -183 6 -199 q 59 -137 38 -157 q 105 -99 81 -117 q 145 -27 125 -64 q 186 49 165 10 q 259 186 228 128 q 315 289 290 243 q 362 374 340 335 q 407 457 383 414 q 458 553 430 501 q 523 678 485 605 q 551 733 537 704 q 583 796 566 763 q 575 787 579 792 q 567 778 571 783 q 521 729 544 754 q 472 678 498 704 q 369 577 419 624 q 268 492 319 530 q 243 474 256 483 q 217 458 230 465 q 189 444 203 450 q 158 435 175 438 q 141 435 150 434 q 123 442 132 437 q 110 455 115 448 q 102 470 105 463 q 95 499 97 485 q 94 526 94 513 q 96 576 94 552 q 102 624 99 601 q 110 667 106 646 q 118 708 114 688 q 135 782 126 748 q 151 847 144 817 q 181 948 168 906 q 202 1020 193 991 q 216 1065 210 1049 q 224 1088 222 1081 q 241 1124 231 1110 q 259 1135 251 1138 q 266 1115 267 1132 q 258 1076 266 1098 q 252 1059 256 1069 q 242 1032 249 1050 q 225 982 235 1013 q 198 901 214 951 q 181 844 190 875 q 161 776 172 814 q 141 695 151 739 q 122 598 130 651 q 118 571 119 585 q 116 544 117 558 q 115 515 115 530 q 119 486 115 500 q 123 472 120 478 q 131 462 126 466 q 156 455 139 453 q 186 463 171 456 q 217 478 201 470 q 277 520 247 497 q 337 569 306 543 q 399 625 368 596 q 462 688 429 655 q 519 745 492 717 q 571 801 546 774 q 588 819 579 810 q 603 837 596 828 q 606 842 605 840 q 608 847 607 844 l 615 859 l 616 862 l 617 863 q 617 863 615 864 q 623 859 619 861 l 624 860 q 624 860 625 859 q 628 858 622 861 l 627 858 l 627 857 q 636 851 633 853 q 633 852 639 849 l 632 851 l 627 846 q 620 838 624 842 q 613 830 617 833 l 603 809 q 550 705 574 753 q 506 616 526 658 q 467 540 485 575 q 435 473 450 504 q 406 415 419 442 q 380 363 392 388 q 332 265 355 312 q 280 163 308 218 q 226 61 256 117 q 155 -66 196 6 q 204 -37 178 -51 q 258 -8 229 -23 q 373 45 319 22 q 473 90 426 69 q 560 128 520 110 q 635 163 600 147 q 751 219 704 194 q 831 261 798 243 q 884 292 863 279 q 921 314 906 304 q 950 332 937 324 q 979 350 963 340 q 1016 367 999 363 q 1036 365 1032 371 m -3 -285 q 28 -235 13 -260 q 58 -182 43 -209 q 73 -156 66 -169 q 88 -130 81 -143 q 58 -158 72 -143 q 31 -190 44 -172 q 5 -233 16 -210 q -12 -281 -6 -256 q -14 -291 -13 -286 q -15 -301 -14 -296 q -9 -293 -12 -297 q -3 -285 -6 -289 z "},"Z":{"ha":1017,"x_min":-154,"x_max":1177,"o":"m 1172 360 q 1171 339 1177 355 q 1149 308 1165 324 q 1141 299 1144 302 q 1130 290 1138 297 q 1114 274 1126 286 q 1084 246 1101 262 q 1050 215 1067 231 q 1019 188 1032 199 q 988 162 1006 176 q 949 133 971 149 q 898 99 926 117 q 833 63 869 81 q 752 27 797 44 q 652 -5 707 9 q 533 -25 598 -19 q 394 -27 469 -32 q 51 37 241 -19 q 27 19 40 27 q 8 7 17 13 q -14 -4 -2 1 q -39 -13 -26 -9 q -66 -16 -51 -17 q -85 -12 -76 -15 q -102 -3 -94 -9 q -124 24 -117 8 q -131 39 -128 32 q -136 54 -134 47 q -140 70 -138 62 q -138 88 -142 78 q -131 97 -135 94 q -122 101 -126 99 q -114 102 -118 102 q -106 101 -110 101 q -92 99 -99 101 q -78 97 -85 98 q -53 89 -65 93 q -30 82 -42 85 q 3 71 -12 76 q 35 60 19 65 q 52 75 44 67 q 70 90 61 82 q 126 144 101 119 q 172 194 151 170 q 210 238 192 217 q 244 278 228 258 q 302 349 276 315 q 358 419 329 382 q 420 501 386 456 q 498 609 453 546 q 600 757 542 672 q 735 959 658 842 q 748 977 742 968 q 760 994 753 985 q 702 970 731 981 q 647 951 674 960 q 538 920 590 933 q 438 897 486 908 q 269 861 344 875 q 138 836 195 847 q 38 818 80 826 q -32 807 -3 811 q -76 799 -60 802 q -98 796 -92 797 q -135 796 -119 792 q -153 807 -151 799 q -140 822 -154 815 q -103 833 -125 829 q -86 834 -96 833 q -58 838 -76 835 q -9 844 -40 840 q 72 855 22 848 q 193 874 122 863 q 365 903 265 885 q 473 925 415 913 q 595 956 530 938 q 663 975 628 965 q 732 999 697 985 q 750 1007 741 1003 q 767 1015 758 1010 q 773 1018 770 1017 q 778 1021 776 1019 q 785 1030 781 1026 l 788 1033 l 788 1035 l 793 1030 l 794 1031 l 794 1031 q 795 1031 795 1030 q 794 1032 794 1031 q 795 1031 794 1032 q 800 1025 796 1029 l 799 1024 q 806 1016 803 1018 q 803 1019 809 1013 l 803 1018 l 801 1017 q 797 1015 799 1015 q 794 1013 795 1014 q 788 1009 790 1010 q 767 981 778 995 q 747 951 757 966 q 590 722 656 818 q 474 553 524 625 q 387 429 424 481 q 318 334 350 377 q 256 251 286 291 q 186 167 225 212 q 144 122 166 145 q 92 72 122 98 q 81 60 87 66 q 67 49 74 55 q 130 31 99 39 q 198 13 165 21 q 264 0 231 6 q 332 -10 297 -6 q 406 -15 367 -14 q 524 -11 469 -17 q 626 6 579 -6 q 712 31 674 17 q 783 60 751 45 q 889 120 848 92 q 957 172 930 149 q 1000 210 983 194 q 1029 238 1017 226 q 1048 258 1035 244 q 1076 285 1061 271 q 1103 313 1090 300 q 1123 333 1117 326 q 1152 357 1138 349 q 1172 360 1166 365 m -30 19 q 18 47 -7 28 q -27 61 -4 54 q -73 74 -49 68 q -86 76 -79 75 q -99 79 -92 78 q -110 80 -104 80 q -117 78 -115 80 q -117 70 -118 77 q -113 58 -115 65 q -108 46 -111 52 q -77 13 -96 18 q -55 11 -67 9 q -30 19 -42 13 z "},"!":{"ha":351,"x_min":66,"x_max":396,"o":"m 161 -135 q 135 -134 153 -142 q 99 -108 117 -126 q 74 -72 81 -90 q 74 -46 66 -53 q 99 -47 81 -39 q 135 -72 117 -54 q 161 -109 153 -90 q 161 -135 169 -127 m 140 222 q 136 213 138 210 q 133 229 134 215 q 132 267 132 243 q 135 324 133 292 q 141 397 137 357 q 153 480 146 436 q 169 572 160 524 q 190 667 178 619 q 222 797 204 733 q 259 921 240 862 q 295 1033 277 981 q 328 1124 313 1085 q 355 1188 343 1163 q 372 1217 367 1213 q 391 1220 385 1229 q 392 1190 396 1212 q 375 1138 388 1169 q 340 1076 363 1108 q 304 1005 324 1053 q 263 893 284 957 q 222 756 242 830 q 185 608 201 682 q 159 464 169 533 q 144 340 149 394 q 141 292 142 313 q 140 254 140 270 q 140 222 139 236 z "},"[":{"ha":536,"x_min":-19,"x_max":818,"o":"m 473 -100 q 491 -103 496 -101 q 460 -107 487 -105 q 385 -111 433 -108 q 275 -115 338 -113 q 208 -118 243 -117 q 134 -120 172 -119 q 94 -121 115 -121 q 54 -122 74 -122 q 33 -123 44 -122 q 13 -124 23 -123 l 1 -124 l 1 -124 q -1 -122 -3 -119 q 2 -126 1 -125 q -1 -122 3 -127 q -19 -97 -4 -117 l -19 -95 l -17 -92 l -16 -87 q -12 -77 -14 -82 q -8 -67 -10 -73 q 53 103 21 15 q 118 285 85 192 q 185 469 151 377 q 252 651 219 560 q 285 739 269 695 q 317 824 301 782 q 332 865 324 844 q 347 905 340 885 l 362 944 q 366 954 364 949 q 369 963 367 958 l 371 968 l 372 970 q 376 973 371 969 q 387 981 381 976 q 395 987 392 985 q 392 984 398 989 l 392 984 l 394 984 l 403 984 q 551 985 483 985 q 670 984 619 985 q 753 982 721 983 q 796 978 786 980 q 817 967 817 972 q 803 957 818 961 q 759 949 788 952 q 692 946 731 947 q 608 948 653 945 q 513 956 562 950 q 483 960 499 958 q 447 963 467 961 q 427 964 438 963 q 406 965 417 964 l 394 965 l 393 965 l 392 965 l 392 965 q 391 965 393 966 q 390 964 390 964 l 389 961 l 387 956 q 382 944 384 950 q 377 933 380 939 q 336 833 358 888 q 290 717 314 778 q 241 589 266 656 q 190 453 216 522 q 139 313 165 384 q 87 172 113 242 q 37 34 61 101 q -10 -98 13 -34 l -10 -99 q -10 -100 -8 -102 q -11 -98 -11 -99 q -10 -101 -12 -98 q 0 -115 -8 -103 l 1 -115 l 3 -115 l 7 -115 l 15 -115 q 24 -114 19 -114 q 32 -114 28 -114 q 49 -113 40 -113 q 65 -113 57 -113 q 96 -112 81 -112 q 128 -111 112 -112 q 187 -109 158 -110 q 242 -108 215 -109 q 337 -105 294 -106 q 410 -102 379 -103 q 473 -100 445 -101 z "},"]":{"ha":409,"x_min":-446,"x_max":391,"o":"m -101 946 q -119 949 -124 947 q -87 952 -115 951 q -13 957 -60 954 q 97 961 34 959 q 165 964 129 963 q 238 966 200 965 q 278 967 258 967 q 318 968 298 967 q 339 968 328 968 q 360 969 349 969 l 371 969 l 372 969 q 373 968 374 965 q 370 972 371 971 q 373 968 369 973 q 391 942 376 963 l 391 941 l 390 938 l 388 933 q 384 923 386 928 q 381 913 383 919 q 319 742 351 831 q 254 561 288 654 q 187 377 221 469 q 120 195 153 285 q 88 107 103 151 q 56 22 72 64 q 40 -19 48 1 q 25 -59 33 -39 l 10 -99 q 7 -108 8 -103 q 3 -117 5 -112 l 1 -122 l 0 -124 q -4 -127 1 -124 q -15 -135 -9 -131 q -23 -141 -20 -139 q -19 -138 -26 -143 l -20 -138 l -22 -138 l -31 -138 q -179 -139 -111 -139 q -298 -138 -247 -139 q -381 -136 -349 -137 q -424 -132 -414 -134 q -445 -121 -444 -126 q -431 -111 -446 -115 q -387 -103 -416 -106 q -320 -100 -358 -101 q -235 -102 -281 -99 q -140 -110 -190 -104 q -111 -114 -127 -112 q -75 -117 -94 -115 q -55 -118 -65 -117 q -33 -119 -44 -118 l -22 -119 l -21 -119 l -20 -119 l -19 -119 q -19 -119 -21 -120 q -18 -118 -17 -118 l -17 -115 l -15 -110 q -10 -99 -12 -104 q -5 -87 -8 -93 q 36 13 15 -42 q 82 129 58 67 q 131 257 106 190 q 182 393 156 324 q 234 533 208 462 q 285 674 260 604 q 335 812 311 744 q 382 944 360 880 l 383 945 q 382 946 381 948 q 384 944 383 944 q 382 947 384 944 q 372 960 381 949 l 372 960 l 369 960 l 365 960 l 357 960 q 349 960 353 960 q 340 960 344 960 q 324 959 332 959 q 308 959 315 959 q 276 958 292 958 q 244 957 260 958 q 185 955 214 956 q 131 953 157 955 q 35 951 78 952 q -37 948 -7 949 q -101 946 -73 947 z "},"~":{"ha":578,"x_min":-2,"x_max":556,"o":"m 549 250 q 556 249 556 251 q 549 242 556 247 q 529 231 542 238 q 499 215 517 224 q 460 199 481 208 q 412 183 438 191 q 357 172 386 176 q 296 171 328 168 q 264 176 280 172 q 232 188 248 180 q 203 206 215 195 q 200 209 201 208 q 197 212 198 210 q 195 214 196 213 q 194 215 194 214 l 192 217 q 187 221 190 219 q 183 225 185 223 q 145 242 165 240 q 108 236 126 244 q 75 217 90 228 q 49 197 60 206 q 30 181 38 187 q 19 174 23 176 q 2 179 7 172 q 3 200 -2 186 q 25 227 9 213 q 66 246 41 241 q 86 251 75 247 q 113 256 98 254 q 142 257 126 259 q 174 246 158 255 q 202 222 190 235 q 240 194 218 205 q 286 181 263 185 q 333 179 310 178 q 419 195 379 183 q 488 219 458 207 q 533 241 516 232 q 549 250 542 246 z "},"":{"ha":578,"x_min":7,"x_max":565,"o":"m 558 830 q 565 829 565 831 q 558 822 565 827 q 538 810 551 817 q 508 795 526 803 q 469 779 490 788 q 421 763 447 771 q 366 752 395 756 q 305 751 337 748 q 273 756 289 752 q 241 767 257 760 q 213 786 224 775 q 209 789 210 788 q 206 792 207 790 q 204 793 205 793 q 203 794 203 794 l 201 797 q 196 801 199 799 q 192 805 194 803 q 154 822 174 819 q 117 816 135 824 q 84 797 99 808 q 58 776 69 786 q 39 761 47 767 q 28 754 32 756 q 11 759 16 751 q 13 780 7 766 q 34 807 18 792 q 75 826 50 821 q 95 831 84 827 q 122 836 107 834 q 151 837 135 839 q 183 826 167 835 q 211 802 199 815 q 249 774 227 785 q 295 761 272 765 q 342 759 319 758 q 428 775 388 763 q 497 799 467 787 q 542 821 525 812 q 558 830 551 826 z "},"@":{"ha":1034,"x_min":48,"x_max":828,"o":"m 603 -71 q 620 -55 615 -60 q 624 -53 625 -49 q 615 -65 622 -56 q 592 -88 608 -74 q 555 -118 578 -102 q 499 -147 531 -133 q 427 -171 467 -161 q 339 -183 387 -181 q 290 -184 315 -185 q 239 -181 265 -184 q 185 -168 213 -176 q 132 -144 158 -160 q 85 -102 106 -128 q 56 -43 65 -76 q 50 23 48 -10 q 60 88 52 56 q 111 211 77 153 q 190 324 145 269 q 290 423 235 376 q 409 504 344 469 q 476 534 441 521 q 548 554 511 547 q 623 560 585 560 q 699 549 661 559 q 736 533 718 543 q 769 510 753 524 q 813 442 799 481 q 827 367 827 405 q 822 294 828 329 q 805 224 816 258 q 778 159 794 190 q 760 128 769 143 q 741 100 751 114 q 719 73 731 86 q 692 48 707 60 q 676 38 684 42 q 657 30 667 33 q 635 26 645 26 q 626 26 631 26 q 617 27 622 26 q 582 35 599 29 q 549 53 564 41 q 523 80 533 65 q 508 111 513 95 q 497 176 497 143 l 497 178 q 530 163 523 166 q 534 161 536 160 q 529 163 533 161 q 531 162 526 165 l 531 161 l 528 158 q 522 154 524 156 q 510 145 515 149 q 499 136 505 140 q 488 128 493 132 q 464 112 476 119 q 441 97 453 104 q 393 72 417 83 q 342 55 369 60 q 314 52 328 52 q 285 58 299 52 q 261 74 271 63 q 245 97 251 85 q 238 122 240 109 q 238 147 235 135 q 244 170 239 160 q 256 189 250 181 q 285 216 270 206 q 313 234 299 226 q 340 247 327 242 q 364 256 352 252 q 401 267 386 264 q 424 272 416 271 q 453 272 447 274 q 453 263 460 269 q 428 249 447 258 q 383 228 410 241 q 354 215 369 222 q 324 198 340 208 q 296 176 310 188 q 277 149 283 163 q 275 134 275 142 q 278 117 274 126 q 286 102 281 108 q 298 92 290 95 q 316 87 306 88 q 339 88 327 86 q 387 100 363 91 q 469 142 422 112 q 518 177 494 158 l 519 177 l 517 178 l 517 177 l 517 176 l 517 174 l 517 170 l 517 162 q 517 153 517 158 q 518 145 517 149 q 527 110 520 127 q 547 78 533 93 q 578 54 560 63 q 598 47 588 49 q 619 42 608 44 q 630 41 624 42 q 641 42 635 41 q 663 48 653 43 q 700 74 684 58 q 731 108 717 90 q 756 147 744 126 q 778 190 768 167 q 808 283 798 236 q 816 334 814 308 q 815 388 818 360 q 803 440 813 414 q 774 489 793 467 q 730 525 756 511 q 677 544 704 538 q 566 547 622 556 q 458 517 510 539 q 360 465 406 495 q 274 397 315 434 q 135 233 192 323 q 87 141 107 188 q 60 42 67 93 q 59 -8 57 17 q 70 -57 61 -33 q 94 -99 79 -81 q 129 -132 110 -118 q 169 -153 148 -145 q 210 -166 190 -161 q 251 -173 231 -171 q 290 -176 271 -175 q 364 -173 329 -177 q 429 -162 399 -169 q 484 -145 459 -155 q 528 -124 509 -135 q 585 -86 568 -103 q 603 -71 603 -70 z "},"|":{"ha":367,"x_min":60,"x_max":317,"o":"m 67 -167 q 61 -169 60 -188 q 69 -101 62 -150 q 88 21 76 -52 q 115 182 100 94 q 148 364 131 269 q 183 552 165 459 q 218 730 201 645 q 250 882 235 815 q 276 992 265 949 q 293 1043 287 1035 q 311 1051 306 1060 q 316 1016 317 1042 q 305 951 315 990 q 276 870 296 912 q 247 780 263 840 q 213 641 231 719 q 178 472 196 563 q 144 292 160 381 q 67 -167 106 81 z "},"?":{"ha":819,"x_min":-44,"x_max":964,"o":"m 57 -135 q 31 -134 49 -142 q -5 -108 13 -126 q -31 -72 -23 -90 q -31 -46 -38 -53 q -5 -47 -23 -39 q 31 -72 13 -54 q 57 -109 49 -90 q 57 -135 65 -127 m 164 290 q 144 282 141 278 q 174 304 148 286 q 244 352 199 322 q 350 425 290 383 q 483 519 411 467 q 634 634 555 571 q 713 699 674 665 q 792 769 753 732 q 832 806 813 787 q 869 846 851 826 q 903 888 887 866 q 933 931 920 909 q 952 977 947 953 q 949 1017 958 1001 q 918 1044 941 1033 q 870 1059 896 1054 q 817 1066 844 1065 q 762 1068 790 1068 q 707 1068 734 1069 q 653 1065 680 1067 q 547 1051 599 1060 q 448 1028 496 1042 q 356 995 399 1014 q 273 953 312 976 q 141 854 195 908 q 53 753 87 800 q 3 672 19 705 q -21 630 -14 640 q -43 615 -40 601 q -42 640 -44 623 q -29 681 -39 656 q -5 733 -20 705 q 35 792 11 762 q 88 851 58 823 q 155 904 119 880 q 219 945 181 922 q 310 994 258 969 q 426 1038 362 1018 q 566 1067 491 1057 q 642 1076 603 1073 q 722 1079 681 1078 q 805 1077 763 1079 q 886 1065 846 1075 q 924 1052 906 1060 q 953 1030 942 1044 q 964 997 964 1016 q 957 960 964 978 q 939 923 949 941 q 915 888 928 906 q 889 855 903 871 q 860 824 875 839 q 738 707 801 761 q 613 606 674 653 q 493 516 551 558 q 386 440 436 475 q 295 377 336 405 q 225 330 254 349 q 180 301 196 311 q 164 290 164 290 z "},"_":{"ha":760,"x_min":72,"x_max":675,"o":"m 662 -50 q 659 -57 675 -52 q 605 -65 642 -61 q 516 -72 567 -69 q 408 -76 465 -75 q 295 -75 351 -76 q 193 -70 239 -73 q 116 -62 147 -67 q 81 -52 85 -58 q 76 -35 72 -43 q 92 -25 80 -28 q 123 -24 104 -22 q 163 -39 142 -27 q 207 -53 177 -47 q 274 -61 236 -58 q 355 -66 312 -65 q 442 -66 399 -67 q 525 -63 485 -65 q 595 -58 564 -61 q 623 -55 610 -56 q 644 -53 635 -54 q 662 -50 654 -51 z "},"{":{"ha":673,"x_min":33,"x_max":656,"o":"m 410 -49 q 425 -53 428 -51 q 400 -56 422 -54 q 375 -56 390 -56 q 341 -54 360 -56 q 301 -49 323 -53 q 253 -35 278 -44 q 228 -23 241 -30 q 204 -5 216 -16 q 183 20 192 6 q 169 51 174 35 q 162 118 159 84 q 170 186 165 153 q 177 220 174 203 q 183 253 180 237 q 187 287 185 270 q 186 319 188 303 q 179 347 185 335 q 163 369 174 360 q 136 384 151 378 q 105 393 122 390 q 69 398 88 397 q 33 399 51 399 q 33 401 33 396 q 33 415 33 406 q 33 433 33 424 q 33 449 33 443 q 34 455 33 455 q 34 444 34 455 l 35 444 l 38 444 l 42 445 l 51 445 q 60 445 56 445 q 69 446 65 446 q 106 450 88 447 q 174 468 141 456 q 233 500 206 480 q 278 547 259 520 q 314 603 298 574 q 343 663 330 633 q 372 721 356 693 q 406 774 388 749 q 446 816 424 798 q 490 845 467 834 q 533 862 513 856 q 570 869 553 867 q 599 872 587 872 q 621 872 613 872 q 633 869 629 871 q 647 853 656 861 q 633 847 643 850 q 607 840 622 844 q 573 833 592 837 q 532 822 553 828 q 489 803 511 815 q 444 775 466 792 q 409 739 428 763 q 372 681 390 715 q 332 607 353 648 q 280 529 312 567 q 244 495 264 510 q 201 467 224 479 q 151 449 177 456 q 97 439 125 442 q 69 436 83 438 q 41 435 56 435 l 34 435 q 34 433 34 431 q 33 437 33 436 q 33 433 33 438 q 33 408 33 428 l 34 408 l 36 408 l 40 408 l 53 408 q 68 407 61 407 q 82 406 74 406 q 135 394 109 402 q 177 367 161 385 q 195 321 193 348 q 194 268 197 294 q 185 215 190 241 q 176 162 179 188 q 170 109 172 135 q 176 58 169 83 q 199 14 183 33 q 215 -3 206 4 q 233 -15 224 -10 q 270 -32 251 -26 q 304 -41 288 -37 q 335 -46 321 -44 q 361 -48 349 -47 q 382 -49 373 -49 q 397 -49 391 -49 l 410 -49 l 410 -49 z "},"}":{"ha":673,"x_min":30,"x_max":653,"o":"m 276 865 q 261 868 258 867 q 286 871 265 869 q 311 871 297 872 q 345 869 326 871 q 385 864 363 868 q 433 850 408 860 q 458 838 445 845 q 482 820 470 831 q 503 795 494 810 q 517 765 512 781 q 524 697 527 731 q 516 629 522 663 q 509 595 513 613 q 503 562 506 578 q 499 528 501 545 q 500 497 498 512 q 507 468 501 481 q 524 447 513 456 q 550 431 535 437 q 581 422 565 426 q 617 418 599 419 q 653 417 635 417 q 653 414 653 419 q 653 400 653 409 q 653 382 653 392 q 653 366 653 372 q 652 360 653 360 q 652 371 652 360 l 651 371 l 649 371 l 644 370 l 635 370 q 626 370 630 370 q 617 369 622 369 q 581 365 599 369 q 513 348 545 360 q 453 315 480 335 q 408 268 427 295 q 372 212 388 241 q 343 152 356 182 q 314 94 330 122 q 281 42 299 66 q 240 -1 263 17 q 196 -30 219 -19 q 153 -47 174 -41 q 116 -54 133 -52 q 87 -57 99 -56 q 65 -56 74 -57 q 53 -54 57 -56 q 39 -38 30 -46 q 53 -32 43 -35 q 79 -25 64 -28 q 114 -17 94 -22 q 154 -6 133 -13 q 198 12 175 1 q 242 40 220 23 q 277 76 258 52 q 315 134 296 100 q 354 208 333 167 q 406 286 374 249 q 442 320 422 305 q 485 348 462 336 q 535 366 509 360 q 589 376 561 373 q 617 379 603 378 q 645 380 631 380 l 652 380 q 652 382 652 385 q 653 378 653 379 q 653 382 653 377 q 653 408 653 387 l 652 408 l 650 408 l 647 408 l 633 408 q 618 409 625 408 q 604 410 612 409 q 551 422 577 413 q 509 449 525 430 q 491 494 493 467 q 492 547 489 521 q 501 601 496 574 q 510 653 507 627 q 516 706 515 680 q 510 757 517 733 q 488 801 503 783 q 471 818 480 811 q 453 831 463 825 q 416 847 435 842 q 382 856 398 853 q 351 861 365 860 q 325 863 337 863 q 304 864 313 864 q 289 865 295 865 l 276 865 l 276 865 z "},"<":{"ha":544,"x_min":135,"x_max":433,"o":"m 350 105 q 344 101 359 95 q 297 124 328 108 q 262 143 281 133 q 222 166 243 154 q 201 178 212 172 q 178 192 190 185 q 167 199 173 195 q 156 206 161 202 l 144 213 l 138 216 l 135 217 l 135 218 q 135 247 135 238 q 135 259 135 256 q 135 260 135 262 q 135 257 135 259 q 135 254 135 255 q 135 258 135 253 l 137 258 q 231 314 183 286 q 317 362 278 341 q 384 395 357 383 q 419 405 412 407 q 432 393 431 401 q 424 376 433 385 q 399 359 416 367 q 359 351 382 352 q 316 340 342 351 q 256 314 289 330 q 222 296 239 306 q 186 276 204 286 q 168 266 177 271 q 150 256 159 261 l 141 250 l 140 249 q 140 253 140 257 q 140 243 140 250 q 140 230 140 237 q 140 226 140 224 l 140 225 l 142 224 l 147 221 q 156 216 151 218 q 165 210 160 213 q 234 169 201 188 q 293 136 267 151 q 350 105 323 119 z "},">":{"ha":544,"x_min":153,"x_max":451,"o":"m 236 397 q 242 400 227 406 q 290 377 258 394 q 324 358 306 369 q 364 335 343 347 q 385 323 374 329 q 408 310 397 317 q 419 303 413 306 q 431 296 425 299 l 442 289 l 448 285 l 451 284 l 451 283 q 451 255 451 264 q 451 242 451 245 q 451 241 451 240 q 451 244 451 242 q 451 247 451 247 q 451 244 451 248 l 449 243 q 355 188 402 215 q 269 140 308 160 q 202 107 229 119 q 167 97 174 94 q 154 108 155 99 q 162 126 153 117 q 187 142 170 135 q 227 150 204 149 q 270 161 244 151 q 331 188 297 172 q 365 206 347 196 q 400 225 382 215 q 418 235 409 231 q 436 246 427 240 l 445 251 l 447 252 q 447 248 447 244 q 447 258 447 251 q 447 271 447 265 q 447 276 447 278 l 446 276 l 444 278 l 439 281 q 430 286 435 283 q 421 291 426 288 q 352 332 385 313 q 293 365 319 351 q 236 397 263 383 z "},"+":{"ha":619,"x_min":75,"x_max":472,"o":"m 463 231 q 460 225 472 228 q 425 220 449 222 q 367 218 401 219 q 297 216 333 217 q 223 215 260 215 q 156 217 186 215 q 106 221 126 218 q 81 229 85 224 q 77 245 75 238 q 87 257 79 253 q 108 259 95 260 q 135 247 120 257 q 164 234 145 239 q 208 228 183 230 q 262 225 233 226 q 319 226 290 225 q 373 227 347 226 q 419 229 399 228 q 463 231 442 231 m 217 89 q 210 99 210 81 q 213 147 210 116 q 223 215 217 177 q 237 286 229 252 q 254 343 245 319 q 270 369 263 367 q 286 369 279 372 q 296 359 294 365 q 294 343 299 352 q 278 326 290 335 q 261 308 269 321 q 248 277 253 294 q 237 238 242 259 q 229 197 233 217 q 217 89 222 148 z "},"-":{"ha":617,"x_min":85,"x_max":495,"o":"m 486 201 q 484 195 495 198 q 447 190 472 192 q 387 186 422 188 q 314 183 352 184 q 238 183 276 183 q 168 185 199 183 q 116 190 138 187 q 92 199 95 194 q 88 216 85 208 q 99 227 91 224 q 120 229 108 231 q 147 215 133 226 q 177 203 158 208 q 223 195 197 198 q 278 192 249 192 q 337 192 308 192 q 486 201 406 194 z "},"":{"ha":617,"x_min":85,"x_max":495,"o":"m 486 201 q 484 195 495 198 q 447 190 472 192 q 387 186 422 188 q 314 183 352 184 q 238 183 276 183 q 168 185 199 183 q 116 190 138 187 q 92 199 95 194 q 88 216 85 208 q 99 227 91 224 q 120 229 108 231 q 147 215 133 226 q 177 203 158 208 q 223 195 197 198 q 278 192 249 192 q 337 192 308 192 q 486 201 406 194 z "},"":{"ha":617,"x_min":85,"x_max":495,"o":"m 486 201 q 484 195 495 198 q 447 190 472 192 q 387 186 422 188 q 314 183 352 184 q 238 183 276 183 q 168 185 199 183 q 116 190 138 187 q 92 199 95 194 q 88 216 85 208 q 99 227 91 224 q 120 229 108 231 q 147 215 133 226 q 177 203 158 208 q 223 195 197 198 q 278 192 249 192 q 337 192 308 192 q 486 201 406 194 z "},"":{"ha":617,"x_min":85,"x_max":495,"o":"m 486 201 q 484 195 495 198 q 447 190 472 192 q 387 186 422 188 q 314 183 352 184 q 238 183 276 183 q 168 185 199 183 q 116 190 138 187 q 92 199 95 194 q 88 216 85 208 q 99 227 91 224 q 120 229 108 231 q 147 215 133 226 q 177 203 158 208 q 223 195 197 198 q 278 192 249 192 q 337 192 308 192 q 486 201 406 194 z "},"":{"ha":617,"x_min":77,"x_max":487,"o":"m 478 751 q 475 744 487 747 q 439 739 464 742 q 379 735 414 737 q 306 733 344 733 q 229 732 267 732 q 160 734 191 733 q 108 740 129 736 q 83 749 87 743 q 80 765 77 758 q 91 777 83 773 q 112 778 99 781 q 139 765 124 776 q 169 752 149 757 q 215 744 189 747 q 270 741 240 742 q 328 742 299 741 q 478 751 397 743 z "},"":{"ha":535,"x_min":63,"x_max":467,"o":"m 457 814 q 458 807 467 817 q 426 780 449 797 q 367 742 403 763 q 288 707 332 722 q 242 695 266 699 q 194 693 219 691 q 149 703 171 694 q 110 724 126 711 q 85 752 94 738 q 71 778 76 767 q 67 810 63 802 q 75 816 71 815 q 82 817 78 817 q 96 811 90 817 q 112 764 108 799 q 129 733 113 749 q 150 718 138 725 q 178 708 163 711 q 244 706 209 700 q 278 713 262 708 q 310 725 294 718 q 369 754 342 738 q 415 783 396 769 q 446 805 435 797 q 457 814 457 814 z "},",":{"ha":310,"x_min":13,"x_max":181,"o":"m 19 -199 q 15 -194 13 -203 q 27 -167 18 -185 q 51 -125 37 -149 q 79 -74 65 -100 q 107 -20 94 -47 q 129 28 120 6 q 140 62 138 50 q 142 71 142 68 q 144 76 143 74 q 148 85 147 82 q 149 89 148 88 q 150 91 149 90 q 151 92 151 91 q 161 93 155 94 q 172 86 167 92 q 178 60 181 76 q 163 36 175 46 q 143 16 153 29 q 124 -15 134 3 q 101 -53 113 -33 q 78 -94 90 -74 q 55 -133 66 -114 q 37 -167 44 -152 q 19 -199 27 -184 z "},"":{"ha":497,"x_min":79,"x_max":389,"o":"m 109 770 q 102 768 103 765 q 108 778 102 770 q 125 799 113 785 q 158 824 136 812 q 181 834 168 829 q 209 840 194 838 q 272 831 240 843 q 331 799 303 821 q 345 788 339 794 q 358 777 351 783 q 365 770 362 774 q 371 764 367 767 q 378 753 376 758 q 383 742 381 748 q 388 719 387 732 q 384 694 389 707 q 372 673 380 682 q 354 658 363 663 q 317 642 335 646 q 282 635 299 638 q 248 634 265 634 q 216 634 232 633 q 156 642 183 635 q 128 651 141 646 q 103 667 115 657 q 85 689 91 676 q 79 714 79 702 q 82 734 79 726 q 88 747 85 742 q 99 759 94 758 q 110 761 106 763 q 116 756 114 760 q 119 738 119 751 q 118 726 119 732 q 117 714 117 719 q 120 701 117 708 q 130 683 122 693 q 174 656 140 667 q 254 646 208 647 q 302 650 277 646 q 327 656 315 652 q 353 669 340 660 q 374 693 367 678 q 378 709 377 701 q 378 726 379 718 q 374 741 376 734 q 371 748 372 745 q 369 751 370 749 l 368 752 l 368 753 q 367 753 368 753 q 367 755 367 754 q 365 756 367 755 q 357 766 361 762 q 347 775 352 770 q 305 806 327 793 q 259 826 283 819 q 212 831 235 833 q 172 821 190 828 q 143 804 154 813 q 124 787 131 794 q 117 780 120 783 q 113 774 114 776 q 109 770 110 772 z "},"/":{"ha":535,"x_min":-140,"x_max":522,"o":"m -130 -248 q -139 -250 -140 -253 q -129 -239 -138 -248 q -103 -214 -119 -230 q -66 -175 -87 -198 q 32 -63 -24 -129 q 148 78 88 3 q 227 179 188 128 q 305 276 267 229 q 374 365 342 324 q 433 438 407 406 q 476 488 459 469 q 501 510 494 508 q 519 508 517 517 q 512 480 522 499 q 482 436 503 460 q 431 390 461 412 q 375 336 409 374 q 300 250 341 299 q 212 143 258 201 q 119 28 165 85 q 30 -80 73 -28 q -49 -169 -14 -131 q -81 -203 -67 -189 q -107 -228 -96 -218 q -130 -248 -119 -240 z "},"":{"ha":511,"x_min":-78,"x_max":583,"o":"m -68 -149 q -77 -151 -78 -153 q -67 -140 -76 -149 q -41 -115 -58 -131 q -4 -76 -25 -99 q 94 36 38 -30 q 210 178 149 103 q 289 278 249 228 q 366 376 329 328 q 436 464 403 423 q 495 537 469 506 q 538 588 521 568 q 563 610 556 607 q 581 607 578 617 q 574 579 583 598 q 544 535 565 560 q 492 489 523 511 q 437 436 471 473 q 361 349 403 399 q 274 242 320 300 q 181 128 227 185 q 91 19 135 71 q 13 -70 48 -32 q -19 -104 -5 -90 q -45 -128 -34 -119 q -68 -149 -58 -140 z "},"%":{"ha":511,"x_min":-140,"x_max":522,"o":"m 40 458 q 33 455 33 453 q 38 465 33 458 q 55 486 44 473 q 88 511 67 499 q 111 521 99 517 q 140 527 124 526 q 203 519 171 531 q 262 487 233 508 q 276 476 269 481 q 289 465 282 470 q 295 458 292 461 q 301 451 298 455 q 309 440 307 445 q 314 430 311 435 q 318 407 317 419 q 315 382 319 394 q 302 360 310 369 q 285 345 294 351 q 248 330 266 333 q 213 323 230 326 q 179 321 195 322 q 147 322 163 321 q 86 330 114 323 q 58 339 72 333 q 33 354 45 344 q 16 377 22 364 q 10 401 10 390 q 13 421 10 413 q 19 435 15 429 q 29 447 25 446 q 40 449 36 450 q 47 444 44 447 q 50 425 50 438 q 49 413 49 419 q 48 401 48 407 q 50 388 48 396 q 60 370 53 381 q 105 344 70 354 q 185 333 138 335 q 233 338 208 333 q 258 344 245 340 q 283 356 271 348 q 304 381 297 365 q 309 397 308 388 q 308 413 310 406 q 304 428 307 422 q 301 435 303 433 q 299 439 301 436 l 299 440 l 299 440 q 298 441 299 440 q 297 442 297 442 q 296 444 297 442 q 287 453 292 449 q 277 463 283 458 q 235 494 258 481 q 190 514 213 507 q 143 518 165 521 q 102 508 120 516 q 73 491 85 501 q 54 474 62 482 q 48 467 51 470 q 43 462 44 464 q 40 458 40 459 m -130 -248 q -139 -250 -140 -253 q -129 -239 -138 -248 q -103 -214 -119 -230 q -66 -175 -87 -198 q 32 -63 -24 -129 q 148 78 88 3 q 227 179 188 128 q 305 276 267 229 q 374 365 342 324 q 433 438 407 406 q 476 488 459 469 q 501 510 494 508 q 519 508 517 517 q 512 480 522 499 q 482 436 503 460 q 431 390 461 412 q 375 336 409 374 q 300 250 341 299 q 212 143 258 201 q 119 28 165 85 q 30 -80 73 -28 q -49 -169 -14 -131 q -81 -203 -67 -189 q -107 -228 -96 -218 q -130 -248 -119 -240 m 176 -92 q 169 -95 169 -97 q 174 -85 169 -92 q 191 -64 180 -77 q 224 -39 203 -51 q 248 -29 235 -33 q 276 -23 260 -24 q 339 -31 307 -19 q 398 -63 369 -42 q 412 -74 406 -69 q 425 -85 418 -80 q 431 -92 428 -89 q 438 -99 434 -95 q 445 -110 443 -105 q 450 -120 447 -115 q 455 -143 453 -131 q 451 -168 456 -156 q 438 -190 447 -181 q 421 -205 430 -199 q 384 -220 402 -217 q 349 -227 366 -224 q 315 -229 331 -228 q 283 -228 299 -229 q 222 -220 250 -227 q 194 -211 208 -217 q 169 -196 181 -206 q 152 -173 158 -186 q 146 -149 146 -160 q 149 -129 146 -137 q 155 -115 151 -121 q 165 -103 161 -104 q 176 -101 172 -100 q 183 -106 181 -103 q 186 -125 186 -112 q 185 -137 185 -131 q 184 -149 184 -143 q 186 -162 184 -154 q 197 -180 189 -169 q 241 -206 206 -196 q 321 -217 274 -215 q 369 -212 344 -217 q 394 -206 381 -210 q 419 -194 407 -202 q 440 -169 433 -185 q 445 -153 444 -162 q 444 -137 446 -144 q 440 -122 443 -128 q 438 -115 439 -117 q 435 -111 437 -114 l 435 -110 l 435 -110 q 434 -109 435 -110 q 433 -108 433 -108 q 432 -106 433 -108 q 423 -97 428 -101 q 413 -87 419 -92 q 372 -56 394 -69 q 326 -36 349 -43 q 279 -32 301 -29 q 238 -42 256 -34 q 209 -59 221 -49 q 190 -76 198 -68 q 184 -83 187 -80 q 179 -88 181 -86 q 176 -92 176 -91 z "},"":{"ha":613,"x_min":83,"x_max":485,"o":"m 476 828 q 477 822 485 832 q 447 797 469 813 q 393 762 426 781 q 322 728 360 744 q 245 700 284 712 q 173 682 206 688 q 117 675 140 676 q 90 679 95 674 q 84 695 83 687 q 93 708 85 703 q 114 713 101 713 q 144 706 128 713 q 178 701 156 700 q 226 708 199 702 q 283 723 253 713 q 341 746 313 733 q 394 773 369 759 q 438 800 419 788 q 466 821 456 813 q 476 828 476 829 z "},"`":{"ha":484,"x_min":98,"x_max":364,"o":"m 356 665 q 354 659 364 662 q 324 660 344 657 q 278 675 303 664 q 226 701 252 685 q 177 733 201 716 q 136 767 153 751 q 108 796 118 783 q 99 815 98 809 q 108 829 101 824 q 122 833 115 834 q 134 824 128 831 q 142 801 140 816 q 152 777 142 790 q 175 750 161 764 q 208 724 190 737 q 247 700 226 710 q 286 681 267 689 q 321 670 305 674 q 335 667 328 668 q 347 665 342 666 q 356 665 352 665 z "},"":{"ha":567,"x_min":63,"x_max":484,"o":"m 472 815 q 473 807 484 818 q 436 776 463 797 q 372 731 410 756 q 290 682 335 706 q 266 670 278 676 q 242 660 254 665 q 214 651 229 654 q 206 650 210 651 q 197 650 202 649 q 185 651 191 650 q 181 653 183 653 q 176 655 178 653 q 151 672 160 663 q 133 691 141 681 q 118 709 125 701 q 106 727 112 718 q 73 788 83 763 q 65 822 63 814 q 77 833 69 833 q 94 826 85 834 q 108 804 102 819 q 115 767 114 789 q 127 728 115 753 q 141 703 133 716 q 163 678 149 691 q 170 672 167 675 q 178 667 174 669 q 184 664 181 665 q 189 662 186 663 q 195 661 192 661 q 201 660 199 660 q 223 664 213 661 q 242 670 232 667 q 277 686 260 677 q 312 704 294 694 q 374 743 345 724 q 425 778 403 763 q 472 815 451 797 z "},"":{"ha":569,"x_min":72,"x_max":461,"o":"m 459 652 q 452 652 461 640 q 426 690 443 664 q 406 720 417 704 q 383 753 396 735 q 370 769 377 761 q 357 784 364 778 q 354 786 356 785 q 352 788 352 787 q 352 787 351 788 q 354 787 353 787 q 363 789 358 785 q 365 790 364 789 l 366 791 l 363 788 q 356 782 360 785 q 351 777 353 779 q 345 773 348 775 q 302 745 324 758 q 259 722 281 733 q 217 700 238 710 q 178 681 197 690 q 116 656 142 665 q 84 649 91 647 q 73 662 73 653 q 80 678 72 670 q 104 692 88 686 q 141 696 119 697 q 181 702 156 694 q 236 724 206 710 q 267 738 251 731 q 300 756 283 746 q 316 765 308 760 q 333 776 324 770 q 341 781 337 778 q 349 788 345 784 q 353 791 351 789 q 358 795 355 792 q 359 797 359 797 q 358 797 359 797 q 356 796 358 796 q 357 795 354 797 q 363 790 360 793 q 368 785 366 788 q 374 778 371 782 q 385 766 380 772 q 395 752 390 759 q 413 726 405 738 q 428 701 422 713 q 441 681 435 690 q 451 666 447 672 q 459 652 456 658 z "},"":{"ha":247,"x_min":-67,"x_max":209,"o":"m -57 -137 q -52 -131 -67 -131 q -5 -133 -37 -131 q 31 -136 11 -135 q 72 -138 50 -137 q 118 -138 94 -139 q 163 -134 141 -137 q 183 -128 174 -132 q 196 -121 192 -124 q 197 -119 197 -119 q 198 -117 197 -118 l 198 -113 q 197 -99 199 -106 q 174 -81 191 -88 q 138 -71 156 -73 q 120 -69 129 -69 l 119 -68 l 119 -68 q 100 -47 103 -51 q 97 -43 96 -42 q 100 -47 98 -44 q 99 -45 102 -49 l 99 -43 l 100 -38 l 102 -30 q 106 -14 104 -22 q 110 0 108 -6 q 118 20 115 13 q 124 31 121 28 q 141 32 134 37 q 150 16 149 28 q 147 -11 151 5 q 128 -44 142 -28 q 127 -46 127 -45 q 126 -47 126 -47 l 124 -49 q 123 -48 125 -50 q 120 -44 122 -47 q 117 -41 118 -42 q 118 -42 116 -40 l 119 -43 l 119 -43 q 124 -45 122 -44 q 129 -47 126 -46 q 140 -51 134 -49 q 151 -55 145 -53 q 176 -65 163 -59 q 199 -82 189 -72 q 209 -106 208 -92 q 208 -121 209 -114 q 205 -125 206 -123 q 201 -129 204 -127 q 189 -136 197 -133 q 172 -142 181 -140 q 155 -144 164 -143 q 136 -147 146 -145 q 64 -147 99 -149 q 2 -142 29 -145 q -23 -141 -12 -141 q -41 -139 -33 -140 q -57 -137 -50 -138 z "},"":{"ha":286,"x_min":1,"x_max":326,"o":"m 314 -151 q 312 -158 326 -152 q 265 -173 298 -165 q 228 -181 249 -177 q 185 -189 208 -185 q 136 -194 162 -192 q 83 -194 110 -197 q 53 -190 67 -193 q 38 -185 46 -188 q 21 -175 30 -181 q 14 -167 17 -172 q 7 -156 10 -162 q 3 -133 1 -144 q 3 -127 3 -129 q 4 -124 3 -126 q 6 -117 4 -121 q 10 -101 8 -107 q 26 -74 16 -87 q 49 -53 36 -61 q 74 -41 61 -45 q 99 -35 87 -37 q 111 -34 105 -34 q 122 -34 117 -34 q 124 -34 124 -34 q 125 -35 124 -35 l 127 -35 q 131 -32 134 -29 q 123 -39 128 -34 q 111 -48 117 -43 q 107 -51 106 -52 l 107 -50 l 108 -46 q 110 -37 109 -42 q 115 -21 113 -28 q 119 -6 117 -13 q 133 25 126 21 q 150 27 143 31 q 159 10 157 22 q 155 -18 160 -1 q 136 -51 150 -34 q 133 -55 135 -53 l 133 -56 q 133 -56 132 -56 q 134 -55 133 -55 q 133 -56 134 -54 q 126 -61 131 -57 l 125 -60 q 124 -60 124 -60 q 123 -60 124 -60 q 114 -57 119 -58 q 90 -56 103 -53 q 60 -64 76 -57 q 32 -86 44 -70 q 15 -123 21 -101 q 13 -133 14 -127 q 15 -147 13 -140 q 21 -161 17 -155 q 31 -170 26 -167 q 52 -180 42 -177 q 74 -184 63 -183 q 115 -186 95 -187 q 192 -179 156 -185 q 255 -167 228 -173 q 280 -161 269 -163 q 298 -156 290 -158 q 314 -151 307 -153 z "},"'":{"ha":0,"x_min":-54,"x_max":46,"o":"m -42 284 q -52 285 -50 279 q -53 305 -54 292 q -48 336 -51 318 q -42 375 -44 355 q -37 415 -39 395 q -32 451 -35 435 q -23 479 -28 467 q -10 494 -18 490 q 18 503 5 501 q 39 501 32 504 q 42 490 46 498 q 20 471 39 482 q -1 451 7 463 q -15 425 -10 439 q -23 395 -20 411 q -29 364 -26 380 q -34 334 -32 348 q -38 308 -36 319 q -42 284 -41 296 z "},"#":{"ha":533,"x_min":-12,"x_max":445,"o":"m 78 -128 q 72 -131 73 -133 q 74 -122 72 -129 q 80 -102 76 -115 q 88 -72 83 -90 q 104 12 96 -37 q 118 117 112 62 q 130 228 124 172 q 139 328 135 283 q 148 404 144 374 q 158 440 153 434 q 175 445 167 449 q 186 428 183 441 q 186 397 189 416 q 171 358 183 378 q 156 314 163 343 q 144 248 150 285 q 134 168 139 210 q 124 83 129 125 q 112 2 118 40 q 98 -66 106 -37 q 91 -92 94 -81 q 85 -112 88 -104 q 78 -128 81 -121 m 294 -101 q 289 -95 286 -110 q 297 -47 291 -81 q 308 33 302 -14 q 320 133 314 81 q 332 237 326 185 q 344 331 338 289 q 355 402 349 374 q 367 435 361 430 q 383 439 376 442 q 394 423 391 435 q 393 394 397 411 q 376 358 389 376 q 360 317 367 344 q 347 256 353 290 q 335 181 340 221 q 326 101 331 140 q 316 24 320 60 q 306 -40 311 -12 q 302 -66 304 -54 q 298 -85 299 -77 q 294 -101 295 -94 m 437 247 q 435 240 445 243 q 402 234 424 237 q 349 229 380 231 q 283 225 317 226 q 215 223 249 224 q 152 224 181 223 q 106 228 124 225 q 83 237 87 231 q 80 253 78 245 q 89 264 82 260 q 108 266 97 268 q 133 253 119 264 q 160 242 142 246 q 201 235 178 238 q 251 233 224 233 q 303 235 277 233 q 437 247 365 238 m 412 85 q 409 79 422 83 q 371 71 397 75 q 308 63 345 67 q 231 56 272 59 q 151 50 191 52 q 77 48 110 48 q 22 49 44 47 q -5 56 -1 51 q -10 73 -12 65 q 1 85 -8 81 q 23 88 10 89 q 53 76 37 86 q 85 65 64 69 q 134 61 107 62 q 192 63 161 61 q 255 67 224 64 q 412 85 327 73 z "},"(":{"ha":416,"x_min":76,"x_max":501,"o":"m 137 -197 q 138 -208 140 -210 q 128 -192 135 -206 q 112 -151 122 -177 q 94 -87 102 -124 q 81 -3 85 -49 q 78 96 76 43 q 91 203 81 148 q 118 315 101 259 q 159 425 135 372 q 209 529 182 479 q 265 623 236 578 q 323 705 294 667 q 377 773 351 742 q 425 825 403 803 q 461 859 446 847 q 481 874 476 872 q 501 870 501 881 q 487 839 501 859 q 447 792 472 819 q 385 738 421 765 q 357 711 373 728 q 322 673 340 695 q 283 623 303 651 q 242 561 263 594 q 165 414 201 496 q 109 246 129 333 q 93 160 99 202 q 87 77 88 117 q 90 1 86 38 q 99 -66 93 -35 q 111 -121 104 -97 q 124 -162 118 -145 q 133 -187 129 -178 q 137 -197 137 -197 z "},")":{"ha":416,"x_min":-128,"x_max":296,"o":"m 235 865 q 234 876 232 878 q 244 860 237 874 q 260 819 251 845 q 278 755 270 792 q 291 671 287 717 q 294 572 296 625 q 282 465 292 520 q 254 353 272 409 q 214 243 237 297 q 163 139 190 189 q 107 45 136 90 q 49 -37 78 1 q -5 -105 21 -74 q -52 -157 -31 -135 q -89 -191 -74 -178 q -109 -206 -103 -203 q -128 -202 -128 -212 q -115 -171 -128 -191 q -74 -124 -100 -151 q -13 -69 -49 -97 q 16 -44 -1 -60 q 51 -5 32 -27 q 90 45 69 17 q 131 107 110 74 q 207 254 172 172 q 263 422 243 335 q 279 508 274 466 q 285 591 284 551 q 283 667 286 631 q 274 734 279 703 q 261 789 268 765 q 249 830 254 813 q 239 856 243 847 q 235 865 235 865 z "},"&":{"ha":908,"x_min":-43,"x_max":983,"o":"m 860 1 q 911 9 889 9 q 937 -1 933 8 q 934 -12 938 -6 q 921 -24 930 -18 q 900 -36 913 -31 q 873 -46 888 -42 q 857 -50 863 -49 q 837 -53 851 -51 q 797 -60 823 -56 q 765 -65 783 -62 q 722 -69 747 -68 q 695 -71 710 -71 q 665 -69 681 -71 q 631 -64 649 -68 q 593 -47 613 -60 q 563 -9 572 -34 q 557 16 558 3 q 558 42 557 28 q 572 91 562 67 q 596 141 582 116 q 611 166 603 153 q 628 192 619 179 q 632 198 630 195 q 637 204 635 201 q 638 205 638 205 q 638 206 638 206 q 657 193 653 196 q 660 191 661 191 q 657 193 659 192 q 658 192 655 194 l 658 192 l 658 191 l 656 188 l 651 181 q 642 167 647 174 q 633 153 638 160 q 543 40 594 97 q 485 -18 517 10 q 415 -71 454 -46 q 332 -115 378 -96 q 231 -133 285 -133 q 116 -105 174 -133 q 63 -72 88 -91 q 38 -52 50 -62 q 15 -27 26 -41 q -1 5 5 -13 q -3 43 -7 24 q 12 78 1 63 q 36 106 23 94 q 95 149 63 131 q 160 183 126 167 q 303 236 228 213 q 458 280 377 260 q 624 317 539 300 q 802 347 710 333 q 827 350 815 349 q 853 353 840 352 q 859 355 856 354 q 865 355 862 355 l 867 355 q 867 352 867 358 q 869 339 868 347 q 872 320 871 330 q 874 305 874 310 q 875 299 875 299 q 874 309 875 299 l 872 308 l 869 308 l 863 307 q 849 306 856 306 q 836 303 843 305 q 782 297 810 300 q 724 292 754 294 q 592 285 663 288 q 433 290 522 283 q 341 300 390 293 q 240 321 293 307 q 187 338 214 328 q 133 361 160 347 q 80 393 106 375 q 30 435 53 411 q -10 491 7 460 q -35 559 -28 522 q -40 635 -43 597 q -22 713 -36 674 q 62 860 4 791 q 201 985 120 930 q 370 1071 285 1041 q 537 1111 456 1101 q 616 1118 578 1117 q 692 1117 654 1119 q 763 1112 728 1116 q 830 1099 797 1108 q 891 1078 862 1092 q 942 1041 920 1064 q 974 990 965 1019 q 981 961 979 976 q 982 933 983 947 q 974 882 981 906 q 959 837 967 858 q 940 797 950 816 q 921 762 931 778 q 882 702 901 728 q 846 653 863 676 q 815 615 829 631 q 788 584 800 598 q 750 542 764 556 q 730 520 737 527 q 687 489 708 499 q 659 488 666 480 q 657 499 656 492 q 663 515 658 506 q 676 534 668 524 q 695 556 685 545 q 712 571 703 563 q 739 597 721 579 q 785 644 756 615 q 856 728 815 674 q 899 789 876 754 q 940 868 922 823 q 953 917 948 891 q 953 969 959 942 q 930 1020 949 998 q 908 1041 920 1032 q 881 1058 895 1051 q 814 1083 850 1074 q 738 1097 778 1092 q 655 1102 698 1101 q 565 1100 611 1103 q 470 1087 519 1097 q 371 1059 421 1077 q 271 1016 321 1041 q 172 954 221 990 q 30 806 83 888 q -33 640 -24 724 q -30 561 -37 599 q -3 492 -22 524 q 38 438 14 461 q 87 399 61 415 q 138 370 112 382 q 188 349 163 358 q 236 335 213 341 q 283 325 260 329 q 369 314 328 317 q 447 309 409 310 q 519 309 484 308 q 591 313 555 310 q 664 319 627 315 q 742 328 701 323 q 784 333 763 331 q 828 340 806 336 l 851 344 q 857 344 855 344 q 863 345 860 344 l 866 346 l 868 346 q 872 320 871 325 q 873 316 873 315 q 872 319 872 317 q 872 317 871 322 l 871 317 l 865 317 q 840 313 852 315 q 814 310 827 311 q 702 292 762 302 q 571 269 642 283 q 400 232 477 251 q 259 194 324 214 q 198 173 226 184 q 142 151 169 163 q 93 125 116 139 q 49 96 69 112 q 31 78 40 88 q 17 58 23 69 q 10 12 5 35 q 18 -10 13 0 q 32 -30 24 -20 q 48 -47 40 -39 q 66 -62 56 -55 q 105 -89 84 -77 q 149 -110 126 -101 q 199 -122 173 -118 q 251 -124 224 -126 q 334 -103 296 -119 q 405 -66 372 -87 q 464 -20 438 -44 q 514 28 491 4 q 557 77 537 53 q 593 125 576 101 q 610 148 602 137 q 625 171 617 160 q 632 182 628 176 q 638 194 635 188 l 642 199 l 642 201 l 643 201 q 643 201 644 200 q 642 202 642 201 q 643 201 642 202 q 652 195 645 200 l 650 192 q 647 187 649 190 q 643 182 645 185 q 618 142 629 162 q 599 103 608 122 q 587 65 592 83 q 582 31 582 47 q 586 2 581 15 q 601 -19 592 -11 q 622 -30 611 -26 q 644 -35 633 -34 q 686 -37 667 -39 q 721 -33 705 -35 q 750 -28 737 -31 q 775 -22 763 -25 q 817 -11 798 -16 q 860 1 835 -6 z "},"\"":{"ha":188,"x_min":15,"x_max":206,"o":"m 27 284 q 17 285 19 279 q 17 305 15 292 q 22 336 18 318 q 28 375 25 355 q 33 415 31 395 q 38 451 35 435 q 46 479 41 467 q 60 494 51 490 q 88 503 74 501 q 108 501 101 504 q 112 490 115 498 q 90 471 108 482 q 68 451 76 463 q 55 425 60 439 q 46 395 49 411 q 40 364 43 380 q 35 334 38 348 q 31 308 33 319 q 27 284 28 296 m 117 284 q 108 285 110 279 q 107 305 106 292 q 112 336 108 318 q 118 375 115 355 q 123 415 121 395 q 128 451 125 435 q 136 479 131 467 q 150 494 142 490 q 178 503 165 501 q 199 501 192 504 q 202 490 206 498 q 180 471 199 482 q 158 451 167 463 q 145 425 150 439 q 136 395 140 411 q 131 364 133 380 q 126 334 128 348 q 122 308 124 319 q 117 284 119 296 z "},"$":{"ha":1069,"x_min":-390,"x_max":861,"o":"m -387 419 q -390 427 -390 420 q -386 441 -390 433 q -374 458 -382 449 q -355 474 -365 466 q -343 480 -348 478 q -328 488 -338 483 q -299 501 -318 493 q -244 524 -281 510 q -152 554 -208 537 q -8 590 -95 571 q 86 610 35 600 q 197 633 138 619 q 282 652 238 642 q 374 675 326 662 q 371 685 372 682 q 365 720 367 702 q 364 756 363 738 q 370 796 365 776 q 385 835 375 816 q 444 909 405 875 q 538 961 483 942 q 610 978 575 974 q 676 982 644 983 q 738 975 709 981 q 792 956 767 969 q 814 938 803 948 q 827 914 824 928 q 826 887 831 900 q 815 865 822 874 q 784 831 801 844 q 750 806 767 818 q 682 768 715 784 q 613 739 648 753 q 541 712 578 725 q 463 686 505 699 q 433 677 448 681 q 405 669 419 673 q 423 617 413 641 q 443 572 433 593 q 491 484 467 524 q 543 401 515 444 q 574 356 558 379 q 608 308 590 333 q 647 252 626 282 q 692 188 668 223 q 744 113 717 153 q 801 22 772 72 q 829 -32 815 -3 q 851 -94 842 -60 q 859 -128 856 -110 q 858 -166 861 -147 q 847 -204 856 -185 q 823 -237 838 -223 q 789 -261 807 -252 q 753 -277 772 -271 q 717 -288 735 -284 q 681 -295 699 -292 q 610 -302 644 -301 q 543 -304 576 -304 q 418 -300 477 -304 q 306 -285 360 -296 q 255 -273 280 -280 q 208 -256 231 -266 q 165 -234 185 -247 q 129 -204 145 -221 q 104 -167 113 -187 q 91 -127 94 -147 q 89 -88 88 -107 q 95 -53 91 -69 q 117 6 104 -19 q 142 52 130 32 q 167 89 155 73 q 188 117 178 105 q 220 156 208 142 q 238 174 232 169 q 270 200 254 192 q 292 202 287 208 q 289 181 297 197 q 264 149 280 166 q 251 136 258 143 q 230 113 244 128 q 195 72 217 100 q 172 41 185 58 q 147 0 160 24 q 135 -25 141 -12 q 124 -54 129 -38 q 117 -86 119 -69 q 117 -122 115 -103 q 128 -159 119 -140 q 153 -193 137 -177 q 191 -222 169 -209 q 238 -244 213 -234 q 353 -273 290 -263 q 490 -285 417 -282 q 567 -287 528 -287 q 648 -283 606 -287 q 690 -278 669 -281 q 733 -268 712 -274 q 775 -253 754 -262 q 813 -227 796 -243 q 838 -193 829 -212 q 847 -154 846 -174 q 844 -115 848 -134 q 834 -77 840 -95 q 805 -11 822 -42 q 772 49 789 20 q 705 150 738 105 q 644 233 673 194 q 591 305 616 272 q 545 367 567 338 q 506 423 524 397 q 472 474 488 449 q 442 523 456 499 q 415 572 427 547 q 395 615 404 593 q 378 662 385 637 q 192 615 274 633 q 44 582 110 597 q -85 548 -33 564 q -175 519 -138 533 q -235 495 -212 506 q -274 477 -258 485 q -305 460 -292 468 q -334 442 -318 453 q -352 431 -344 436 q -367 423 -360 426 q -379 418 -374 419 q -387 419 -383 417 m 413 826 q 398 789 402 808 q 393 751 393 769 q 395 715 392 733 q 401 682 397 698 q 472 703 435 691 q 558 731 514 715 q 649 768 603 747 q 694 791 671 778 q 739 817 717 803 q 760 833 750 825 q 781 850 771 840 q 798 869 790 859 q 809 891 806 880 q 794 930 815 913 q 772 943 785 938 q 746 952 760 949 q 687 960 717 959 q 626 956 657 960 q 564 943 594 952 q 505 917 534 933 q 452 879 476 901 q 413 826 428 856 m 647 1159 q 654 1162 656 1188 q 644 1068 653 1135 q 621 900 635 1001 q 588 681 606 800 q 547 430 569 561 q 504 172 526 299 q 461 -72 482 44 q 422 -281 440 -189 q 390 -431 403 -372 q 369 -501 376 -490 q 347 -512 354 -525 q 341 -464 339 -500 q 354 -375 342 -428 q 390 -265 366 -322 q 413 -191 401 -237 q 439 -83 426 -144 q 467 50 453 -22 q 495 201 481 122 q 524 364 510 281 q 551 529 538 447 q 647 1159 599 818 z "},"*":{"ha":619,"x_min":85,"x_max":480,"o":"m 429 554 q 431 548 438 557 q 407 521 424 538 q 366 481 390 503 q 314 433 341 458 q 258 384 286 408 q 207 341 231 360 q 166 310 183 322 q 143 301 149 299 q 129 310 133 303 q 129 326 126 317 q 143 341 133 334 q 172 349 153 348 q 202 359 184 350 q 240 384 219 369 q 281 417 260 399 q 324 455 303 435 q 364 491 344 474 q 397 523 383 509 q 429 554 415 540 m 338 284 q 326 287 338 274 q 297 325 314 300 q 259 383 279 351 q 223 447 239 416 q 197 500 206 477 q 192 531 188 524 q 206 541 198 539 q 219 540 213 543 q 228 527 226 536 q 227 503 231 518 q 227 478 224 493 q 237 446 230 463 q 254 410 244 428 q 276 373 265 391 q 338 284 302 331 m 93 402 q 97 408 85 406 q 132 410 108 410 q 190 409 156 410 q 260 406 224 408 q 334 402 297 404 q 401 396 371 399 q 451 388 431 392 q 474 378 471 384 q 477 363 480 370 q 467 351 475 355 q 446 350 458 348 q 420 365 433 353 q 391 379 410 373 q 348 388 372 385 q 294 394 323 392 q 238 397 266 396 q 184 400 210 399 q 138 401 158 401 q 93 402 114 402 z "},".":{"ha":288,"x_min":66,"x_max":169,"o":"m 161 -17 q 135 -16 153 -24 q 99 10 117 -8 q 74 46 81 28 q 74 72 66 65 q 99 72 81 79 q 135 46 117 64 q 161 9 153 28 q 161 -17 169 -9 z "},"":{"ha":310,"x_min":13,"x_max":181,"o":"m 19 -199 q 15 -194 13 -203 q 27 -167 18 -185 q 51 -125 37 -149 q 79 -74 65 -100 q 107 -20 94 -47 q 129 28 120 6 q 140 62 138 50 q 142 71 142 68 q 144 76 143 74 q 148 85 147 82 q 149 89 148 88 q 150 91 149 90 q 151 92 151 91 q 161 93 155 94 q 172 86 167 92 q 178 60 181 76 q 163 36 175 46 q 143 16 153 29 q 124 -15 134 3 q 101 -53 113 -33 q 78 -94 90 -74 q 55 -133 66 -114 q 37 -167 44 -152 q 19 -199 27 -184 z "},"":{"ha":310,"x_min":13,"x_max":284,"o":"m 19 -199 q 15 -194 13 -203 q 27 -167 18 -185 q 51 -125 37 -149 q 79 -74 65 -100 q 107 -20 94 -47 q 129 28 120 6 q 140 62 138 50 q 142 71 142 68 q 144 76 143 74 q 148 85 147 82 q 149 89 148 88 q 150 91 149 90 q 151 92 151 91 q 161 93 155 94 q 172 86 167 92 q 178 60 181 76 q 163 36 175 46 q 143 16 153 29 q 124 -15 134 3 q 101 -53 113 -33 q 78 -94 90 -74 q 55 -133 66 -114 q 37 -167 44 -152 q 19 -199 27 -184 m 123 -199 q 119 -194 116 -203 q 131 -167 122 -185 q 154 -125 140 -149 q 183 -74 168 -100 q 210 -20 197 -47 q 233 28 224 6 q 244 62 242 50 q 246 71 245 68 q 248 76 247 74 q 251 85 251 82 q 252 89 251 88 q 253 91 253 90 q 255 92 254 91 q 264 93 258 94 q 275 86 270 92 q 282 60 284 76 q 266 36 278 46 q 247 16 256 29 q 227 -15 238 3 q 205 -53 216 -33 q 181 -94 193 -74 q 159 -133 169 -114 q 140 -167 148 -152 q 123 -199 131 -184 z "},"":{"ha":310,"x_min":82,"x_max":353,"o":"m 89 356 q 85 361 82 352 q 97 389 88 371 q 120 431 106 406 q 149 482 134 456 q 176 535 163 508 q 199 583 190 562 q 210 617 208 606 q 212 627 211 624 q 214 632 213 630 q 217 640 217 638 q 218 644 217 643 q 219 646 219 646 q 221 647 220 647 q 230 649 224 650 q 241 642 236 647 q 248 616 250 631 q 232 592 244 601 q 213 572 222 585 q 193 540 203 558 q 170 502 182 522 q 147 462 159 482 q 125 423 135 442 q 106 389 114 403 q 89 356 97 372 m 192 356 q 188 361 185 352 q 200 389 191 371 q 224 431 210 406 q 252 482 238 456 q 280 535 267 508 q 302 583 293 562 q 313 617 311 606 q 315 627 315 624 q 317 632 316 630 q 321 640 320 638 q 322 644 321 643 q 323 646 322 646 q 324 647 324 647 q 334 649 328 650 q 344 642 340 647 q 351 616 353 631 q 335 592 348 601 q 316 572 326 585 q 297 540 307 558 q 274 502 285 522 q 251 462 263 482 q 228 423 239 442 q 210 389 217 403 q 192 356 200 372 z "},"":{"ha":310,"x_min":34,"x_max":306,"o":"m 299 640 q 303 634 306 644 q 291 607 300 625 q 267 565 281 590 q 239 514 253 540 q 211 461 224 488 q 189 413 198 434 q 182 393 185 402 q 178 378 179 384 q 176 369 176 372 q 174 364 175 366 q 170 356 171 358 q 169 351 170 353 q 168 350 169 350 q 167 349 167 349 q 157 347 163 346 q 147 354 151 349 q 140 380 138 365 q 156 404 143 394 q 175 424 165 411 q 194 456 184 438 q 217 494 206 474 q 240 534 228 514 q 262 573 252 554 q 281 607 272 592 q 299 640 290 624 m 195 640 q 199 634 202 644 q 187 607 197 625 q 164 565 178 590 q 135 514 150 540 q 108 461 121 488 q 85 413 94 434 q 78 393 81 402 q 74 378 76 384 q 72 369 73 372 q 70 364 72 366 q 67 356 67 358 q 66 351 67 353 q 65 350 65 350 q 63 349 64 349 q 54 347 60 346 q 43 354 48 349 q 36 380 34 365 q 52 404 40 394 q 71 424 62 411 q 91 456 81 438 q 114 494 102 474 q 137 534 125 514 q 159 573 149 554 q 177 607 169 592 q 195 640 186 624 z "},"":{"ha":310,"x_min":138,"x_max":306,"o":"m 299 640 q 303 634 306 644 q 291 607 300 625 q 267 565 281 590 q 239 514 253 540 q 211 461 224 488 q 189 413 198 434 q 182 393 185 402 q 178 378 179 384 q 176 369 176 372 q 174 364 175 366 q 170 356 171 358 q 169 351 170 353 q 168 350 169 350 q 167 349 167 349 q 157 347 163 346 q 147 354 151 349 q 140 380 138 365 q 156 404 143 394 q 175 424 165 411 q 194 456 184 438 q 217 494 206 474 q 240 534 228 514 q 262 573 252 554 q 281 607 272 592 q 299 640 290 624 z "},"":{"ha":310,"x_min":82,"x_max":250,"o":"m 89 356 q 85 361 82 352 q 97 389 88 371 q 120 431 106 406 q 149 482 134 456 q 176 535 163 508 q 199 583 190 562 q 210 617 208 606 q 212 627 211 624 q 214 632 213 630 q 217 640 217 638 q 218 644 217 643 q 219 646 219 646 q 221 647 220 647 q 230 649 224 650 q 241 642 236 647 q 248 616 250 631 q 232 592 244 601 q 213 572 222 585 q 193 540 203 558 q 170 502 182 522 q 147 462 159 482 q 125 423 135 442 q 106 389 114 403 q 89 356 97 372 z "},"":{"ha":578,"x_min":8,"x_max":590,"o":"m 15 658 q 8 659 8 657 q 15 666 8 661 q 35 678 22 671 q 65 693 47 685 q 102 713 83 701 q 147 733 121 725 q 167 742 156 735 q 191 757 179 749 q 215 772 203 765 q 234 780 226 778 q 245 777 242 782 q 244 756 248 772 q 251 748 243 753 q 271 738 258 744 q 300 726 284 733 q 331 713 315 720 q 360 699 347 706 q 381 683 374 691 q 419 667 399 669 q 456 672 438 665 q 489 691 474 680 q 515 712 504 702 q 529 725 521 717 q 545 740 538 733 q 560 754 553 748 q 568 760 566 760 q 585 756 581 763 q 584 735 590 749 q 572 717 581 728 q 551 695 563 706 q 524 674 538 683 q 498 663 510 665 q 477 658 489 661 q 451 652 466 654 q 422 651 438 649 q 390 663 406 653 q 356 682 376 672 q 313 704 335 693 q 269 725 290 715 q 235 745 249 736 q 191 731 213 738 q 149 716 169 724 q 109 702 128 709 q 76 689 91 695 q 50 677 62 683 q 31 667 39 672 q 15 658 22 663 z "}}}
